<svg width="307" height="230" viewBox="0 0 307 230" fill="none" xmlns="http://www.w3.org/2000/svg">
<path d="M3.008 2.88V9.968C3.008 10.8107 3.22667 11.4453 3.664 11.872C4.112 12.2987 4.73067 12.512 5.52 12.512C6.32 12.512 6.93867 12.2987 7.376 11.872C7.824 11.4453 8.048 10.8107 8.048 9.968V2.88H9.872V9.936C9.872 10.8427 9.67467 11.6107 9.28 12.24C8.88533 12.8693 8.35733 13.3387 7.696 13.648C7.03467 13.9573 6.304 14.112 5.504 14.112C4.704 14.112 3.97333 13.9573 3.312 13.648C2.66133 13.3387 2.144 12.8693 1.76 12.24C1.376 11.6107 1.184 10.8427 1.184 9.936V2.88H3.008ZM15.4469 14.144C14.7535 14.144 14.1295 14.0213 13.5749 13.776C13.0309 13.52 12.5989 13.1787 12.2789 12.752C11.9589 12.3147 11.7882 11.8293 11.7669 11.296H13.6549C13.6869 11.6693 13.8629 11.984 14.1829 12.24C14.5135 12.4853 14.9242 12.608 15.4149 12.608C15.9269 12.608 16.3215 12.512 16.5989 12.32C16.8869 12.1173 17.0309 11.8613 17.0309 11.552C17.0309 11.2213 16.8709 10.976 16.5509 10.816C16.2415 10.656 15.7455 10.48 15.0629 10.288C14.4015 10.1067 13.8629 9.93067 13.4469 9.76C13.0309 9.58933 12.6682 9.328 12.3589 8.976C12.0602 8.624 11.9109 8.16 11.9109 7.584C11.9109 7.11467 12.0495 6.688 12.3269 6.304C12.6042 5.90933 12.9989 5.6 13.5109 5.376C14.0335 5.152 14.6309 5.04 15.3029 5.04C16.3055 5.04 17.1109 5.296 17.7189 5.808C18.3375 6.30933 18.6682 6.99733 18.7109 7.872H16.8869C16.8549 7.47733 16.6949 7.16267 16.4069 6.928C16.1189 6.69333 15.7295 6.576 15.2389 6.576C14.7589 6.576 14.3909 6.66667 14.1349 6.848C13.8789 7.02933 13.7509 7.26933 13.7509 7.568C13.7509 7.80267 13.8362 8 14.0069 8.16C14.1775 8.32 14.3855 8.448 14.6309 8.544C14.8762 8.62933 15.2389 8.74133 15.7189 8.88C16.3589 9.05067 16.8815 9.22667 17.2869 9.408C17.7029 9.57867 18.0602 9.83467 18.3589 10.176C18.6575 10.5173 18.8122 10.9707 18.8229 11.536C18.8229 12.0373 18.6842 12.4853 18.4069 12.88C18.1295 13.2747 17.7349 13.584 17.2229 13.808C16.7215 14.032 16.1295 14.144 15.4469 14.144ZM28.8738 9.376C28.8738 9.70667 28.8524 10.0053 28.8098 10.272H22.0738C22.1271 10.976 22.3884 11.5413 22.8578 11.968C23.3271 12.3947 23.9031 12.608 24.5858 12.608C25.5671 12.608 26.2604 12.1973 26.6658 11.376H28.6337C28.3671 12.1867 27.8818 12.8533 27.1778 13.376C26.4844 13.888 25.6204 14.144 24.5858 14.144C23.7431 14.144 22.9858 13.9573 22.3138 13.584C21.6524 13.2 21.1298 12.6667 20.7458 11.984C20.3724 11.2907 20.1858 10.4907 20.1858 9.584C20.1858 8.67733 20.3671 7.88267 20.7298 7.2C21.1031 6.50667 21.6204 5.97333 22.2818 5.6C22.9538 5.22667 23.7218 5.04 24.5858 5.04C25.4178 5.04 26.1591 5.22133 26.8098 5.584C27.4604 5.94667 27.9671 6.45867 28.3298 7.12C28.6924 7.77067 28.8738 8.52267 28.8738 9.376ZM26.9698 8.8C26.9591 8.128 26.7191 7.58933 26.2498 7.184C25.7804 6.77867 25.1991 6.576 24.5058 6.576C23.8764 6.576 23.3378 6.77867 22.8898 7.184C22.4418 7.57867 22.1751 8.11733 22.0898 8.8H26.9698ZM32.4928 6.464C32.7594 6.016 33.1114 5.66933 33.5488 5.424C33.9968 5.168 34.5248 5.04 35.1328 5.04V6.928H34.6688C33.9541 6.928 33.4101 7.10933 33.0368 7.472C32.6741 7.83467 32.4928 8.464 32.4928 9.36V14H30.6688V5.184H32.4928V6.464ZM41.2574 5.04C41.9507 5.04 42.5694 5.184 43.1134 5.472C43.668 5.76 44.1 6.18667 44.4094 6.752C44.7187 7.31733 44.8734 8 44.8734 8.8V14H43.0654V9.072C43.0654 8.28267 42.868 7.68 42.4734 7.264C42.0787 6.83733 41.54 6.624 40.8574 6.624C40.1747 6.624 39.6307 6.83733 39.2254 7.264C38.8307 7.68 38.6334 8.28267 38.6334 9.072V14H36.8094V5.184H38.6334V6.192C38.932 5.82933 39.3107 5.54667 39.7694 5.344C40.2387 5.14133 40.7347 5.04 41.2574 5.04ZM46.592 9.552C46.592 8.66667 46.7733 7.88267 47.136 7.2C47.5093 6.51733 48.0107 5.98933 48.64 5.616C49.28 5.232 49.984 5.04 50.752 5.04C51.4453 5.04 52.048 5.17867 52.56 5.456C53.0827 5.72267 53.4987 6.05867 53.808 6.464V5.184H55.648V14H53.808V12.688C53.4987 13.104 53.0773 13.4507 52.544 13.728C52.0107 14.0053 51.4027 14.144 50.72 14.144C49.9627 14.144 49.2693 13.952 48.64 13.568C48.0107 13.1733 47.5093 12.6293 47.136 11.936C46.7733 11.232 46.592 10.4373 46.592 9.552ZM53.808 9.584C53.808 8.976 53.68 8.448 53.424 8C53.1787 7.552 52.8533 7.21067 52.448 6.976C52.0427 6.74133 51.6053 6.624 51.136 6.624C50.6667 6.624 50.2293 6.74133 49.824 6.976C49.4187 7.2 49.088 7.536 48.832 7.984C48.5867 8.42133 48.464 8.944 48.464 9.552C48.464 10.16 48.5867 10.6933 48.832 11.152C49.088 11.6107 49.4187 11.9627 49.824 12.208C50.24 12.4427 50.6773 12.56 51.136 12.56C51.6053 12.56 52.0427 12.4427 52.448 12.208C52.8533 11.9733 53.1787 11.632 53.424 11.184C53.68 10.7253 53.808 10.192 53.808 9.584ZM68.7158 5.04C69.4091 5.04 70.0278 5.184 70.5718 5.472C71.1264 5.76 71.5584 6.18667 71.8678 6.752C72.1878 7.31733 72.3478 8 72.3478 8.8V14H70.5398V9.072C70.5398 8.28267 70.3424 7.68 69.9478 7.264C69.5531 6.83733 69.0144 6.624 68.3318 6.624C67.6491 6.624 67.1051 6.83733 66.6998 7.264C66.3051 7.68 66.1078 8.28267 66.1078 9.072V14H64.2998V9.072C64.2998 8.28267 64.1024 7.68 63.7078 7.264C63.3131 6.83733 62.7744 6.624 62.0918 6.624C61.4091 6.624 60.8651 6.83733 60.4598 7.264C60.0651 7.68 59.8678 8.28267 59.8678 9.072V14H58.0438V5.184H59.8678V6.192C60.1664 5.82933 60.5451 5.54667 61.0038 5.344C61.4624 5.14133 61.9531 5.04 62.4758 5.04C63.1798 5.04 63.8091 5.18933 64.3638 5.488C64.9184 5.78667 65.3451 6.21867 65.6438 6.784C65.9104 6.25067 66.3264 5.82933 66.8918 5.52C67.4571 5.2 68.0651 5.04 68.7158 5.04ZM82.7488 9.376C82.7488 9.70667 82.7274 10.0053 82.6848 10.272H75.9488C76.0021 10.976 76.2634 11.5413 76.7328 11.968C77.2021 12.3947 77.7781 12.608 78.4608 12.608C79.4421 12.608 80.1354 12.1973 80.5408 11.376H82.5087C82.2421 12.1867 81.7568 12.8533 81.0528 13.376C80.3594 13.888 79.4954 14.144 78.4608 14.144C77.6181 14.144 76.8608 13.9573 76.1888 13.584C75.5274 13.2 75.0048 12.6667 74.6208 11.984C74.2474 11.2907 74.0608 10.4907 74.0608 9.584C74.0608 8.67733 74.2421 7.88267 74.6048 7.2C74.9781 6.50667 75.4954 5.97333 76.1568 5.6C76.8288 5.22667 77.5968 5.04 78.4608 5.04C79.2928 5.04 80.0341 5.22133 80.6848 5.584C81.3354 5.94667 81.8421 6.45867 82.2048 7.12C82.5674 7.77067 82.7488 8.52267 82.7488 9.376ZM80.8448 8.8C80.8341 8.128 80.5941 7.58933 80.1248 7.184C79.6554 6.77867 79.0741 6.576 78.3808 6.576C77.7514 6.576 77.2128 6.77867 76.7648 7.184C76.3168 7.57867 76.0501 8.11733 75.9648 8.8H80.8448Z" fill="#2C3756"/>
<path d="M25.184 45.184V54H23.36V52.96C23.072 53.3227 22.6933 53.6107 22.224 53.824C21.7653 54.0267 21.2747 54.128 20.752 54.128C20.0587 54.128 19.4347 53.984 18.88 53.696C18.336 53.408 17.904 52.9813 17.584 52.416C17.2747 51.8507 17.12 51.168 17.12 50.368V45.184H18.928V50.096C18.928 50.8853 19.1253 51.4933 19.52 51.92C19.9147 52.336 20.4533 52.544 21.136 52.544C21.8187 52.544 22.3573 52.336 22.752 51.92C23.1573 51.4933 23.36 50.8853 23.36 50.096V45.184H25.184ZM30.7906 54.144C30.0973 54.144 29.4733 54.0213 28.9186 53.776C28.3746 53.52 27.9426 53.1787 27.6226 52.752C27.3026 52.3147 27.132 51.8293 27.1106 51.296H28.9986C29.0306 51.6693 29.2066 51.984 29.5266 52.24C29.8573 52.4853 30.268 52.608 30.7586 52.608C31.2706 52.608 31.6653 52.512 31.9426 52.32C32.2306 52.1173 32.3746 51.8613 32.3746 51.552C32.3746 51.2213 32.2146 50.976 31.8946 50.816C31.5853 50.656 31.0893 50.48 30.4066 50.288C29.7453 50.1067 29.2066 49.9307 28.7906 49.76C28.3746 49.5893 28.012 49.328 27.7026 48.976C27.404 48.624 27.2546 48.16 27.2546 47.584C27.2546 47.1147 27.3933 46.688 27.6706 46.304C27.948 45.9093 28.3426 45.6 28.8546 45.376C29.3773 45.152 29.9746 45.04 30.6466 45.04C31.6493 45.04 32.4546 45.296 33.0626 45.808C33.6813 46.3093 34.012 46.9973 34.0546 47.872H32.2306C32.1986 47.4773 32.0386 47.1627 31.7506 46.928C31.4626 46.6933 31.0733 46.576 30.5826 46.576C30.1026 46.576 29.7346 46.6667 29.4786 46.848C29.2226 47.0293 29.0946 47.2693 29.0946 47.568C29.0946 47.8027 29.18 48 29.3506 48.16C29.5213 48.32 29.7293 48.448 29.9746 48.544C30.22 48.6293 30.5826 48.7413 31.0626 48.88C31.7026 49.0507 32.2253 49.2267 32.6306 49.408C33.0466 49.5787 33.404 49.8347 33.7026 50.176C34.0013 50.5173 34.156 50.9707 34.1666 51.536C34.1666 52.0373 34.028 52.4853 33.7506 52.88C33.4733 53.2747 33.0786 53.584 32.5666 53.808C32.0653 54.032 31.4733 54.144 30.7906 54.144ZM44.2175 49.376C44.2175 49.7067 44.1962 50.0053 44.1535 50.272H37.4175C37.4708 50.976 37.7322 51.5413 38.2015 51.968C38.6708 52.3947 39.2468 52.608 39.9295 52.608C40.9108 52.608 41.6042 52.1973 42.0095 51.376H43.9775C43.7108 52.1867 43.2255 52.8533 42.5215 53.376C41.8282 53.888 40.9642 54.144 39.9295 54.144C39.0868 54.144 38.3295 53.9573 37.6575 53.584C36.9962 53.2 36.4735 52.6667 36.0895 51.984C35.7162 51.2907 35.5295 50.4907 35.5295 49.584C35.5295 48.6773 35.7108 47.8827 36.0735 47.2C36.4468 46.5067 36.9642 45.9733 37.6255 45.6C38.2975 45.2267 39.0655 45.04 39.9295 45.04C40.7615 45.04 41.5028 45.2213 42.1535 45.584C42.8042 45.9467 43.3108 46.4587 43.6735 47.12C44.0362 47.7707 44.2175 48.5227 44.2175 49.376ZM42.3135 48.8C42.3028 48.128 42.0628 47.5893 41.5935 47.184C41.1242 46.7787 40.5428 46.576 39.8495 46.576C39.2202 46.576 38.6815 46.7787 38.2335 47.184C37.7855 47.5787 37.5188 48.1173 37.4335 48.8H42.3135ZM47.8365 46.464C48.1032 46.016 48.4552 45.6693 48.8925 45.424C49.3405 45.168 49.8685 45.04 50.4765 45.04V46.928H50.0125C49.2978 46.928 48.7538 47.1093 48.3805 47.472C48.0178 47.8347 47.8365 48.464 47.8365 49.36V54H46.0125V45.184H47.8365V46.464ZM56.6011 45.04C57.2945 45.04 57.9131 45.184 58.4571 45.472C59.0118 45.76 59.4438 46.1867 59.7531 46.752C60.0625 47.3173 60.2171 48 60.2171 48.8V54H58.4091V49.072C58.4091 48.2827 58.2118 47.68 57.8171 47.264C57.4225 46.8373 56.8838 46.624 56.2011 46.624C55.5185 46.624 54.9745 46.8373 54.5691 47.264C54.1745 47.68 53.9771 48.2827 53.9771 49.072V54H52.1531V45.184H53.9771V46.192C54.2758 45.8293 54.6545 45.5467 55.1131 45.344C55.5825 45.1413 56.0785 45.04 56.6011 45.04ZM61.9358 49.552C61.9358 48.6667 62.1171 47.8827 62.4798 47.2C62.8531 46.5173 63.3544 45.9893 63.9838 45.616C64.6238 45.232 65.3278 45.04 66.0958 45.04C66.7891 45.04 67.3918 45.1787 67.9038 45.456C68.4264 45.7227 68.8424 46.0587 69.1518 46.464V45.184H70.9918V54H69.1518V52.688C68.8424 53.104 68.4211 53.4507 67.8878 53.728C67.3544 54.0053 66.7464 54.144 66.0638 54.144C65.3064 54.144 64.6131 53.952 63.9838 53.568C63.3544 53.1733 62.8531 52.6293 62.4798 51.936C62.1171 51.232 61.9358 50.4373 61.9358 49.552ZM69.1518 49.584C69.1518 48.976 69.0238 48.448 68.7678 48C68.5224 47.552 68.1971 47.2107 67.7918 46.976C67.3864 46.7413 66.9491 46.624 66.4798 46.624C66.0104 46.624 65.5731 46.7413 65.1678 46.976C64.7624 47.2 64.4318 47.536 64.1758 47.984C63.9304 48.4213 63.8078 48.944 63.8078 49.552C63.8078 50.16 63.9304 50.6933 64.1758 51.152C64.4318 51.6107 64.7624 51.9627 65.1678 52.208C65.5838 52.4427 66.0211 52.56 66.4798 52.56C66.9491 52.56 67.3864 52.4427 67.7918 52.208C68.1971 51.9733 68.5224 51.632 68.7678 51.184C69.0238 50.7253 69.1518 50.192 69.1518 49.584ZM84.0595 45.04C84.7528 45.04 85.3715 45.184 85.9155 45.472C86.4702 45.76 86.9022 46.1867 87.2115 46.752C87.5315 47.3173 87.6915 48 87.6915 48.8V54H85.8835V49.072C85.8835 48.2827 85.6862 47.68 85.2915 47.264C84.8968 46.8373 84.3582 46.624 83.6755 46.624C82.9928 46.624 82.4488 46.8373 82.0435 47.264C81.6488 47.68 81.4515 48.2827 81.4515 49.072V54H79.6435V49.072C79.6435 48.2827 79.4462 47.68 79.0515 47.264C78.6568 46.8373 78.1182 46.624 77.4355 46.624C76.7528 46.624 76.2088 46.8373 75.8035 47.264C75.4088 47.68 75.2115 48.2827 75.2115 49.072V54H73.3875V45.184H75.2115V46.192C75.5102 45.8293 75.8888 45.5467 76.3475 45.344C76.8062 45.1413 77.2968 45.04 77.8195 45.04C78.5235 45.04 79.1528 45.1893 79.7075 45.488C80.2622 45.7867 80.6888 46.2187 80.9875 46.784C81.2542 46.2507 81.6702 45.8293 82.2355 45.52C82.8008 45.2 83.4088 45.04 84.0595 45.04ZM98.0925 49.376C98.0925 49.7067 98.0712 50.0053 98.0285 50.272H91.2925C91.3458 50.976 91.6072 51.5413 92.0765 51.968C92.5458 52.3947 93.1218 52.608 93.8045 52.608C94.7858 52.608 95.4792 52.1973 95.8845 51.376H97.8525C97.5858 52.1867 97.1005 52.8533 96.3965 53.376C95.7032 53.888 94.8392 54.144 93.8045 54.144C92.9618 54.144 92.2045 53.9573 91.5325 53.584C90.8712 53.2 90.3485 52.6667 89.9645 51.984C89.5912 51.2907 89.4045 50.4907 89.4045 49.584C89.4045 48.6773 89.5858 47.8827 89.9485 47.2C90.3218 46.5067 90.8392 45.9733 91.5005 45.6C92.1725 45.2267 92.9405 45.04 93.8045 45.04C94.6365 45.04 95.3778 45.2213 96.0285 45.584C96.6792 45.9467 97.1858 46.4587 97.5485 47.12C97.9112 47.7707 98.0925 48.5227 98.0925 49.376ZM96.1885 48.8C96.1778 48.128 95.9378 47.5893 95.4685 47.184C94.9992 46.7787 94.4178 46.576 93.7245 46.576C93.0952 46.576 92.5565 46.7787 92.1085 47.184C91.6605 47.5787 91.3938 48.1173 91.3085 48.8H96.1885Z" fill="#6C7794"/>
<rect x="0.5" y="24.5" width="306" height="47" rx="7.5" stroke="#274492"/>
<path d="M8.976 101.192C8.976 101.757 8.84267 102.291 8.576 102.792C8.30933 103.293 7.88267 103.704 7.296 104.024C6.70933 104.333 5.95733 104.488 5.04 104.488H3.024V109H1.2V97.88H5.04C5.89333 97.88 6.61333 98.0293 7.2 98.328C7.79733 98.616 8.24 99.0107 8.528 99.512C8.82667 100.013 8.976 100.573 8.976 101.192ZM5.04 103C5.73333 103 6.25067 102.845 6.592 102.536C6.93333 102.216 7.104 101.768 7.104 101.192C7.104 99.976 6.416 99.368 5.04 99.368H3.024V103H5.04ZM10.1076 104.552C10.1076 103.667 10.289 102.883 10.6516 102.2C11.025 101.517 11.5263 100.989 12.1556 100.616C12.7956 100.232 13.4996 100.04 14.2676 100.04C14.961 100.04 15.5636 100.179 16.0756 100.456C16.5983 100.723 17.0143 101.059 17.3236 101.464V100.184H19.1636V109H17.3236V107.688C17.0143 108.104 16.593 108.451 16.0596 108.728C15.5263 109.005 14.9183 109.144 14.2356 109.144C13.4783 109.144 12.785 108.952 12.1556 108.568C11.5263 108.173 11.025 107.629 10.6516 106.936C10.289 106.232 10.1076 105.437 10.1076 104.552ZM17.3236 104.584C17.3236 103.976 17.1956 103.448 16.9396 103C16.6943 102.552 16.369 102.211 15.9636 101.976C15.5583 101.741 15.121 101.624 14.6516 101.624C14.1823 101.624 13.745 101.741 13.3396 101.976C12.9343 102.2 12.6036 102.536 12.3476 102.984C12.1023 103.421 11.9796 103.944 11.9796 104.552C11.9796 105.16 12.1023 105.693 12.3476 106.152C12.6036 106.611 12.9343 106.963 13.3396 107.208C13.7556 107.443 14.193 107.56 14.6516 107.56C15.121 107.56 15.5583 107.443 15.9636 107.208C16.369 106.973 16.6943 106.632 16.9396 106.184C17.1956 105.725 17.3236 105.192 17.3236 104.584ZM24.7594 109.144C24.066 109.144 23.442 109.021 22.8874 108.776C22.3434 108.52 21.9114 108.179 21.5914 107.752C21.2714 107.315 21.1007 106.829 21.0794 106.296H22.9674C22.9994 106.669 23.1754 106.984 23.4954 107.24C23.826 107.485 24.2367 107.608 24.7274 107.608C25.2394 107.608 25.634 107.512 25.9114 107.32C26.1994 107.117 26.3434 106.861 26.3434 106.552C26.3434 106.221 26.1834 105.976 25.8634 105.816C25.554 105.656 25.058 105.48 24.3754 105.288C23.714 105.107 23.1754 104.931 22.7594 104.76C22.3434 104.589 21.9807 104.328 21.6714 103.976C21.3727 103.624 21.2234 103.16 21.2234 102.584C21.2234 102.115 21.362 101.688 21.6394 101.304C21.9167 100.909 22.3114 100.6 22.8234 100.376C23.346 100.152 23.9434 100.04 24.6154 100.04C25.618 100.04 26.4234 100.296 27.0314 100.808C27.65 101.309 27.9807 101.997 28.0234 102.872H26.1994C26.1674 102.477 26.0074 102.163 25.7194 101.928C25.4314 101.693 25.042 101.576 24.5514 101.576C24.0714 101.576 23.7034 101.667 23.4474 101.848C23.1914 102.029 23.0634 102.269 23.0634 102.568C23.0634 102.803 23.1487 103 23.3194 103.16C23.49 103.32 23.698 103.448 23.9434 103.544C24.1887 103.629 24.5514 103.741 25.0314 103.88C25.6714 104.051 26.194 104.227 26.5994 104.408C27.0154 104.579 27.3727 104.835 27.6714 105.176C27.97 105.517 28.1247 105.971 28.1354 106.536C28.1354 107.037 27.9967 107.485 27.7194 107.88C27.442 108.275 27.0474 108.584 26.5354 108.808C26.034 109.032 25.442 109.144 24.7594 109.144ZM33.3063 109.144C32.6129 109.144 31.9889 109.021 31.4343 108.776C30.8903 108.52 30.4583 108.179 30.1383 107.752C29.8183 107.315 29.6476 106.829 29.6263 106.296H31.5143C31.5463 106.669 31.7223 106.984 32.0423 107.24C32.3729 107.485 32.7836 107.608 33.2743 107.608C33.7863 107.608 34.1809 107.512 34.4583 107.32C34.7463 107.117 34.8903 106.861 34.8903 106.552C34.8903 106.221 34.7303 105.976 34.4103 105.816C34.1009 105.656 33.6049 105.48 32.9223 105.288C32.2609 105.107 31.7223 104.931 31.3063 104.76C30.8903 104.589 30.5276 104.328 30.2183 103.976C29.9196 103.624 29.7703 103.16 29.7703 102.584C29.7703 102.115 29.9089 101.688 30.1863 101.304C30.4636 100.909 30.8583 100.6 31.3703 100.376C31.8929 100.152 32.4903 100.04 33.1623 100.04C34.1649 100.04 34.9703 100.296 35.5783 100.808C36.1969 101.309 36.5276 101.997 36.5703 102.872H34.7463C34.7143 102.477 34.5543 102.163 34.2663 101.928C33.9783 101.693 33.5889 101.576 33.0983 101.576C32.6183 101.576 32.2503 101.667 31.9943 101.848C31.7383 102.029 31.6103 102.269 31.6103 102.568C31.6103 102.803 31.6956 103 31.8663 103.16C32.0369 103.32 32.2449 103.448 32.4903 103.544C32.7356 103.629 33.0983 103.741 33.5783 103.88C34.2183 104.051 34.7409 104.227 35.1463 104.408C35.5623 104.579 35.9196 104.835 36.2183 105.176C36.5169 105.517 36.6716 105.971 36.6823 106.536C36.6823 107.037 36.5436 107.485 36.2663 107.88C35.9889 108.275 35.5943 108.584 35.0823 108.808C34.5809 109.032 33.9889 109.144 33.3063 109.144ZM50.4931 100.184L47.7571 109H45.8371L44.0611 102.488L42.2851 109H40.3651L37.6131 100.184H39.4691L41.3091 107.272L43.1811 100.184H45.0851L46.8771 107.24L48.7011 100.184H50.4931ZM55.6803 109.144C54.8483 109.144 54.0963 108.957 53.4243 108.584C52.7523 108.2 52.2243 107.667 51.8403 106.984C51.4563 106.291 51.2643 105.491 51.2643 104.584C51.2643 103.688 51.4616 102.893 51.8563 102.2C52.2509 101.507 52.7896 100.973 53.4723 100.6C54.1549 100.227 54.9176 100.04 55.7603 100.04C56.6029 100.04 57.3656 100.227 58.0483 100.6C58.7309 100.973 59.2696 101.507 59.6643 102.2C60.0589 102.893 60.2563 103.688 60.2563 104.584C60.2563 105.48 60.0536 106.275 59.6483 106.968C59.2429 107.661 58.6883 108.2 57.9843 108.584C57.2909 108.957 56.5229 109.144 55.6803 109.144ZM55.6803 107.56C56.1496 107.56 56.5869 107.448 56.9923 107.224C57.4083 107 57.7443 106.664 58.0003 106.216C58.2563 105.768 58.3843 105.224 58.3843 104.584C58.3843 103.944 58.2616 103.405 58.0163 102.968C57.7709 102.52 57.4456 102.184 57.0403 101.96C56.6349 101.736 56.1976 101.624 55.7283 101.624C55.2589 101.624 54.8216 101.736 54.4163 101.96C54.0216 102.184 53.7069 102.52 53.4723 102.968C53.2376 103.405 53.1203 103.944 53.1203 104.584C53.1203 105.533 53.3603 106.269 53.8403 106.792C54.3309 107.304 54.9443 107.56 55.6803 107.56ZM63.8834 101.464C64.15 101.016 64.502 100.669 64.9394 100.424C65.3874 100.168 65.9154 100.04 66.5234 100.04V101.928H66.0594C65.3447 101.928 64.8007 102.109 64.4274 102.472C64.0647 102.835 63.8834 103.464 63.8834 104.36V109H62.0594V100.184H63.8834V101.464ZM67.592 104.552C67.592 103.667 67.7733 102.883 68.136 102.2C68.5093 101.517 69.0107 100.989 69.64 100.616C70.28 100.232 70.9893 100.04 71.768 100.04C72.344 100.04 72.9093 100.168 73.464 100.424C74.0293 100.669 74.4773 101 74.808 101.416V97.16H76.648V109H74.808V107.672C74.5093 108.099 74.0933 108.451 73.56 108.728C73.0373 109.005 72.4347 109.144 71.752 109.144C70.984 109.144 70.28 108.952 69.64 108.568C69.0107 108.173 68.5093 107.629 68.136 106.936C67.7733 106.232 67.592 105.437 67.592 104.552ZM74.808 104.584C74.808 103.976 74.68 103.448 74.424 103C74.1787 102.552 73.8533 102.211 73.448 101.976C73.0427 101.741 72.6053 101.624 72.136 101.624C71.6667 101.624 71.2293 101.741 70.824 101.976C70.4187 102.2 70.088 102.536 69.832 102.984C69.5867 103.421 69.464 103.944 69.464 104.552C69.464 105.16 69.5867 105.693 69.832 106.152C70.088 106.611 70.4187 106.963 70.824 107.208C71.24 107.443 71.6773 107.56 72.136 107.56C72.6053 107.56 73.0427 107.443 73.448 107.208C73.8533 106.973 74.1787 106.632 74.424 106.184C74.68 105.725 74.808 105.192 74.808 104.584Z" fill="#2C3756"/>
<path d="M22.272 138.136L22.992 139.416L20.8 140.232L22.992 141.048L22.256 142.36L20.432 140.92L20.768 143.24H19.296L19.6 140.92L17.776 142.392L17.008 141.032L19.184 140.216L17.008 139.432L17.744 138.12L19.616 139.56L19.296 137.224H20.784L20.432 139.56L22.272 138.136ZM30.3345 138.136L31.0545 139.416L28.8625 140.232L31.0545 141.048L30.3185 142.36L28.4945 140.92L28.8305 143.24H27.3585L27.6625 140.92L25.8385 142.392L25.0705 141.032L27.2465 140.216L25.0705 139.432L25.8065 138.12L27.6785 139.56L27.3585 137.224H28.8465L28.4945 139.56L30.3345 138.136ZM38.397 138.136L39.117 139.416L36.925 140.232L39.117 141.048L38.381 142.36L36.557 140.92L36.893 143.24H35.421L35.725 140.92L33.901 142.392L33.133 141.032L35.309 140.216L33.133 139.432L33.869 138.12L35.741 139.56L35.421 137.224H36.909L36.557 139.56L38.397 138.136ZM46.4595 138.136L47.1795 139.416L44.9875 140.232L47.1795 141.048L46.4435 142.36L44.6195 140.92L44.9555 143.24H43.4835L43.7875 140.92L41.9635 142.392L41.1955 141.032L43.3715 140.216L41.1955 139.432L41.9315 138.12L43.8035 139.56L43.4835 137.224H44.9715L44.6195 139.56L46.4595 138.136ZM54.522 138.136L55.242 139.416L53.05 140.232L55.242 141.048L54.506 142.36L52.682 140.92L53.018 143.24H51.546L51.85 140.92L50.026 142.392L49.258 141.032L51.434 140.216L49.258 139.432L49.994 138.12L51.866 139.56L51.546 137.224H53.034L52.682 139.56L54.522 138.136ZM62.5845 138.136L63.3045 139.416L61.1125 140.232L63.3045 141.048L62.5685 142.36L60.7445 140.92L61.0805 143.24H59.6085L59.9125 140.92L58.0885 142.392L57.3205 141.032L59.4965 140.216L57.3205 139.432L58.0565 138.12L59.9285 139.56L59.6085 137.224H61.0965L60.7445 139.56L62.5845 138.136ZM70.647 138.136L71.367 139.416L69.175 140.232L71.367 141.048L70.631 142.36L68.807 140.92L69.143 143.24H67.671L67.975 140.92L66.151 142.392L65.383 141.032L67.559 140.216L65.383 139.432L66.119 138.12L67.991 139.56L67.671 137.224H69.159L68.807 139.56L70.647 138.136ZM78.7095 138.136L79.4295 139.416L77.2375 140.232L79.4295 141.048L78.6935 142.36L76.8695 140.92L77.2055 143.24H75.7335L76.0375 140.92L74.2135 142.392L73.4455 141.032L75.6215 140.216L73.4455 139.432L74.1815 138.12L76.0535 139.56L75.7335 137.224H77.2215L76.8695 139.56L78.7095 138.136ZM86.772 138.136L87.492 139.416L85.3 140.232L87.492 141.048L86.756 142.36L84.932 140.92L85.268 143.24H83.796L84.1 140.92L82.276 142.392L81.508 141.032L83.684 140.216L81.508 139.432L82.244 138.12L84.116 139.56L83.796 137.224H85.284L84.932 139.56L86.772 138.136Z" fill="#6C7794"/>
<path d="M281 137.4C274.439 137.4 271 142.232 271 143C271 143.766 274.439 148.6 281 148.6C287.56 148.6 291 143.766 291 143C291 142.232 287.56 137.4 281 137.4ZM281 147.307C278.545 147.307 276.555 145.379 276.555 143C276.555 140.621 278.545 138.691 281 138.691C283.455 138.691 285.444 140.621 285.444 143C285.444 145.379 283.455 147.307 281 147.307ZM281 143C280.593 142.553 281.663 140.846 281 140.846C279.772 140.846 278.777 141.811 278.777 143C278.777 144.189 279.772 145.154 281 145.154C282.227 145.154 283.223 144.189 283.223 143C283.223 142.453 281.346 143.379 281 143Z" fill="#353A35"/>
<rect x="0.5" y="119.5" width="306" height="47" rx="7.5" stroke="#274492"/>
<rect y="190" width="307" height="40" rx="8" fill="#274492"/>
<path d="M139.78 204.832V216H137.54V208.736L134.548 216H132.852L129.844 208.736V216H127.604V204.832H130.148L133.7 213.136L137.252 204.832H139.78ZM141.419 211.536C141.419 210.64 141.595 209.845 141.947 209.152C142.309 208.459 142.795 207.925 143.403 207.552C144.021 207.179 144.709 206.992 145.467 206.992C146.128 206.992 146.704 207.125 147.195 207.392C147.696 207.659 148.096 207.995 148.395 208.4V207.136H150.651V216H148.395V214.704C148.107 215.12 147.707 215.467 147.195 215.744C146.693 216.011 146.112 216.144 145.451 216.144C144.704 216.144 144.021 215.952 143.403 215.568C142.795 215.184 142.309 214.645 141.947 213.952C141.595 213.248 141.419 212.443 141.419 211.536ZM148.395 211.568C148.395 211.024 148.288 210.56 148.075 210.176C147.861 209.781 147.573 209.483 147.211 209.28C146.848 209.067 146.459 208.96 146.043 208.96C145.627 208.96 145.243 209.061 144.891 209.264C144.539 209.467 144.251 209.765 144.027 210.16C143.813 210.544 143.707 211.003 143.707 211.536C143.707 212.069 143.813 212.539 144.027 212.944C144.251 213.339 144.539 213.643 144.891 213.856C145.253 214.069 145.637 214.176 146.043 214.176C146.459 214.176 146.848 214.075 147.211 213.872C147.573 213.659 147.861 213.36 148.075 212.976C148.288 212.581 148.395 212.112 148.395 211.568ZM156.23 216.144C155.505 216.144 154.854 216.016 154.278 215.76C153.702 215.493 153.244 215.136 152.902 214.688C152.572 214.24 152.39 213.744 152.358 213.2H154.614C154.657 213.541 154.822 213.824 155.11 214.048C155.409 214.272 155.777 214.384 156.214 214.384C156.641 214.384 156.972 214.299 157.206 214.128C157.452 213.957 157.574 213.739 157.574 213.472C157.574 213.184 157.425 212.971 157.126 212.832C156.838 212.683 156.374 212.523 155.734 212.352C155.073 212.192 154.529 212.027 154.102 211.856C153.686 211.685 153.324 211.424 153.014 211.072C152.716 210.72 152.566 210.245 152.566 209.648C152.566 209.157 152.705 208.709 152.982 208.304C153.27 207.899 153.676 207.579 154.198 207.344C154.732 207.109 155.356 206.992 156.07 206.992C157.126 206.992 157.969 207.259 158.598 207.792C159.228 208.315 159.574 209.024 159.638 209.92H157.494C157.462 209.568 157.313 209.291 157.046 209.088C156.79 208.875 156.444 208.768 156.006 208.768C155.601 208.768 155.286 208.843 155.062 208.992C154.849 209.141 154.742 209.349 154.742 209.616C154.742 209.915 154.892 210.144 155.19 210.304C155.489 210.453 155.953 210.608 156.582 210.768C157.222 210.928 157.75 211.093 158.166 211.264C158.582 211.435 158.94 211.701 159.238 212.064C159.548 212.416 159.708 212.885 159.718 213.472C159.718 213.984 159.574 214.443 159.286 214.848C159.009 215.253 158.604 215.573 158.07 215.808C157.548 216.032 156.934 216.144 156.23 216.144ZM169.925 207.136V216H167.669V214.88C167.381 215.264 167.002 215.568 166.533 215.792C166.074 216.005 165.573 216.112 165.029 216.112C164.336 216.112 163.722 215.968 163.189 215.68C162.656 215.381 162.234 214.949 161.925 214.384C161.626 213.808 161.477 213.125 161.477 212.336V207.136H163.717V212.016C163.717 212.72 163.893 213.264 164.245 213.648C164.597 214.021 165.077 214.208 165.685 214.208C166.304 214.208 166.789 214.021 167.141 213.648C167.493 213.264 167.669 212.72 167.669 212.016V207.136H169.925ZM177.383 216L174.375 212.224V216H172.135V204.16H174.375V210.896L177.351 207.136H180.263L176.359 211.584L180.295 216H177.383Z" fill="#FCFCFC"/>
</svg>
