<svg width="248" height="102" viewBox="0 0 248 102" fill="none" xmlns="http://www.w3.org/2000/svg">
<g filter="url(#filter0_d_252_754)">
<rect x="7" y="4" width="236" height="90" rx="16" fill="white"/>
</g>
<path d="M28.436 21.99C29.768 21.99 30.932 22.248 31.928 22.764C32.936 23.268 33.71 24 34.25 24.96C34.802 25.908 35.078 27.018 35.078 28.29C35.078 29.562 34.802 30.666 34.25 31.602C33.71 32.538 32.936 33.258 31.928 33.762C30.932 34.254 29.768 34.5 28.436 34.5H24.35V21.99H28.436ZM28.436 32.826C29.9 32.826 31.022 32.43 31.802 31.638C32.582 30.846 32.972 29.73 32.972 28.29C32.972 26.838 32.582 25.704 31.802 24.888C31.022 24.072 29.9 23.664 28.436 23.664H26.402V32.826H28.436ZM38.1557 23.268C37.7837 23.268 37.4717 23.142 37.2197 22.89C36.9677 22.638 36.8417 22.326 36.8417 21.954C36.8417 21.582 36.9677 21.27 37.2197 21.018C37.4717 20.766 37.7837 20.64 38.1557 20.64C38.5157 20.64 38.8217 20.766 39.0737 21.018C39.3257 21.27 39.4517 21.582 39.4517 21.954C39.4517 22.326 39.3257 22.638 39.0737 22.89C38.8217 23.142 38.5157 23.268 38.1557 23.268ZM39.1637 24.582V34.5H37.1117V24.582H39.1637ZM44.2518 26.256V31.746C44.2518 32.118 44.3358 32.388 44.5038 32.556C44.6838 32.712 44.9838 32.79 45.4038 32.79H46.6638V34.5H45.0438C44.1198 34.5 43.4118 34.284 42.9198 33.852C42.4278 33.42 42.1818 32.718 42.1818 31.746V26.256H41.0118V24.582H42.1818V22.116H44.2518V24.582H46.6638V26.256H44.2518ZM57.5371 24.582V34.5H55.4851V33.33C55.1611 33.738 54.7351 34.062 54.2071 34.302C53.6911 34.53 53.1391 34.644 52.5511 34.644C51.7711 34.644 51.0691 34.482 50.4451 34.158C49.8331 33.834 49.3471 33.354 48.9871 32.718C48.6391 32.082 48.4651 31.314 48.4651 30.414V24.582H50.4991V30.108C50.4991 30.996 50.7211 31.68 51.1651 32.16C51.6091 32.628 52.2151 32.862 52.9831 32.862C53.7511 32.862 54.3571 32.628 54.8011 32.16C55.2571 31.68 55.4851 30.996 55.4851 30.108V24.582H57.5371ZM65.2485 24.42C66.0285 24.42 66.7245 24.582 67.3365 24.906C67.9605 25.23 68.4465 25.71 68.7945 26.346C69.1425 26.982 69.3165 27.75 69.3165 28.65V34.5H67.2825V28.956C67.2825 28.068 67.0605 27.39 66.6165 26.922C66.1725 26.442 65.5665 26.202 64.7985 26.202C64.0305 26.202 63.4185 26.442 62.9625 26.922C62.5185 27.39 62.2965 28.068 62.2965 28.956V34.5H60.2445V24.582H62.2965V25.716C62.6325 25.308 63.0585 24.99 63.5745 24.762C64.1025 24.534 64.6605 24.42 65.2485 24.42ZM71.25 29.496C71.25 28.5 71.454 27.618 71.862 26.85C72.282 26.082 72.846 25.488 73.554 25.068C74.274 24.636 75.072 24.42 75.948 24.42C76.596 24.42 77.232 24.564 77.856 24.852C78.492 25.128 78.996 25.5 79.368 25.968V21.18H81.438V34.5H79.368V33.006C79.032 33.486 78.564 33.882 77.964 34.194C77.376 34.506 76.698 34.662 75.93 34.662C75.066 34.662 74.274 34.446 73.554 34.014C72.846 33.57 72.282 32.958 71.862 32.178C71.454 31.386 71.25 30.492 71.25 29.496ZM79.368 29.532C79.368 28.848 79.224 28.254 78.936 27.75C78.66 27.246 78.294 26.862 77.838 26.598C77.382 26.334 76.89 26.202 76.362 26.202C75.834 26.202 75.342 26.334 74.886 26.598C74.43 26.85 74.058 27.228 73.77 27.732C73.494 28.224 73.356 28.812 73.356 29.496C73.356 30.18 73.494 30.78 73.77 31.296C74.058 31.812 74.43 32.208 74.886 32.484C75.354 32.748 75.846 32.88 76.362 32.88C76.89 32.88 77.382 32.748 77.838 32.484C78.294 32.22 78.66 31.836 78.936 31.332C79.224 30.816 79.368 30.216 79.368 29.532ZM83.4492 29.496C83.4492 28.5 83.6532 27.618 84.0612 26.85C84.4812 26.082 85.0452 25.488 85.7532 25.068C86.4732 24.636 87.2652 24.42 88.1292 24.42C88.9092 24.42 89.5872 24.576 90.1632 24.888C90.7512 25.188 91.2192 25.566 91.5672 26.022V24.582H93.6372V34.5H91.5672V33.024C91.2192 33.492 90.7452 33.882 90.1452 34.194C89.5452 34.506 88.8612 34.662 88.0932 34.662C87.2412 34.662 86.4612 34.446 85.7532 34.014C85.0452 33.57 84.4812 32.958 84.0612 32.178C83.6532 31.386 83.4492 30.492 83.4492 29.496ZM91.5672 29.532C91.5672 28.848 91.4232 28.254 91.1352 27.75C90.8592 27.246 90.4932 26.862 90.0372 26.598C89.5812 26.334 89.0892 26.202 88.5612 26.202C88.0332 26.202 87.5412 26.334 87.0852 26.598C86.6292 26.85 86.2572 27.228 85.9692 27.732C85.6932 28.224 85.5552 28.812 85.5552 29.496C85.5552 30.18 85.6932 30.78 85.9692 31.296C86.2572 31.812 86.6292 32.208 87.0852 32.484C87.5532 32.748 88.0452 32.88 88.5612 32.88C89.0892 32.88 89.5812 32.748 90.0372 32.484C90.4932 32.22 90.8592 31.836 91.1352 31.332C91.4232 30.816 91.5672 30.216 91.5672 29.532Z" fill="#777777"/>
<circle cx="214.5" cy="28.5" r="14.5" fill="#B8B8B8"/>
<path d="M26.276 57.922C26.364 56.558 26.8847 55.4947 27.838 54.732C28.806 53.9693 30.038 53.588 31.534 53.588C32.5607 53.588 33.448 53.7713 34.196 54.138C34.944 54.5047 35.5087 55.0033 35.89 55.634C36.2713 56.2647 36.462 56.976 36.462 57.768C36.462 58.6773 36.22 59.4547 35.736 60.1C35.252 60.7453 34.6727 61.178 33.998 61.398V61.486C34.8633 61.75 35.538 62.234 36.022 62.938C36.506 63.6273 36.748 64.5147 36.748 65.6C36.748 66.4653 36.55 67.2353 36.154 67.91C35.758 68.5847 35.1713 69.12 34.394 69.516C33.6167 69.8973 32.6853 70.088 31.6 70.088C30.016 70.088 28.7107 69.6847 27.684 68.878C26.672 68.0567 26.1293 66.8833 26.056 65.358H28.476C28.5347 66.1353 28.8353 66.7733 29.378 67.272C29.9207 67.756 30.654 67.998 31.578 67.998C32.4727 67.998 33.162 67.756 33.646 67.272C34.13 66.7733 34.372 66.1353 34.372 65.358C34.372 64.3313 34.042 63.6053 33.382 63.18C32.7367 62.74 31.7393 62.52 30.39 62.52H29.818V60.452H30.412C31.6 60.4373 32.502 60.2393 33.118 59.858C33.7487 59.4767 34.064 58.8753 34.064 58.054C34.064 57.35 33.8367 56.7927 33.382 56.382C32.9273 55.9567 32.282 55.744 31.446 55.744C30.6247 55.744 29.9867 55.9567 29.532 56.382C29.0773 56.7927 28.806 57.306 28.718 57.922H26.276ZM53.8533 70L47.9353 63.158V70H45.4273V54.71H47.9353V61.684L53.8753 54.71H57.0213L50.3773 62.366L57.1313 70H53.8533ZM70.4592 63.642C70.4592 64.0967 70.4299 64.5073 70.3712 64.874H61.1092C61.1826 65.842 61.5419 66.6193 62.1872 67.206C62.8326 67.7927 63.6246 68.086 64.5632 68.086C65.9126 68.086 66.8659 67.5213 67.4232 66.392H70.1292C69.7626 67.5067 69.0952 68.4233 68.1272 69.142C67.1739 69.846 65.9859 70.198 64.5632 70.198C63.4046 70.198 62.3632 69.9413 61.4392 69.428C60.5299 68.9 59.8112 68.1667 59.2832 67.228C58.7699 66.2747 58.5132 65.1747 58.5132 63.928C58.5132 62.6813 58.7626 61.5887 59.2612 60.65C59.7746 59.6967 60.4859 58.9633 61.3952 58.45C62.3192 57.9367 63.3752 57.68 64.5632 57.68C65.7072 57.68 66.7266 57.9293 67.6212 58.428C68.5159 58.9267 69.2126 59.6307 69.7112 60.54C70.2099 61.4347 70.4592 62.4687 70.4592 63.642ZM67.8412 62.85C67.8266 61.926 67.4966 61.1853 66.8512 60.628C66.2059 60.0707 65.4066 59.792 64.4532 59.792C63.5879 59.792 62.8472 60.0707 62.2312 60.628C61.6152 61.1707 61.2486 61.9113 61.1312 62.85H67.8412ZM77.8113 57.68C78.75 57.68 79.5787 57.8707 80.2973 58.252C81.0307 58.6187 81.6027 59.0807 82.0133 59.638V57.878H84.5433V70.198C84.5433 71.3127 84.3087 72.3027 83.8393 73.168C83.37 74.048 82.688 74.7373 81.7933 75.236C80.9133 75.7347 79.8573 75.984 78.6253 75.984C76.9827 75.984 75.6187 75.5953 74.5333 74.818C73.448 74.0553 72.832 73.014 72.6853 71.694H75.1713C75.362 72.3247 75.7653 72.8307 76.3813 73.212C77.012 73.608 77.76 73.806 78.6253 73.806C79.6373 73.806 80.4513 73.498 81.0673 72.882C81.698 72.266 82.0133 71.3713 82.0133 70.198V68.174C81.588 68.746 81.0087 69.23 80.2753 69.626C79.5567 70.0073 78.7353 70.198 77.8113 70.198C76.7553 70.198 75.7873 69.934 74.9073 69.406C74.042 68.8633 73.3527 68.1153 72.8393 67.162C72.3407 66.194 72.0913 65.1013 72.0913 63.884C72.0913 62.6667 72.3407 61.5887 72.8393 60.65C73.3527 59.7113 74.042 58.9853 74.9073 58.472C75.7873 57.944 76.7553 57.68 77.8113 57.68ZM82.0133 63.928C82.0133 63.092 81.8373 62.366 81.4853 61.75C81.148 61.134 80.7007 60.6647 80.1433 60.342C79.586 60.0193 78.9847 59.858 78.3393 59.858C77.694 59.858 77.0927 60.0193 76.5353 60.342C75.978 60.65 75.5233 61.112 75.1713 61.728C74.834 62.3293 74.6653 63.048 74.6653 63.884C74.6653 64.72 74.834 65.4533 75.1713 66.084C75.5233 66.7147 75.978 67.1987 76.5353 67.536C77.1073 67.8587 77.7087 68.02 78.3393 68.02C78.9847 68.02 79.586 67.8587 80.1433 67.536C80.7007 67.2133 81.148 66.744 81.4853 66.128C81.8373 65.4973 82.0133 64.764 82.0133 63.928ZM89.1135 56.272C88.6588 56.272 88.2775 56.118 87.9695 55.81C87.6615 55.502 87.5075 55.1207 87.5075 54.666C87.5075 54.2113 87.6615 53.83 87.9695 53.522C88.2775 53.214 88.6588 53.06 89.1135 53.06C89.5535 53.06 89.9275 53.214 90.2355 53.522C90.5435 53.83 90.6975 54.2113 90.6975 54.666C90.6975 55.1207 90.5435 55.502 90.2355 55.81C89.9275 56.118 89.5535 56.272 89.1135 56.272ZM90.3455 57.878V70H87.8375V57.878H90.3455ZM92.8023 63.884C92.8023 62.6667 93.0516 61.5887 93.5503 60.65C94.0636 59.7113 94.7529 58.9853 95.6183 58.472C96.4983 57.944 97.4663 57.68 98.5223 57.68C99.4756 57.68 100.304 57.8707 101.008 58.252C101.727 58.6187 102.299 59.0807 102.724 59.638V57.878H105.254V70H102.724V68.196C102.299 68.768 101.72 69.2447 100.986 69.626C100.253 70.0073 99.4169 70.198 98.4783 70.198C97.4369 70.198 96.4836 69.934 95.6183 69.406C94.7529 68.8633 94.0636 68.1153 93.5503 67.162C93.0516 66.194 92.8023 65.1013 92.8023 63.884ZM102.724 63.928C102.724 63.092 102.548 62.366 102.196 61.75C101.859 61.134 101.412 60.6647 100.854 60.342C100.297 60.0193 99.6956 59.858 99.0503 59.858C98.4049 59.858 97.8036 60.0193 97.2463 60.342C96.6889 60.65 96.2343 61.112 95.8823 61.728C95.5449 62.3293 95.3763 63.048 95.3763 63.884C95.3763 64.72 95.5449 65.4533 95.8823 66.084C96.2343 66.7147 96.6889 67.1987 97.2463 67.536C97.8183 67.8587 98.4196 68.02 99.0503 68.02C99.6956 68.02 100.297 67.8587 100.854 67.536C101.412 67.2133 101.859 66.744 102.196 66.128C102.548 65.4973 102.724 64.764 102.724 63.928ZM111.474 59.924V66.634C111.474 67.0887 111.577 67.4187 111.782 67.624C112.002 67.8147 112.369 67.91 112.882 67.91H114.422V70H112.442C111.313 70 110.448 69.736 109.846 69.208C109.245 68.68 108.944 67.822 108.944 66.634V59.924H107.514V57.878H108.944V54.864H111.474V57.878H114.422V59.924H111.474ZM115.898 63.884C115.898 62.6667 116.147 61.5887 116.646 60.65C117.159 59.7113 117.849 58.9853 118.714 58.472C119.594 57.944 120.562 57.68 121.618 57.68C122.571 57.68 123.4 57.8707 124.104 58.252C124.823 58.6187 125.395 59.0807 125.82 59.638V57.878H128.35V70H125.82V68.196C125.395 68.768 124.815 69.2447 124.082 69.626C123.349 70.0073 122.513 70.198 121.574 70.198C120.533 70.198 119.579 69.934 118.714 69.406C117.849 68.8633 117.159 68.1153 116.646 67.162C116.147 66.194 115.898 65.1013 115.898 63.884ZM125.82 63.928C125.82 63.092 125.644 62.366 125.292 61.75C124.955 61.134 124.507 60.6647 123.95 60.342C123.393 60.0193 122.791 59.858 122.146 59.858C121.501 59.858 120.899 60.0193 120.342 60.342C119.785 60.65 119.33 61.112 118.978 61.728C118.641 62.3293 118.472 63.048 118.472 63.884C118.472 64.72 118.641 65.4533 118.978 66.084C119.33 66.7147 119.785 67.1987 120.342 67.536C120.914 67.8587 121.515 68.02 122.146 68.02C122.791 68.02 123.393 67.8587 123.95 67.536C124.507 67.2133 124.955 66.744 125.292 66.128C125.644 65.4973 125.82 64.764 125.82 63.928ZM137.76 57.68C138.713 57.68 139.564 57.878 140.312 58.274C141.075 58.67 141.669 59.2567 142.094 60.034C142.519 60.8113 142.732 61.75 142.732 62.85V70H140.246V63.224C140.246 62.1387 139.975 61.31 139.432 60.738C138.889 60.1513 138.149 59.858 137.21 59.858C136.271 59.858 135.523 60.1513 134.966 60.738C134.423 61.31 134.152 62.1387 134.152 63.224V70H131.644V57.878H134.152V59.264C134.563 58.7653 135.083 58.3767 135.714 58.098C136.359 57.8193 137.041 57.68 137.76 57.68Z" fill="black"/>
<defs>
<filter id="filter0_d_252_754" x="0" y="0" width="248" height="102" filterUnits="userSpaceOnUse" color-interpolation-filters="sRGB">
<feFlood flood-opacity="0" result="BackgroundImageFix"/>
<feColorMatrix in="SourceAlpha" type="matrix" values="0 0 0 0 0 0 0 0 0 0 0 0 0 0 0 0 0 0 127 0" result="hardAlpha"/>
<feOffset dx="-1" dy="2"/>
<feGaussianBlur stdDeviation="3"/>
<feComposite in2="hardAlpha" operator="out"/>
<feColorMatrix type="matrix" values="0 0 0 0 0 0 0 0 0 0 0 0 0 0 0 0 0 0 0.1 0"/>
<feBlend mode="normal" in2="BackgroundImageFix" result="effect1_dropShadow_252_754"/>
<feBlend mode="normal" in="SourceGraphic" in2="effect1_dropShadow_252_754" result="shape"/>
</filter>
</defs>
</svg>
