<svg width="248" height="102" viewBox="0 0 248 102" fill="none" xmlns="http://www.w3.org/2000/svg">
<g filter="url(#filter0_d_252_760)">
<rect x="7" y="4" width="236" height="90" rx="16" fill="white"/>
</g>
<path d="M28.472 34.626C27.632 34.626 26.876 34.482 26.204 34.194C25.532 33.894 25.004 33.474 24.62 32.934C24.236 32.394 24.044 31.764 24.044 31.044H26.24C26.288 31.584 26.498 32.028 26.87 32.376C27.254 32.724 27.788 32.898 28.472 32.898C29.18 32.898 29.732 32.73 30.128 32.394C30.524 32.046 30.722 31.602 30.722 31.062C30.722 30.642 30.596 30.3 30.344 30.036C30.104 29.772 29.798 29.568 29.426 29.424C29.066 29.28 28.562 29.124 27.914 28.956C27.098 28.74 26.432 28.524 25.916 28.308C25.412 28.08 24.98 27.732 24.62 27.264C24.26 26.796 24.08 26.172 24.08 25.392C24.08 24.672 24.26 24.042 24.62 23.502C24.98 22.962 25.484 22.548 26.132 22.26C26.78 21.972 27.53 21.828 28.382 21.828C29.594 21.828 30.584 22.134 31.352 22.746C32.132 23.346 32.564 24.174 32.648 25.23H30.38C30.344 24.774 30.128 24.384 29.732 24.06C29.336 23.736 28.814 23.574 28.166 23.574C27.578 23.574 27.098 23.724 26.726 24.024C26.354 24.324 26.168 24.756 26.168 25.32C26.168 25.704 26.282 26.022 26.51 26.274C26.75 26.514 27.05 26.706 27.41 26.85C27.77 26.994 28.262 27.15 28.886 27.318C29.714 27.546 30.386 27.774 30.902 28.002C31.43 28.23 31.874 28.584 32.234 29.064C32.606 29.532 32.792 30.162 32.792 30.954C32.792 31.59 32.618 32.19 32.27 32.754C31.934 33.318 31.436 33.774 30.776 34.122C30.128 34.458 29.36 34.626 28.472 34.626ZM44.3033 29.298C44.3033 29.67 44.2793 30.006 44.2313 30.306H36.6533C36.7133 31.098 37.0073 31.734 37.5353 32.214C38.0633 32.694 38.7113 32.934 39.4793 32.934C40.5833 32.934 41.3633 32.472 41.8193 31.548H44.0333C43.7333 32.46 43.1873 33.21 42.3953 33.798C41.6153 34.374 40.6433 34.662 39.4793 34.662C38.5313 34.662 37.6793 34.452 36.9233 34.032C36.1793 33.6 35.5913 33 35.1593 32.232C34.7393 31.452 34.5293 30.552 34.5293 29.532C34.5293 28.512 34.7333 27.618 35.1413 26.85C35.5613 26.07 36.1433 25.47 36.8873 25.05C37.6433 24.63 38.5073 24.42 39.4793 24.42C40.4153 24.42 41.2493 24.624 41.9813 25.032C42.7133 25.44 43.2833 26.016 43.6913 26.76C44.0993 27.492 44.3033 28.338 44.3033 29.298ZM42.1613 28.65C42.1493 27.894 41.8793 27.288 41.3513 26.832C40.8233 26.376 40.1693 26.148 39.3893 26.148C38.6813 26.148 38.0753 26.376 37.5713 26.832C37.0673 27.276 36.7673 27.882 36.6713 28.65H42.1613ZM48.3747 21.18V34.5H46.3227V21.18H48.3747ZM60.1588 29.298C60.1588 29.67 60.1348 30.006 60.0868 30.306H52.5088C52.5688 31.098 52.8628 31.734 53.3908 32.214C53.9188 32.694 54.5668 32.934 55.3348 32.934C56.4388 32.934 57.2188 32.472 57.6748 31.548H59.8887C59.5888 32.46 59.0428 33.21 58.2508 33.798C57.4708 34.374 56.4988 34.662 55.3348 34.662C54.3868 34.662 53.5348 34.452 52.7788 34.032C52.0348 33.6 51.4468 33 51.0148 32.232C50.5948 31.452 50.3848 30.552 50.3848 29.532C50.3848 28.512 50.5888 27.618 50.9968 26.85C51.4168 26.07 51.9988 25.47 52.7428 25.05C53.4988 24.63 54.3628 24.42 55.3348 24.42C56.2708 24.42 57.1048 24.624 57.8368 25.032C58.5688 25.44 59.1388 26.016 59.5468 26.76C59.9548 27.492 60.1588 28.338 60.1588 29.298ZM58.0168 28.65C58.0048 27.894 57.7348 27.288 57.2068 26.832C56.6788 26.376 56.0248 26.148 55.2448 26.148C54.5368 26.148 53.9308 26.376 53.4268 26.832C52.9228 27.276 52.6228 27.882 52.5268 28.65H58.0168ZM65.7781 34.662C64.9981 34.662 64.2961 34.524 63.6721 34.248C63.0601 33.96 62.5741 33.576 62.2141 33.096C61.8541 32.604 61.6621 32.058 61.6381 31.458H63.7621C63.7981 31.878 63.9961 32.232 64.3561 32.52C64.7281 32.796 65.1901 32.934 65.7421 32.934C66.3181 32.934 66.7621 32.826 67.0741 32.61C67.3981 32.382 67.5601 32.094 67.5601 31.746C67.5601 31.374 67.3801 31.098 67.0201 30.918C66.6721 30.738 66.1141 30.54 65.3461 30.324C64.6021 30.12 63.9961 29.922 63.5281 29.73C63.0601 29.538 62.6521 29.244 62.3041 28.848C61.9681 28.452 61.8001 27.93 61.8001 27.282C61.8001 26.754 61.9561 26.274 62.2681 25.842C62.5801 25.398 63.0241 25.05 63.6001 24.798C64.1881 24.546 64.8601 24.42 65.6161 24.42C66.7441 24.42 67.6501 24.708 68.3341 25.284C69.0301 25.848 69.4021 26.622 69.4501 27.606H67.3981C67.3621 27.162 67.1821 26.808 66.8581 26.544C66.5341 26.28 66.0961 26.148 65.5441 26.148C65.0041 26.148 64.5901 26.25 64.3021 26.454C64.0141 26.658 63.8701 26.928 63.8701 27.264C63.8701 27.528 63.9661 27.75 64.1581 27.93C64.3501 28.11 64.5841 28.254 64.8601 28.362C65.1361 28.458 65.5441 28.584 66.0841 28.74C66.8041 28.932 67.3921 29.13 67.8481 29.334C68.3161 29.526 68.7181 29.814 69.0541 30.198C69.3901 30.582 69.5641 31.092 69.5761 31.728C69.5761 32.292 69.4201 32.796 69.1081 33.24C68.7961 33.684 68.3521 34.032 67.7761 34.284C67.2121 34.536 66.5461 34.662 65.7781 34.662ZM71.1094 29.496C71.1094 28.5 71.3134 27.618 71.7214 26.85C72.1414 26.082 72.7054 25.488 73.4134 25.068C74.1334 24.636 74.9254 24.42 75.7894 24.42C76.5694 24.42 77.2474 24.576 77.8234 24.888C78.4114 25.188 78.8794 25.566 79.2274 26.022V24.582H81.2974V34.5H79.2274V33.024C78.8794 33.492 78.4054 33.882 77.8054 34.194C77.2054 34.506 76.5214 34.662 75.7534 34.662C74.9014 34.662 74.1214 34.446 73.4134 34.014C72.7054 33.57 72.1414 32.958 71.7214 32.178C71.3134 31.386 71.1094 30.492 71.1094 29.496ZM79.2274 29.532C79.2274 28.848 79.0834 28.254 78.7954 27.75C78.5194 27.246 78.1534 26.862 77.6974 26.598C77.2414 26.334 76.7494 26.202 76.2214 26.202C75.6934 26.202 75.2014 26.334 74.7454 26.598C74.2894 26.85 73.9174 27.228 73.6294 27.732C73.3534 28.224 73.2154 28.812 73.2154 29.496C73.2154 30.18 73.3534 30.78 73.6294 31.296C73.9174 31.812 74.2894 32.208 74.7454 32.484C75.2134 32.748 75.7054 32.88 76.2214 32.88C76.7494 32.88 77.2414 32.748 77.6974 32.484C78.1534 32.22 78.5194 31.836 78.7954 31.332C79.0834 30.816 79.2274 30.216 79.2274 29.532ZM85.0366 23.268C84.6646 23.268 84.3526 23.142 84.1006 22.89C83.8486 22.638 83.7226 22.326 83.7226 21.954C83.7226 21.582 83.8486 21.27 84.1006 21.018C84.3526 20.766 84.6646 20.64 85.0366 20.64C85.3966 20.64 85.7026 20.766 85.9546 21.018C86.2066 21.27 86.3326 21.582 86.3326 21.954C86.3326 22.326 86.2066 22.638 85.9546 22.89C85.7026 23.142 85.3966 23.268 85.0366 23.268ZM86.0446 24.582V34.5H83.9926V24.582H86.0446Z" fill="#777777"/>
<circle cx="214.5" cy="28.5" r="14.5" fill="#6DAE43"/>
<path d="M26.276 57.922C26.364 56.558 26.8847 55.4947 27.838 54.732C28.806 53.9693 30.038 53.588 31.534 53.588C32.5607 53.588 33.448 53.7713 34.196 54.138C34.944 54.5047 35.5087 55.0033 35.89 55.634C36.2713 56.2647 36.462 56.976 36.462 57.768C36.462 58.6773 36.22 59.4547 35.736 60.1C35.252 60.7453 34.6727 61.178 33.998 61.398V61.486C34.8633 61.75 35.538 62.234 36.022 62.938C36.506 63.6273 36.748 64.5147 36.748 65.6C36.748 66.4653 36.55 67.2353 36.154 67.91C35.758 68.5847 35.1713 69.12 34.394 69.516C33.6167 69.8973 32.6853 70.088 31.6 70.088C30.016 70.088 28.7107 69.6847 27.684 68.878C26.672 68.0567 26.1293 66.8833 26.056 65.358H28.476C28.5347 66.1353 28.8353 66.7733 29.378 67.272C29.9207 67.756 30.654 67.998 31.578 67.998C32.4727 67.998 33.162 67.756 33.646 67.272C34.13 66.7733 34.372 66.1353 34.372 65.358C34.372 64.3313 34.042 63.6053 33.382 63.18C32.7367 62.74 31.7393 62.52 30.39 62.52H29.818V60.452H30.412C31.6 60.4373 32.502 60.2393 33.118 59.858C33.7487 59.4767 34.064 58.8753 34.064 58.054C34.064 57.35 33.8367 56.7927 33.382 56.382C32.9273 55.9567 32.282 55.744 31.446 55.744C30.6247 55.744 29.9867 55.9567 29.532 56.382C29.0773 56.7927 28.806 57.306 28.718 57.922H26.276ZM53.8533 70L47.9353 63.158V70H45.4273V54.71H47.9353V61.684L53.8753 54.71H57.0213L50.3773 62.366L57.1313 70H53.8533ZM70.4592 63.642C70.4592 64.0967 70.4299 64.5073 70.3712 64.874H61.1092C61.1826 65.842 61.5419 66.6193 62.1872 67.206C62.8326 67.7927 63.6246 68.086 64.5632 68.086C65.9126 68.086 66.8659 67.5213 67.4232 66.392H70.1292C69.7626 67.5067 69.0952 68.4233 68.1272 69.142C67.1739 69.846 65.9859 70.198 64.5632 70.198C63.4046 70.198 62.3632 69.9413 61.4392 69.428C60.5299 68.9 59.8112 68.1667 59.2832 67.228C58.7699 66.2747 58.5132 65.1747 58.5132 63.928C58.5132 62.6813 58.7626 61.5887 59.2612 60.65C59.7746 59.6967 60.4859 58.9633 61.3952 58.45C62.3192 57.9367 63.3752 57.68 64.5632 57.68C65.7072 57.68 66.7266 57.9293 67.6212 58.428C68.5159 58.9267 69.2126 59.6307 69.7112 60.54C70.2099 61.4347 70.4592 62.4687 70.4592 63.642ZM67.8412 62.85C67.8266 61.926 67.4966 61.1853 66.8512 60.628C66.2059 60.0707 65.4066 59.792 64.4532 59.792C63.5879 59.792 62.8472 60.0707 62.2312 60.628C61.6152 61.1707 61.2486 61.9113 61.1312 62.85H67.8412ZM77.8113 57.68C78.75 57.68 79.5787 57.8707 80.2973 58.252C81.0307 58.6187 81.6027 59.0807 82.0133 59.638V57.878H84.5433V70.198C84.5433 71.3127 84.3087 72.3027 83.8393 73.168C83.37 74.048 82.688 74.7373 81.7933 75.236C80.9133 75.7347 79.8573 75.984 78.6253 75.984C76.9827 75.984 75.6187 75.5953 74.5333 74.818C73.448 74.0553 72.832 73.014 72.6853 71.694H75.1713C75.362 72.3247 75.7653 72.8307 76.3813 73.212C77.012 73.608 77.76 73.806 78.6253 73.806C79.6373 73.806 80.4513 73.498 81.0673 72.882C81.698 72.266 82.0133 71.3713 82.0133 70.198V68.174C81.588 68.746 81.0087 69.23 80.2753 69.626C79.5567 70.0073 78.7353 70.198 77.8113 70.198C76.7553 70.198 75.7873 69.934 74.9073 69.406C74.042 68.8633 73.3527 68.1153 72.8393 67.162C72.3407 66.194 72.0913 65.1013 72.0913 63.884C72.0913 62.6667 72.3407 61.5887 72.8393 60.65C73.3527 59.7113 74.042 58.9853 74.9073 58.472C75.7873 57.944 76.7553 57.68 77.8113 57.68ZM82.0133 63.928C82.0133 63.092 81.8373 62.366 81.4853 61.75C81.148 61.134 80.7007 60.6647 80.1433 60.342C79.586 60.0193 78.9847 59.858 78.3393 59.858C77.694 59.858 77.0927 60.0193 76.5353 60.342C75.978 60.65 75.5233 61.112 75.1713 61.728C74.834 62.3293 74.6653 63.048 74.6653 63.884C74.6653 64.72 74.834 65.4533 75.1713 66.084C75.5233 66.7147 75.978 67.1987 76.5353 67.536C77.1073 67.8587 77.7087 68.02 78.3393 68.02C78.9847 68.02 79.586 67.8587 80.1433 67.536C80.7007 67.2133 81.148 66.744 81.4853 66.128C81.8373 65.4973 82.0133 64.764 82.0133 63.928ZM89.1135 56.272C88.6588 56.272 88.2775 56.118 87.9695 55.81C87.6615 55.502 87.5075 55.1207 87.5075 54.666C87.5075 54.2113 87.6615 53.83 87.9695 53.522C88.2775 53.214 88.6588 53.06 89.1135 53.06C89.5535 53.06 89.9275 53.214 90.2355 53.522C90.5435 53.83 90.6975 54.2113 90.6975 54.666C90.6975 55.1207 90.5435 55.502 90.2355 55.81C89.9275 56.118 89.5535 56.272 89.1135 56.272ZM90.3455 57.878V70H87.8375V57.878H90.3455ZM92.8023 63.884C92.8023 62.6667 93.0516 61.5887 93.5503 60.65C94.0636 59.7113 94.7529 58.9853 95.6183 58.472C96.4983 57.944 97.4663 57.68 98.5223 57.68C99.4756 57.68 100.304 57.8707 101.008 58.252C101.727 58.6187 102.299 59.0807 102.724 59.638V57.878H105.254V70H102.724V68.196C102.299 68.768 101.72 69.2447 100.986 69.626C100.253 70.0073 99.4169 70.198 98.4783 70.198C97.4369 70.198 96.4836 69.934 95.6183 69.406C94.7529 68.8633 94.0636 68.1153 93.5503 67.162C93.0516 66.194 92.8023 65.1013 92.8023 63.884ZM102.724 63.928C102.724 63.092 102.548 62.366 102.196 61.75C101.859 61.134 101.412 60.6647 100.854 60.342C100.297 60.0193 99.6956 59.858 99.0503 59.858C98.4049 59.858 97.8036 60.0193 97.2463 60.342C96.6889 60.65 96.2343 61.112 95.8823 61.728C95.5449 62.3293 95.3763 63.048 95.3763 63.884C95.3763 64.72 95.5449 65.4533 95.8823 66.084C96.2343 66.7147 96.6889 67.1987 97.2463 67.536C97.8183 67.8587 98.4196 68.02 99.0503 68.02C99.6956 68.02 100.297 67.8587 100.854 67.536C101.412 67.2133 101.859 66.744 102.196 66.128C102.548 65.4973 102.724 64.764 102.724 63.928ZM111.474 59.924V66.634C111.474 67.0887 111.577 67.4187 111.782 67.624C112.002 67.8147 112.369 67.91 112.882 67.91H114.422V70H112.442C111.313 70 110.448 69.736 109.846 69.208C109.245 68.68 108.944 67.822 108.944 66.634V59.924H107.514V57.878H108.944V54.864H111.474V57.878H114.422V59.924H111.474ZM115.898 63.884C115.898 62.6667 116.147 61.5887 116.646 60.65C117.159 59.7113 117.849 58.9853 118.714 58.472C119.594 57.944 120.562 57.68 121.618 57.68C122.571 57.68 123.4 57.8707 124.104 58.252C124.823 58.6187 125.395 59.0807 125.82 59.638V57.878H128.35V70H125.82V68.196C125.395 68.768 124.815 69.2447 124.082 69.626C123.349 70.0073 122.513 70.198 121.574 70.198C120.533 70.198 119.579 69.934 118.714 69.406C117.849 68.8633 117.159 68.1153 116.646 67.162C116.147 66.194 115.898 65.1013 115.898 63.884ZM125.82 63.928C125.82 63.092 125.644 62.366 125.292 61.75C124.955 61.134 124.507 60.6647 123.95 60.342C123.393 60.0193 122.791 59.858 122.146 59.858C121.501 59.858 120.899 60.0193 120.342 60.342C119.785 60.65 119.33 61.112 118.978 61.728C118.641 62.3293 118.472 63.048 118.472 63.884C118.472 64.72 118.641 65.4533 118.978 66.084C119.33 66.7147 119.785 67.1987 120.342 67.536C120.914 67.8587 121.515 68.02 122.146 68.02C122.791 68.02 123.393 67.8587 123.95 67.536C124.507 67.2133 124.955 66.744 125.292 66.128C125.644 65.4973 125.82 64.764 125.82 63.928ZM137.76 57.68C138.713 57.68 139.564 57.878 140.312 58.274C141.075 58.67 141.669 59.2567 142.094 60.034C142.519 60.8113 142.732 61.75 142.732 62.85V70H140.246V63.224C140.246 62.1387 139.975 61.31 139.432 60.738C138.889 60.1513 138.149 59.858 137.21 59.858C136.271 59.858 135.523 60.1513 134.966 60.738C134.423 61.31 134.152 62.1387 134.152 63.224V70H131.644V57.878H134.152V59.264C134.563 58.7653 135.083 58.3767 135.714 58.098C136.359 57.8193 137.041 57.68 137.76 57.68Z" fill="black"/>
<defs>
<filter id="filter0_d_252_760" x="0" y="0" width="248" height="102" filterUnits="userSpaceOnUse" color-interpolation-filters="sRGB">
<feFlood flood-opacity="0" result="BackgroundImageFix"/>
<feColorMatrix in="SourceAlpha" type="matrix" values="0 0 0 0 0 0 0 0 0 0 0 0 0 0 0 0 0 0 127 0" result="hardAlpha"/>
<feOffset dx="-1" dy="2"/>
<feGaussianBlur stdDeviation="3"/>
<feComposite in2="hardAlpha" operator="out"/>
<feColorMatrix type="matrix" values="0 0 0 0 0 0 0 0 0 0 0 0 0 0 0 0 0 0 0.1 0"/>
<feBlend mode="normal" in2="BackgroundImageFix" result="effect1_dropShadow_252_760"/>
<feBlend mode="normal" in="SourceGraphic" in2="effect1_dropShadow_252_760" result="shape"/>
</filter>
</defs>
</svg>
