<svg width="248" height="102" viewBox="0 0 248 102" fill="none" xmlns="http://www.w3.org/2000/svg">
<g filter="url(#filter0_d_252_748)">
<rect x="7" y="4" width="236" height="90" rx="16" fill="white"/>
</g>
<path d="M28.436 21.99C29.768 21.99 30.932 22.248 31.928 22.764C32.936 23.268 33.71 24 34.25 24.96C34.802 25.908 35.078 27.018 35.078 28.29C35.078 29.562 34.802 30.666 34.25 31.602C33.71 32.538 32.936 33.258 31.928 33.762C30.932 34.254 29.768 34.5 28.436 34.5H24.35V21.99H28.436ZM28.436 32.826C29.9 32.826 31.022 32.43 31.802 31.638C32.582 30.846 32.972 29.73 32.972 28.29C32.972 26.838 32.582 25.704 31.802 24.888C31.022 24.072 29.9 23.664 28.436 23.664H26.402V32.826H28.436ZM36.4277 29.496C36.4277 28.5 36.6317 27.618 37.0397 26.85C37.4597 26.082 38.0237 25.488 38.7317 25.068C39.4517 24.636 40.2437 24.42 41.1077 24.42C41.8877 24.42 42.5657 24.576 43.1417 24.888C43.7297 25.188 44.1977 25.566 44.5457 26.022V24.582H46.6157V34.5H44.5457V33.024C44.1977 33.492 43.7237 33.882 43.1237 34.194C42.5237 34.506 41.8397 34.662 41.0717 34.662C40.2197 34.662 39.4397 34.446 38.7317 34.014C38.0237 33.57 37.4597 32.958 37.0397 32.178C36.6317 31.386 36.4277 30.492 36.4277 29.496ZM44.5457 29.532C44.5457 28.848 44.4017 28.254 44.1137 27.75C43.8377 27.246 43.4717 26.862 43.0157 26.598C42.5597 26.334 42.0677 26.202 41.5397 26.202C41.0117 26.202 40.5197 26.334 40.0637 26.598C39.6077 26.85 39.2357 27.228 38.9477 27.732C38.6717 28.224 38.5337 28.812 38.5337 29.496C38.5337 30.18 38.6717 30.78 38.9477 31.296C39.2357 31.812 39.6077 32.208 40.0637 32.484C40.5317 32.748 41.0237 32.88 41.5397 32.88C42.0677 32.88 42.5597 32.748 43.0157 32.484C43.4717 32.22 43.8377 31.836 44.1137 31.332C44.4017 30.816 44.5457 30.216 44.5457 29.532ZM51.3629 21.18V34.5H49.3109V21.18H51.3629ZM53.373 29.496C53.373 28.5 53.577 27.618 53.985 26.85C54.405 26.082 54.969 25.488 55.677 25.068C56.397 24.636 57.189 24.42 58.053 24.42C58.833 24.42 59.511 24.576 60.087 24.888C60.675 25.188 61.143 25.566 61.491 26.022V24.582H63.561V34.5H61.491V33.024C61.143 33.492 60.669 33.882 60.069 34.194C59.469 34.506 58.785 34.662 58.017 34.662C57.165 34.662 56.385 34.446 55.677 34.014C54.969 33.57 54.405 32.958 53.985 32.178C53.577 31.386 53.373 30.492 53.373 29.496ZM61.491 29.532C61.491 28.848 61.347 28.254 61.059 27.75C60.783 27.246 60.417 26.862 59.961 26.598C59.505 26.334 59.013 26.202 58.485 26.202C57.957 26.202 57.465 26.334 57.009 26.598C56.553 26.85 56.181 27.228 55.893 27.732C55.617 28.224 55.479 28.812 55.479 29.496C55.479 30.18 55.617 30.78 55.893 31.296C56.181 31.812 56.553 32.208 57.009 32.484C57.477 32.748 57.969 32.88 58.485 32.88C59.013 32.88 59.505 32.748 59.961 32.484C60.417 32.22 60.783 31.836 61.059 31.332C61.347 30.816 61.491 30.216 61.491 29.532ZM78.2623 24.42C79.0423 24.42 79.7383 24.582 80.3503 24.906C80.9743 25.23 81.4603 25.71 81.8083 26.346C82.1683 26.982 82.3483 27.75 82.3483 28.65V34.5H80.3143V28.956C80.3143 28.068 80.0923 27.39 79.6483 26.922C79.2043 26.442 78.5983 26.202 77.8303 26.202C77.0623 26.202 76.4503 26.442 75.9943 26.922C75.5503 27.39 75.3283 28.068 75.3283 28.956V34.5H73.2943V28.956C73.2943 28.068 73.0723 27.39 72.6283 26.922C72.1843 26.442 71.5783 26.202 70.8103 26.202C70.0423 26.202 69.4303 26.442 68.9743 26.922C68.5303 27.39 68.3083 28.068 68.3083 28.956V34.5H66.2563V24.582H68.3083V25.716C68.6443 25.308 69.0703 24.99 69.5863 24.762C70.1023 24.534 70.6543 24.42 71.2423 24.42C72.0343 24.42 72.7423 24.588 73.3663 24.924C73.9903 25.26 74.4703 25.746 74.8063 26.382C75.1063 25.782 75.5743 25.308 76.2103 24.96C76.8463 24.6 77.5303 24.42 78.2623 24.42ZM98.3832 25.716C98.3832 26.352 98.2332 26.952 97.9332 27.516C97.6332 28.08 97.1532 28.542 96.4932 28.902C95.8332 29.25 94.9872 29.424 93.9552 29.424H91.6872V34.5H89.6352V21.99H93.9552C94.9152 21.99 95.7252 22.158 96.3852 22.494C97.0572 22.818 97.5552 23.262 97.8792 23.826C98.2152 24.39 98.3832 25.02 98.3832 25.716ZM93.9552 27.75C94.7352 27.75 95.3172 27.576 95.7012 27.228C96.0852 26.868 96.2772 26.364 96.2772 25.716C96.2772 24.348 95.5032 23.664 93.9552 23.664H91.6872V27.75H93.9552ZM102.392 26.022C102.692 25.518 103.088 25.128 103.58 24.852C104.084 24.564 104.678 24.42 105.362 24.42V26.544H104.84C104.036 26.544 103.424 26.748 103.004 27.156C102.596 27.564 102.392 28.272 102.392 29.28V34.5H100.34V24.582H102.392V26.022ZM111.55 34.662C110.614 34.662 109.768 34.452 109.012 34.032C108.256 33.6 107.662 33 107.23 32.232C106.798 31.452 106.582 30.552 106.582 29.532C106.582 28.524 106.804 27.63 107.248 26.85C107.692 26.07 108.298 25.47 109.066 25.05C109.834 24.63 110.692 24.42 111.64 24.42C112.588 24.42 113.446 24.63 114.214 25.05C114.982 25.47 115.588 26.07 116.032 26.85C116.476 27.63 116.698 28.524 116.698 29.532C116.698 30.54 116.47 31.434 116.014 32.214C115.558 32.994 114.934 33.6 114.142 34.032C113.362 34.452 112.498 34.662 111.55 34.662ZM111.55 32.88C112.078 32.88 112.57 32.754 113.026 32.502C113.494 32.25 113.872 31.872 114.16 31.368C114.448 30.864 114.592 30.252 114.592 29.532C114.592 28.812 114.454 28.206 114.178 27.714C113.902 27.21 113.536 26.832 113.08 26.58C112.624 26.328 112.132 26.202 111.604 26.202C111.076 26.202 110.584 26.328 110.128 26.58C109.684 26.832 109.33 27.21 109.066 27.714C108.802 28.206 108.67 28.812 108.67 29.532C108.67 30.6 108.94 31.428 109.48 32.016C110.032 32.592 110.722 32.88 111.55 32.88ZM122.327 34.662C121.547 34.662 120.845 34.524 120.221 34.248C119.609 33.96 119.123 33.576 118.763 33.096C118.403 32.604 118.211 32.058 118.187 31.458H120.311C120.347 31.878 120.545 32.232 120.905 32.52C121.277 32.796 121.739 32.934 122.291 32.934C122.867 32.934 123.311 32.826 123.623 32.61C123.947 32.382 124.109 32.094 124.109 31.746C124.109 31.374 123.929 31.098 123.569 30.918C123.221 30.738 122.663 30.54 121.895 30.324C121.151 30.12 120.545 29.922 120.077 29.73C119.609 29.538 119.201 29.244 118.853 28.848C118.517 28.452 118.349 27.93 118.349 27.282C118.349 26.754 118.505 26.274 118.817 25.842C119.129 25.398 119.573 25.05 120.149 24.798C120.737 24.546 121.409 24.42 122.165 24.42C123.293 24.42 124.199 24.708 124.883 25.284C125.579 25.848 125.951 26.622 125.999 27.606H123.947C123.911 27.162 123.731 26.808 123.407 26.544C123.083 26.28 122.645 26.148 122.093 26.148C121.553 26.148 121.139 26.25 120.851 26.454C120.563 26.658 120.419 26.928 120.419 27.264C120.419 27.528 120.515 27.75 120.707 27.93C120.899 28.11 121.133 28.254 121.409 28.362C121.685 28.458 122.093 28.584 122.633 28.74C123.353 28.932 123.941 29.13 124.397 29.334C124.865 29.526 125.267 29.814 125.603 30.198C125.939 30.582 126.113 31.092 126.125 31.728C126.125 32.292 125.969 32.796 125.657 33.24C125.345 33.684 124.901 34.032 124.325 34.284C123.761 34.536 123.095 34.662 122.327 34.662ZM137.432 29.298C137.432 29.67 137.408 30.006 137.36 30.306H129.782C129.842 31.098 130.136 31.734 130.664 32.214C131.192 32.694 131.84 32.934 132.608 32.934C133.712 32.934 134.492 32.472 134.948 31.548H137.162C136.862 32.46 136.316 33.21 135.524 33.798C134.744 34.374 133.772 34.662 132.608 34.662C131.66 34.662 130.808 34.452 130.052 34.032C129.308 33.6 128.72 33 128.288 32.232C127.868 31.452 127.658 30.552 127.658 29.532C127.658 28.512 127.862 27.618 128.27 26.85C128.69 26.07 129.272 25.47 130.016 25.05C130.772 24.63 131.636 24.42 132.608 24.42C133.544 24.42 134.378 24.624 135.11 25.032C135.842 25.44 136.412 26.016 136.82 26.76C137.228 27.492 137.432 28.338 137.432 29.298ZM135.29 28.65C135.278 27.894 135.008 27.288 134.48 26.832C133.952 26.376 133.298 26.148 132.518 26.148C131.81 26.148 131.204 26.376 130.7 26.832C130.196 27.276 129.896 27.882 129.8 28.65H135.29ZM143.052 34.662C142.272 34.662 141.57 34.524 140.946 34.248C140.334 33.96 139.848 33.576 139.488 33.096C139.128 32.604 138.936 32.058 138.912 31.458H141.036C141.072 31.878 141.27 32.232 141.63 32.52C142.002 32.796 142.464 32.934 143.016 32.934C143.592 32.934 144.036 32.826 144.348 32.61C144.672 32.382 144.834 32.094 144.834 31.746C144.834 31.374 144.654 31.098 144.294 30.918C143.946 30.738 143.388 30.54 142.62 30.324C141.876 30.12 141.27 29.922 140.802 29.73C140.334 29.538 139.926 29.244 139.578 28.848C139.242 28.452 139.074 27.93 139.074 27.282C139.074 26.754 139.23 26.274 139.542 25.842C139.854 25.398 140.298 25.05 140.874 24.798C141.462 24.546 142.134 24.42 142.89 24.42C144.018 24.42 144.924 24.708 145.608 25.284C146.304 25.848 146.676 26.622 146.724 27.606H144.672C144.636 27.162 144.456 26.808 144.132 26.544C143.808 26.28 143.37 26.148 142.818 26.148C142.278 26.148 141.864 26.25 141.576 26.454C141.288 26.658 141.144 26.928 141.144 27.264C141.144 27.528 141.24 27.75 141.432 27.93C141.624 28.11 141.858 28.254 142.134 28.362C142.41 28.458 142.818 28.584 143.358 28.74C144.078 28.932 144.666 29.13 145.122 29.334C145.59 29.526 145.992 29.814 146.328 30.198C146.664 30.582 146.838 31.092 146.85 31.728C146.85 32.292 146.694 32.796 146.382 33.24C146.07 33.684 145.626 34.032 145.05 34.284C144.486 34.536 143.82 34.662 143.052 34.662Z" fill="#777777"/>
<circle cx="214.5" cy="28.5" r="14.5" fill="#FD9F00"/>
<path d="M26.276 57.922C26.364 56.558 26.8847 55.4947 27.838 54.732C28.806 53.9693 30.038 53.588 31.534 53.588C32.5607 53.588 33.448 53.7713 34.196 54.138C34.944 54.5047 35.5087 55.0033 35.89 55.634C36.2713 56.2647 36.462 56.976 36.462 57.768C36.462 58.6773 36.22 59.4547 35.736 60.1C35.252 60.7453 34.6727 61.178 33.998 61.398V61.486C34.8633 61.75 35.538 62.234 36.022 62.938C36.506 63.6273 36.748 64.5147 36.748 65.6C36.748 66.4653 36.55 67.2353 36.154 67.91C35.758 68.5847 35.1713 69.12 34.394 69.516C33.6167 69.8973 32.6853 70.088 31.6 70.088C30.016 70.088 28.7107 69.6847 27.684 68.878C26.672 68.0567 26.1293 66.8833 26.056 65.358H28.476C28.5347 66.1353 28.8353 66.7733 29.378 67.272C29.9207 67.756 30.654 67.998 31.578 67.998C32.4727 67.998 33.162 67.756 33.646 67.272C34.13 66.7733 34.372 66.1353 34.372 65.358C34.372 64.3313 34.042 63.6053 33.382 63.18C32.7367 62.74 31.7393 62.52 30.39 62.52H29.818V60.452H30.412C31.6 60.4373 32.502 60.2393 33.118 59.858C33.7487 59.4767 34.064 58.8753 34.064 58.054C34.064 57.35 33.8367 56.7927 33.382 56.382C32.9273 55.9567 32.282 55.744 31.446 55.744C30.6247 55.744 29.9867 55.9567 29.532 56.382C29.0773 56.7927 28.806 57.306 28.718 57.922H26.276ZM53.8533 70L47.9353 63.158V70H45.4273V54.71H47.9353V61.684L53.8753 54.71H57.0213L50.3773 62.366L57.1313 70H53.8533ZM70.4592 63.642C70.4592 64.0967 70.4299 64.5073 70.3712 64.874H61.1092C61.1826 65.842 61.5419 66.6193 62.1872 67.206C62.8326 67.7927 63.6246 68.086 64.5632 68.086C65.9126 68.086 66.8659 67.5213 67.4232 66.392H70.1292C69.7626 67.5067 69.0952 68.4233 68.1272 69.142C67.1739 69.846 65.9859 70.198 64.5632 70.198C63.4046 70.198 62.3632 69.9413 61.4392 69.428C60.5299 68.9 59.8112 68.1667 59.2832 67.228C58.7699 66.2747 58.5132 65.1747 58.5132 63.928C58.5132 62.6813 58.7626 61.5887 59.2612 60.65C59.7746 59.6967 60.4859 58.9633 61.3952 58.45C62.3192 57.9367 63.3752 57.68 64.5632 57.68C65.7072 57.68 66.7266 57.9293 67.6212 58.428C68.5159 58.9267 69.2126 59.6307 69.7112 60.54C70.2099 61.4347 70.4592 62.4687 70.4592 63.642ZM67.8412 62.85C67.8266 61.926 67.4966 61.1853 66.8512 60.628C66.2059 60.0707 65.4066 59.792 64.4532 59.792C63.5879 59.792 62.8472 60.0707 62.2312 60.628C61.6152 61.1707 61.2486 61.9113 61.1312 62.85H67.8412ZM77.8113 57.68C78.75 57.68 79.5787 57.8707 80.2973 58.252C81.0307 58.6187 81.6027 59.0807 82.0133 59.638V57.878H84.5433V70.198C84.5433 71.3127 84.3087 72.3027 83.8393 73.168C83.37 74.048 82.688 74.7373 81.7933 75.236C80.9133 75.7347 79.8573 75.984 78.6253 75.984C76.9827 75.984 75.6187 75.5953 74.5333 74.818C73.448 74.0553 72.832 73.014 72.6853 71.694H75.1713C75.362 72.3247 75.7653 72.8307 76.3813 73.212C77.012 73.608 77.76 73.806 78.6253 73.806C79.6373 73.806 80.4513 73.498 81.0673 72.882C81.698 72.266 82.0133 71.3713 82.0133 70.198V68.174C81.588 68.746 81.0087 69.23 80.2753 69.626C79.5567 70.0073 78.7353 70.198 77.8113 70.198C76.7553 70.198 75.7873 69.934 74.9073 69.406C74.042 68.8633 73.3527 68.1153 72.8393 67.162C72.3407 66.194 72.0913 65.1013 72.0913 63.884C72.0913 62.6667 72.3407 61.5887 72.8393 60.65C73.3527 59.7113 74.042 58.9853 74.9073 58.472C75.7873 57.944 76.7553 57.68 77.8113 57.68ZM82.0133 63.928C82.0133 63.092 81.8373 62.366 81.4853 61.75C81.148 61.134 80.7007 60.6647 80.1433 60.342C79.586 60.0193 78.9847 59.858 78.3393 59.858C77.694 59.858 77.0927 60.0193 76.5353 60.342C75.978 60.65 75.5233 61.112 75.1713 61.728C74.834 62.3293 74.6653 63.048 74.6653 63.884C74.6653 64.72 74.834 65.4533 75.1713 66.084C75.5233 66.7147 75.978 67.1987 76.5353 67.536C77.1073 67.8587 77.7087 68.02 78.3393 68.02C78.9847 68.02 79.586 67.8587 80.1433 67.536C80.7007 67.2133 81.148 66.744 81.4853 66.128C81.8373 65.4973 82.0133 64.764 82.0133 63.928ZM89.1135 56.272C88.6588 56.272 88.2775 56.118 87.9695 55.81C87.6615 55.502 87.5075 55.1207 87.5075 54.666C87.5075 54.2113 87.6615 53.83 87.9695 53.522C88.2775 53.214 88.6588 53.06 89.1135 53.06C89.5535 53.06 89.9275 53.214 90.2355 53.522C90.5435 53.83 90.6975 54.2113 90.6975 54.666C90.6975 55.1207 90.5435 55.502 90.2355 55.81C89.9275 56.118 89.5535 56.272 89.1135 56.272ZM90.3455 57.878V70H87.8375V57.878H90.3455ZM92.8023 63.884C92.8023 62.6667 93.0516 61.5887 93.5503 60.65C94.0636 59.7113 94.7529 58.9853 95.6183 58.472C96.4983 57.944 97.4663 57.68 98.5223 57.68C99.4756 57.68 100.304 57.8707 101.008 58.252C101.727 58.6187 102.299 59.0807 102.724 59.638V57.878H105.254V70H102.724V68.196C102.299 68.768 101.72 69.2447 100.986 69.626C100.253 70.0073 99.4169 70.198 98.4783 70.198C97.4369 70.198 96.4836 69.934 95.6183 69.406C94.7529 68.8633 94.0636 68.1153 93.5503 67.162C93.0516 66.194 92.8023 65.1013 92.8023 63.884ZM102.724 63.928C102.724 63.092 102.548 62.366 102.196 61.75C101.859 61.134 101.412 60.6647 100.854 60.342C100.297 60.0193 99.6956 59.858 99.0503 59.858C98.4049 59.858 97.8036 60.0193 97.2463 60.342C96.6889 60.65 96.2343 61.112 95.8823 61.728C95.5449 62.3293 95.3763 63.048 95.3763 63.884C95.3763 64.72 95.5449 65.4533 95.8823 66.084C96.2343 66.7147 96.6889 67.1987 97.2463 67.536C97.8183 67.8587 98.4196 68.02 99.0503 68.02C99.6956 68.02 100.297 67.8587 100.854 67.536C101.412 67.2133 101.859 66.744 102.196 66.128C102.548 65.4973 102.724 64.764 102.724 63.928ZM111.474 59.924V66.634C111.474 67.0887 111.577 67.4187 111.782 67.624C112.002 67.8147 112.369 67.91 112.882 67.91H114.422V70H112.442C111.313 70 110.448 69.736 109.846 69.208C109.245 68.68 108.944 67.822 108.944 66.634V59.924H107.514V57.878H108.944V54.864H111.474V57.878H114.422V59.924H111.474ZM115.898 63.884C115.898 62.6667 116.147 61.5887 116.646 60.65C117.159 59.7113 117.849 58.9853 118.714 58.472C119.594 57.944 120.562 57.68 121.618 57.68C122.571 57.68 123.4 57.8707 124.104 58.252C124.823 58.6187 125.395 59.0807 125.82 59.638V57.878H128.35V70H125.82V68.196C125.395 68.768 124.815 69.2447 124.082 69.626C123.349 70.0073 122.513 70.198 121.574 70.198C120.533 70.198 119.579 69.934 118.714 69.406C117.849 68.8633 117.159 68.1153 116.646 67.162C116.147 66.194 115.898 65.1013 115.898 63.884ZM125.82 63.928C125.82 63.092 125.644 62.366 125.292 61.75C124.955 61.134 124.507 60.6647 123.95 60.342C123.393 60.0193 122.791 59.858 122.146 59.858C121.501 59.858 120.899 60.0193 120.342 60.342C119.785 60.65 119.33 61.112 118.978 61.728C118.641 62.3293 118.472 63.048 118.472 63.884C118.472 64.72 118.641 65.4533 118.978 66.084C119.33 66.7147 119.785 67.1987 120.342 67.536C120.914 67.8587 121.515 68.02 122.146 68.02C122.791 68.02 123.393 67.8587 123.95 67.536C124.507 67.2133 124.955 66.744 125.292 66.128C125.644 65.4973 125.82 64.764 125.82 63.928ZM137.76 57.68C138.713 57.68 139.564 57.878 140.312 58.274C141.075 58.67 141.669 59.2567 142.094 60.034C142.519 60.8113 142.732 61.75 142.732 62.85V70H140.246V63.224C140.246 62.1387 139.975 61.31 139.432 60.738C138.889 60.1513 138.149 59.858 137.21 59.858C136.271 59.858 135.523 60.1513 134.966 60.738C134.423 61.31 134.152 62.1387 134.152 63.224V70H131.644V57.878H134.152V59.264C134.563 58.7653 135.083 58.3767 135.714 58.098C136.359 57.8193 137.041 57.68 137.76 57.68Z" fill="black"/>
<defs>
<filter id="filter0_d_252_748" x="0" y="0" width="248" height="102" filterUnits="userSpaceOnUse" color-interpolation-filters="sRGB">
<feFlood flood-opacity="0" result="BackgroundImageFix"/>
<feColorMatrix in="SourceAlpha" type="matrix" values="0 0 0 0 0 0 0 0 0 0 0 0 0 0 0 0 0 0 127 0" result="hardAlpha"/>
<feOffset dx="-1" dy="2"/>
<feGaussianBlur stdDeviation="3"/>
<feComposite in2="hardAlpha" operator="out"/>
<feColorMatrix type="matrix" values="0 0 0 0 0 0 0 0 0 0 0 0 0 0 0 0 0 0 0.1 0"/>
<feBlend mode="normal" in2="BackgroundImageFix" result="effect1_dropShadow_252_748"/>
<feBlend mode="normal" in="SourceGraphic" in2="effect1_dropShadow_252_748" result="shape"/>
</filter>
</defs>
</svg>
