<svg width="407" height="276" viewBox="0 0 407 276" fill="none" xmlns="http://www.w3.org/2000/svg">
<g filter="url(#filter0_dd_376_921)">
<g clip-path="url(#clip0_376_921)">
<rect x="4" y="4" width="397" height="285" rx="16" fill="white"/>
<g filter="url(#filter1_b_376_921)">
<path d="M33.2 101.14C32.2267 101.14 31.3467 100.973 30.56 100.64C29.7867 100.307 29.1733 99.8267 28.72 99.2C28.2667 98.5733 28.0333 97.8333 28.02 96.98H31.02C31.06 97.5533 31.26 98.0067 31.62 98.34C31.9933 98.6733 32.5 98.84 33.14 98.84C33.7933 98.84 34.3067 98.6867 34.68 98.38C35.0533 98.06 35.24 97.6467 35.24 97.14C35.24 96.7267 35.1133 96.3867 34.86 96.12C34.6067 95.8533 34.2867 95.6467 33.9 95.5C33.5267 95.34 33.0067 95.1667 32.34 94.98C31.4333 94.7133 30.6933 94.4533 30.12 94.2C29.56 93.9333 29.0733 93.54 28.66 93.02C28.26 92.4867 28.06 91.78 28.06 90.9C28.06 90.0733 28.2667 89.3533 28.68 88.74C29.0933 88.1267 29.6733 87.66 30.42 87.34C31.1667 87.0067 32.02 86.84 32.98 86.84C34.42 86.84 35.5867 87.1933 36.48 87.9C37.3867 88.5933 37.8867 89.5667 37.98 90.82H34.9C34.8733 90.34 34.6667 89.9467 34.28 89.64C33.9067 89.32 33.4067 89.16 32.78 89.16C32.2333 89.16 31.7933 89.3 31.46 89.58C31.14 89.86 30.98 90.2667 30.98 90.8C30.98 91.1733 31.1 91.4867 31.34 91.74C31.5933 91.98 31.9 92.18 32.26 92.34C32.6333 92.4867 33.1533 92.66 33.82 92.86C34.7267 93.1267 35.4667 93.3933 36.04 93.66C36.6133 93.9267 37.1067 94.3267 37.52 94.86C37.9333 95.3933 38.14 96.0933 38.14 96.96C38.14 97.7067 37.9467 98.4 37.56 99.04C37.1733 99.68 36.6067 100.193 35.86 100.58C35.1133 100.953 34.2267 101.14 33.2 101.14ZM45.4875 101.18C44.4208 101.18 43.4608 100.947 42.6075 100.48C41.7542 100 41.0808 99.3267 40.5875 98.46C40.1075 97.5933 39.8675 96.5933 39.8675 95.46C39.8675 94.3267 40.1142 93.3267 40.6075 92.46C41.1142 91.5933 41.8008 90.9267 42.6675 90.46C43.5342 89.98 44.5008 89.74 45.5675 89.74C46.6342 89.74 47.6008 89.98 48.4675 90.46C49.3342 90.9267 50.0142 91.5933 50.5075 92.46C51.0142 93.3267 51.2675 94.3267 51.2675 95.46C51.2675 96.5933 51.0075 97.5933 50.4875 98.46C49.9808 99.3267 49.2875 100 48.4075 100.48C47.5408 100.947 46.5675 101.18 45.4875 101.18ZM45.4875 98.74C45.9942 98.74 46.4675 98.62 46.9075 98.38C47.3608 98.1267 47.7208 97.7533 47.9875 97.26C48.2542 96.7667 48.3875 96.1667 48.3875 95.46C48.3875 94.4067 48.1075 93.6 47.5475 93.04C47.0008 92.4667 46.3275 92.18 45.5275 92.18C44.7275 92.18 44.0542 92.4667 43.5075 93.04C42.9742 93.6 42.7075 94.4067 42.7075 95.46C42.7075 96.5133 42.9675 97.3267 43.4875 97.9C44.0208 98.46 44.6875 98.74 45.4875 98.74ZM57.5614 101.18C56.6547 101.18 55.8414 101.02 55.1214 100.7C54.4014 100.367 53.8281 99.92 53.4014 99.36C52.9881 98.8 52.7614 98.18 52.7214 97.5H55.5414C55.5947 97.9267 55.8014 98.28 56.1614 98.56C56.5347 98.84 56.9947 98.98 57.5414 98.98C58.0747 98.98 58.4881 98.8733 58.7814 98.66C59.0881 98.4467 59.2414 98.1733 59.2414 97.84C59.2414 97.48 59.0547 97.2133 58.6814 97.04C58.3214 96.8533 57.7414 96.6533 56.9414 96.44C56.1147 96.24 55.4347 96.0333 54.9014 95.82C54.3814 95.6067 53.9281 95.28 53.5414 94.84C53.1681 94.4 52.9814 93.8067 52.9814 93.06C52.9814 92.4467 53.1547 91.8867 53.5014 91.38C53.8614 90.8733 54.3681 90.4733 55.0214 90.18C55.6881 89.8867 56.4681 89.74 57.3614 89.74C58.6814 89.74 59.7347 90.0733 60.5214 90.74C61.3081 91.3933 61.7414 92.28 61.8214 93.4H59.1414C59.1014 92.96 58.9147 92.6133 58.5814 92.36C58.2614 92.0933 57.8281 91.96 57.2814 91.96C56.7747 91.96 56.3814 92.0533 56.1014 92.24C55.8347 92.4267 55.7014 92.6867 55.7014 93.02C55.7014 93.3933 55.8881 93.68 56.2614 93.88C56.6347 94.0667 57.2147 94.26 58.0014 94.46C58.8014 94.66 59.4614 94.8667 59.9814 95.08C60.5014 95.2933 60.9481 95.6267 61.3214 96.08C61.7081 96.52 61.9081 97.1067 61.9214 97.84C61.9214 98.48 61.7414 99.0533 61.3814 99.56C61.0347 100.067 60.5281 100.467 59.8614 100.76C59.2081 101.04 58.4414 101.18 57.5614 101.18ZM65.6398 88.6C65.1465 88.6 64.7332 88.4467 64.3998 88.14C64.0798 87.82 63.9198 87.4267 63.9198 86.96C63.9198 86.4933 64.0798 86.1067 64.3998 85.8C64.7332 85.48 65.1465 85.32 65.6398 85.32C66.1332 85.32 66.5398 85.48 66.8598 85.8C67.1932 86.1067 67.3598 86.4933 67.3598 86.96C67.3598 87.4267 67.1932 87.82 66.8598 88.14C66.5398 88.4467 66.1332 88.6 65.6398 88.6ZM67.0198 89.92V101H64.2198V89.92H67.0198ZM69.0662 95.42C69.0662 94.3 69.2862 93.3067 69.7262 92.44C70.1796 91.5733 70.7863 90.9067 71.5463 90.44C72.3196 89.9733 73.1796 89.74 74.1263 89.74C74.9529 89.74 75.6729 89.9067 76.2863 90.24C76.9129 90.5733 77.4129 90.9933 77.7863 91.5V89.92H80.6063V101H77.7863V99.38C77.4263 99.9 76.9263 100.333 76.2863 100.68C75.6596 101.013 74.9329 101.18 74.1063 101.18C73.1729 101.18 72.3196 100.94 71.5463 100.46C70.7863 99.98 70.1796 99.3067 69.7262 98.44C69.2862 97.56 69.0662 96.5533 69.0662 95.42ZM77.7863 95.46C77.7863 94.78 77.6529 94.2 77.3863 93.72C77.1196 93.2267 76.7596 92.8533 76.3063 92.6C75.8529 92.3333 75.3663 92.2 74.8463 92.2C74.3263 92.2 73.8463 92.3267 73.4062 92.58C72.9663 92.8333 72.6063 93.2067 72.3263 93.7C72.0596 94.18 71.9263 94.7533 71.9263 95.42C71.9263 96.0867 72.0596 96.6733 72.3263 97.18C72.6063 97.6733 72.9663 98.0533 73.4062 98.32C73.8596 98.5867 74.3396 98.72 74.8463 98.72C75.3663 98.72 75.8529 98.5933 76.3063 98.34C76.7596 98.0733 77.1196 97.7 77.3863 97.22C77.6529 96.7267 77.7863 96.14 77.7863 95.46ZM86.1409 86.2V101H83.3409V86.2H86.1409ZM90.3273 88.6C89.834 88.6 89.4207 88.4467 89.0873 88.14C88.7673 87.82 88.6073 87.4267 88.6073 86.96C88.6073 86.4933 88.7673 86.1067 89.0873 85.8C89.4207 85.48 89.834 85.32 90.3273 85.32C90.8207 85.32 91.2273 85.48 91.5473 85.8C91.8807 86.1067 92.0473 86.4933 92.0473 86.96C92.0473 87.4267 91.8807 87.82 91.5473 88.14C91.2273 88.4467 90.8207 88.6 90.3273 88.6ZM91.7073 89.92V101H88.9073V89.92H91.7073ZM98.7138 101.18C97.8071 101.18 96.9938 101.02 96.2738 100.7C95.5538 100.367 94.9804 99.92 94.5538 99.36C94.1404 98.8 93.9138 98.18 93.8738 97.5H96.6938C96.7471 97.9267 96.9538 98.28 97.3138 98.56C97.6871 98.84 98.1471 98.98 98.6938 98.98C99.2271 98.98 99.6404 98.8733 99.9338 98.66C100.24 98.4467 100.394 98.1733 100.394 97.84C100.394 97.48 100.207 97.2133 99.8338 97.04C99.4738 96.8533 98.8938 96.6533 98.0938 96.44C97.2671 96.24 96.5871 96.0333 96.0538 95.82C95.5338 95.6067 95.0804 95.28 94.6938 94.84C94.3204 94.4 94.1338 93.8067 94.1338 93.06C94.1338 92.4467 94.3071 91.8867 94.6538 91.38C95.0138 90.8733 95.5204 90.4733 96.1738 90.18C96.8404 89.8867 97.6204 89.74 98.5138 89.74C99.8338 89.74 100.887 90.0733 101.674 90.74C102.46 91.3933 102.894 92.28 102.974 93.4H100.294C100.254 92.96 100.067 92.6133 99.7338 92.36C99.4138 92.0933 98.9804 91.96 98.4338 91.96C97.9271 91.96 97.5338 92.0533 97.2538 92.24C96.9871 92.4267 96.8538 92.6867 96.8538 93.02C96.8538 93.3933 97.0404 93.68 97.4138 93.88C97.7871 94.0667 98.3671 94.26 99.1538 94.46C99.9538 94.66 100.614 94.8667 101.134 95.08C101.654 95.2933 102.1 95.6267 102.474 96.08C102.86 96.52 103.06 97.1067 103.074 97.84C103.074 98.48 102.894 99.0533 102.534 99.56C102.187 100.067 101.68 100.467 101.014 100.76C100.36 101.04 99.5938 101.18 98.7138 101.18ZM104.652 95.42C104.652 94.3 104.872 93.3067 105.312 92.44C105.766 91.5733 106.372 90.9067 107.132 90.44C107.906 89.9733 108.766 89.74 109.712 89.74C110.539 89.74 111.259 89.9067 111.872 90.24C112.499 90.5733 112.999 90.9933 113.372 91.5V89.92H116.192V101H113.372V99.38C113.012 99.9 112.512 100.333 111.872 100.68C111.246 101.013 110.519 101.18 109.692 101.18C108.759 101.18 107.906 100.94 107.132 100.46C106.372 99.98 105.766 99.3067 105.312 98.44C104.872 97.56 104.652 96.5533 104.652 95.42ZM113.372 95.46C113.372 94.78 113.239 94.2 112.972 93.72C112.706 93.2267 112.346 92.8533 111.892 92.6C111.439 92.3333 110.952 92.2 110.432 92.2C109.912 92.2 109.432 92.3267 108.992 92.58C108.552 92.8333 108.192 93.2067 107.912 93.7C107.646 94.18 107.512 94.7533 107.512 95.42C107.512 96.0867 107.646 96.6733 107.912 97.18C108.192 97.6733 108.552 98.0533 108.992 98.32C109.446 98.5867 109.926 98.72 110.432 98.72C110.952 98.72 111.439 98.5933 111.892 98.34C112.346 98.0733 112.706 97.7 112.972 97.22C113.239 96.7267 113.372 96.14 113.372 95.46ZM123.167 101.18C122.26 101.18 121.447 101.02 120.727 100.7C120.007 100.367 119.434 99.92 119.007 99.36C118.594 98.8 118.367 98.18 118.327 97.5H121.147C121.2 97.9267 121.407 98.28 121.767 98.56C122.14 98.84 122.6 98.98 123.147 98.98C123.68 98.98 124.094 98.8733 124.387 98.66C124.694 98.4467 124.847 98.1733 124.847 97.84C124.847 97.48 124.66 97.2133 124.287 97.04C123.927 96.8533 123.347 96.6533 122.547 96.44C121.72 96.24 121.04 96.0333 120.507 95.82C119.987 95.6067 119.534 95.28 119.147 94.84C118.774 94.4 118.587 93.8067 118.587 93.06C118.587 92.4467 118.76 91.8867 119.107 91.38C119.467 90.8733 119.974 90.4733 120.627 90.18C121.294 89.8867 122.074 89.74 122.967 89.74C124.287 89.74 125.34 90.0733 126.127 90.74C126.914 91.3933 127.347 92.28 127.427 93.4H124.747C124.707 92.96 124.52 92.6133 124.187 92.36C123.867 92.0933 123.434 91.96 122.887 91.96C122.38 91.96 121.987 92.0533 121.707 92.24C121.44 92.4267 121.307 92.6867 121.307 93.02C121.307 93.3933 121.494 93.68 121.867 93.88C122.24 94.0667 122.82 94.26 123.607 94.46C124.407 94.66 125.067 94.8667 125.587 95.08C126.107 95.2933 126.554 95.6267 126.927 96.08C127.314 96.52 127.514 97.1067 127.527 97.84C127.527 98.48 127.347 99.0533 126.987 99.56C126.64 100.067 126.134 100.467 125.467 100.76C124.814 101.04 124.047 101.18 123.167 101.18ZM131.245 88.6C130.752 88.6 130.339 88.4467 130.005 88.14C129.685 87.82 129.525 87.4267 129.525 86.96C129.525 86.4933 129.685 86.1067 130.005 85.8C130.339 85.48 130.752 85.32 131.245 85.32C131.739 85.32 132.145 85.48 132.465 85.8C132.799 86.1067 132.965 86.4933 132.965 86.96C132.965 87.4267 132.799 87.82 132.465 88.14C132.145 88.4467 131.739 88.6 131.245 88.6ZM132.625 89.92V101H129.825V89.92H132.625ZM142.917 87.04V95.68C142.917 96.6267 143.164 97.3533 143.657 97.86C144.151 98.3533 144.844 98.6 145.737 98.6C146.644 98.6 147.344 98.3533 147.837 97.86C148.331 97.3533 148.577 96.6267 148.577 95.68V87.04H151.397V95.66C151.397 96.8467 151.137 97.8533 150.617 98.68C150.111 99.4933 149.424 100.107 148.557 100.52C147.704 100.933 146.751 101.14 145.697 101.14C144.657 101.14 143.711 100.933 142.857 100.52C142.017 100.107 141.351 99.4933 140.857 98.68C140.364 97.8533 140.117 96.8467 140.117 95.66V87.04H142.917ZM169.323 87.04V101H166.523V91.92L162.783 101H160.663L156.903 91.92V101H154.103V87.04H157.283L161.723 97.42L166.163 87.04H169.323ZM179.971 101L174.891 94.78V101H172.091V87.04H174.891V93.3L179.971 87.04H183.351L177.591 93.96L183.511 101H179.971ZM200.573 87.04V101H197.773V91.92L194.033 101H191.913L188.153 91.92V101H185.353V87.04H188.533L192.973 97.42L197.413 87.04H200.573ZM215.987 101L210.907 94.78V101H208.107V87.04H210.907V93.3L215.987 87.04H219.367L213.607 93.96L219.527 101H215.987ZM226.288 101.18C225.222 101.18 224.262 100.947 223.408 100.48C222.555 100 221.882 99.3267 221.388 98.46C220.908 97.5933 220.668 96.5933 220.668 95.46C220.668 94.3267 220.915 93.3267 221.408 92.46C221.915 91.5933 222.602 90.9267 223.468 90.46C224.335 89.98 225.302 89.74 226.368 89.74C227.435 89.74 228.402 89.98 229.268 90.46C230.135 90.9267 230.815 91.5933 231.308 92.46C231.815 93.3267 232.068 94.3267 232.068 95.46C232.068 96.5933 231.808 97.5933 231.288 98.46C230.782 99.3267 230.088 100 229.208 100.48C228.342 100.947 227.368 101.18 226.288 101.18ZM226.288 98.74C226.795 98.74 227.268 98.62 227.708 98.38C228.162 98.1267 228.522 97.7533 228.788 97.26C229.055 96.7667 229.188 96.1667 229.188 95.46C229.188 94.4067 228.908 93.6 228.348 93.04C227.802 92.4667 227.128 92.18 226.328 92.18C225.528 92.18 224.855 92.4667 224.308 93.04C223.775 93.6 223.508 94.4067 223.508 95.46C223.508 96.5133 223.768 97.3267 224.288 97.9C224.822 98.46 225.488 98.74 226.288 98.74ZM237.382 92.22V97.58C237.382 97.9533 237.469 98.2267 237.642 98.4C237.829 98.56 238.136 98.64 238.562 98.64H239.862V101H238.102C235.742 101 234.562 99.8533 234.562 97.56V92.22H233.242V89.92H234.562V87.18H237.382V89.92H239.862V92.22H237.382ZM241.156 95.42C241.156 94.3 241.376 93.3067 241.816 92.44C242.269 91.5733 242.876 90.9067 243.636 90.44C244.409 89.9733 245.269 89.74 246.216 89.74C247.043 89.74 247.763 89.9067 248.376 90.24C249.003 90.5733 249.503 90.9933 249.876 91.5V89.92H252.696V101H249.876V99.38C249.516 99.9 249.016 100.333 248.376 100.68C247.749 101.013 247.023 101.18 246.196 101.18C245.263 101.18 244.409 100.94 243.636 100.46C242.876 99.98 242.269 99.3067 241.816 98.44C241.376 97.56 241.156 96.5533 241.156 95.42ZM249.876 95.46C249.876 94.78 249.743 94.2 249.476 93.72C249.209 93.2267 248.849 92.8533 248.396 92.6C247.943 92.3333 247.456 92.2 246.936 92.2C246.416 92.2 245.936 92.3267 245.496 92.58C245.056 92.8333 244.696 93.2067 244.416 93.7C244.149 94.18 244.016 94.7533 244.016 95.42C244.016 96.0867 244.149 96.6733 244.416 97.18C244.696 97.6733 245.056 98.0533 245.496 98.32C245.949 98.5867 246.429 98.72 246.936 98.72C247.456 98.72 247.943 98.5933 248.396 98.34C248.849 98.0733 249.209 97.7 249.476 97.22C249.743 96.7267 249.876 96.14 249.876 95.46ZM275.416 87.04V101H272.616V91.92L268.876 101H266.756L262.996 91.92V101H260.196V87.04H263.376L267.816 97.42L272.256 87.04H275.416ZM277.465 95.42C277.465 94.3 277.685 93.3067 278.125 92.44C278.578 91.5733 279.185 90.9067 279.945 90.44C280.718 89.9733 281.578 89.74 282.525 89.74C283.351 89.74 284.071 89.9067 284.685 90.24C285.311 90.5733 285.811 90.9933 286.185 91.5V89.92H289.005V101H286.185V99.38C285.825 99.9 285.325 100.333 284.685 100.68C284.058 101.013 283.331 101.18 282.505 101.18C281.571 101.18 280.718 100.94 279.945 100.46C279.185 99.98 278.578 99.3067 278.125 98.44C277.685 97.56 277.465 96.5533 277.465 95.42ZM286.185 95.46C286.185 94.78 286.051 94.2 285.785 93.72C285.518 93.2267 285.158 92.8533 284.705 92.6C284.251 92.3333 283.765 92.2 283.245 92.2C282.725 92.2 282.245 92.3267 281.805 92.58C281.365 92.8333 281.005 93.2067 280.725 93.7C280.458 94.18 280.325 94.7533 280.325 95.42C280.325 96.0867 280.458 96.6733 280.725 97.18C281.005 97.6733 281.365 98.0533 281.805 98.32C282.258 98.5867 282.738 98.72 283.245 98.72C283.765 98.72 284.251 98.5933 284.705 98.34C285.158 98.0733 285.518 97.7 285.785 97.22C286.051 96.7267 286.185 96.14 286.185 95.46ZM294.539 86.2V101H291.739V86.2H294.539ZM296.586 95.42C296.586 94.3 296.806 93.3067 297.246 92.44C297.699 91.5733 298.306 90.9067 299.066 90.44C299.839 89.9733 300.699 89.74 301.646 89.74C302.472 89.74 303.192 89.9067 303.806 90.24C304.432 90.5733 304.932 90.9933 305.306 91.5V89.92H308.126V101H305.306V99.38C304.946 99.9 304.446 100.333 303.806 100.68C303.179 101.013 302.452 101.18 301.626 101.18C300.692 101.18 299.839 100.94 299.066 100.46C298.306 99.98 297.699 99.3067 297.246 98.44C296.806 97.56 296.586 96.5533 296.586 95.42ZM305.306 95.46C305.306 94.78 305.172 94.2 304.906 93.72C304.639 93.2267 304.279 92.8533 303.826 92.6C303.372 92.3333 302.886 92.2 302.366 92.2C301.846 92.2 301.366 92.3267 300.926 92.58C300.486 92.8333 300.126 93.2067 299.846 93.7C299.579 94.18 299.446 94.7533 299.446 95.42C299.446 96.0867 299.579 96.6733 299.846 97.18C300.126 97.6733 300.486 98.0533 300.926 98.32C301.379 98.5867 301.859 98.72 302.366 98.72C302.886 98.72 303.372 98.5933 303.826 98.34C304.279 98.0733 304.639 97.7 304.906 97.22C305.172 96.7267 305.306 96.14 305.306 95.46ZM317 89.76C318.32 89.76 319.387 90.18 320.2 91.02C321.014 91.8467 321.42 93.0067 321.42 94.5V101H318.62V94.88C318.62 94 318.4 93.3267 317.96 92.86C317.52 92.38 316.92 92.14 316.16 92.14C315.387 92.14 314.774 92.38 314.32 92.86C313.88 93.3267 313.66 94 313.66 94.88V101H310.86V89.92H313.66V91.3C314.034 90.82 314.507 90.4467 315.08 90.18C315.667 89.9 316.307 89.76 317 89.76ZM328.423 89.74C329.25 89.74 329.976 89.9067 330.603 90.24C331.23 90.56 331.723 90.98 332.083 91.5V89.92H334.903V101.08C334.903 102.107 334.696 103.02 334.283 103.82C333.87 104.633 333.25 105.273 332.423 105.74C331.596 106.22 330.596 106.46 329.423 106.46C327.85 106.46 326.556 106.093 325.543 105.36C324.543 104.627 323.976 103.627 323.843 102.36H326.623C326.77 102.867 327.083 103.267 327.563 103.56C328.056 103.867 328.65 104.02 329.343 104.02C330.156 104.02 330.816 103.773 331.323 103.28C331.83 102.8 332.083 102.067 332.083 101.08V99.36C331.723 99.88 331.223 100.313 330.583 100.66C329.956 101.007 329.236 101.18 328.423 101.18C327.49 101.18 326.636 100.94 325.863 100.46C325.09 99.98 324.476 99.3067 324.023 98.44C323.583 97.56 323.363 96.5533 323.363 95.42C323.363 94.3 323.583 93.3067 324.023 92.44C324.476 91.5733 325.083 90.9067 325.843 90.44C326.616 89.9733 327.476 89.74 328.423 89.74ZM332.083 95.46C332.083 94.78 331.95 94.2 331.683 93.72C331.416 93.2267 331.056 92.8533 330.603 92.6C330.15 92.3333 329.663 92.2 329.143 92.2C328.623 92.2 328.143 92.3267 327.703 92.58C327.263 92.8333 326.903 93.2067 326.623 93.7C326.356 94.18 326.223 94.7533 326.223 95.42C326.223 96.0867 326.356 96.6733 326.623 97.18C326.903 97.6733 327.263 98.0533 327.703 98.32C328.156 98.5867 328.636 98.72 329.143 98.72C329.663 98.72 330.15 98.5933 330.603 98.34C331.056 98.0733 331.416 97.7 331.683 97.22C331.95 96.7267 332.083 96.14 332.083 95.46Z" fill="#274492"/>
</g>
<rect x="24" y="39" width="105" height="28" rx="8" fill="#FFE7E7"/>
<path d="M33.968 56.52C34.992 55.6347 35.7973 54.9093 36.384 54.344C36.9813 53.768 37.4773 53.1707 37.872 52.552C38.2667 51.9333 38.464 51.3147 38.464 50.696C38.464 50.056 38.3093 49.5547 38 49.192C37.7013 48.8293 37.2267 48.648 36.576 48.648C35.9467 48.648 35.456 48.8507 35.104 49.256C34.7627 49.6507 34.5813 50.184 34.56 50.856H32.8C32.832 49.64 33.1947 48.712 33.888 48.072C34.592 47.4213 35.4827 47.096 36.56 47.096C37.7227 47.096 38.6293 47.416 39.28 48.056C39.9413 48.696 40.272 49.5493 40.272 50.616C40.272 51.384 40.0747 52.1253 39.68 52.84C39.296 53.544 38.832 54.1787 38.288 54.744C37.7547 55.2987 37.072 55.944 36.24 56.68L35.52 57.32H40.592V58.84H32.816V57.512L33.968 56.52ZM55.5186 47.88V59H53.6946V54.136H48.4626V59H46.6386V47.88H48.4626V52.648H53.6946V47.88H55.5186ZM57.3359 54.552C57.3359 53.6667 57.5172 52.8827 57.8799 52.2C58.2532 51.5173 58.7545 50.9893 59.3839 50.616C60.0239 50.232 60.7279 50.04 61.4959 50.04C62.1892 50.04 62.7919 50.1787 63.3039 50.456C63.8265 50.7227 64.2425 51.0587 64.5519 51.464V50.184H66.3919V59H64.5519V57.688C64.2425 58.104 63.8212 58.4507 63.2879 58.728C62.7545 59.0053 62.1465 59.144 61.4639 59.144C60.7065 59.144 60.0132 58.952 59.3839 58.568C58.7545 58.1733 58.2532 57.6293 57.8799 56.936C57.5172 56.232 57.3359 55.4373 57.3359 54.552ZM64.5519 54.584C64.5519 53.976 64.4239 53.448 64.1679 53C63.9225 52.552 63.5972 52.2107 63.1919 51.976C62.7865 51.7413 62.3492 51.624 61.8799 51.624C61.4105 51.624 60.9732 51.7413 60.5679 51.976C60.1625 52.2 59.8319 52.536 59.5759 52.984C59.3305 53.4213 59.2079 53.944 59.2079 54.552C59.2079 55.16 59.3305 55.6933 59.5759 56.152C59.8319 56.6107 60.1625 56.9627 60.5679 57.208C60.9839 57.4427 61.4212 57.56 61.8799 57.56C62.3492 57.56 62.7865 57.4427 63.1919 57.208C63.5972 56.9733 63.9225 56.632 64.1679 56.184C64.4239 55.7253 64.5519 55.192 64.5519 54.584ZM70.6356 51.464C70.9023 51.016 71.2543 50.6693 71.6916 50.424C72.1396 50.168 72.6676 50.04 73.2756 50.04V51.928H72.8116C72.097 51.928 71.553 52.1093 71.1796 52.472C70.817 52.8347 70.6356 53.464 70.6356 54.36V59H68.8116V50.184H70.6356V51.464ZM75.9042 49.016C75.5736 49.016 75.2962 48.904 75.0722 48.68C74.8482 48.456 74.7362 48.1787 74.7362 47.848C74.7362 47.5173 74.8482 47.24 75.0722 47.016C75.2962 46.792 75.5736 46.68 75.9042 46.68C76.2242 46.68 76.4962 46.792 76.7202 47.016C76.9442 47.24 77.0562 47.5173 77.0562 47.848C77.0562 48.1787 76.9442 48.456 76.7202 48.68C76.4962 48.904 76.2242 49.016 75.9042 49.016ZM76.8002 50.184V59H74.9762V50.184H76.8002ZM85.2232 57.528H88.9832V59H83.3992V47.88H85.2232V57.528ZM89.9246 54.552C89.9246 53.6667 90.106 52.8827 90.4686 52.2C90.842 51.5173 91.3433 50.9893 91.9726 50.616C92.6126 50.232 93.3166 50.04 94.0846 50.04C94.778 50.04 95.3806 50.1787 95.8926 50.456C96.4153 50.7227 96.8313 51.0587 97.1406 51.464V50.184H98.9806V59H97.1406V57.688C96.8313 58.104 96.41 58.4507 95.8766 58.728C95.3433 59.0053 94.7353 59.144 94.0526 59.144C93.2953 59.144 92.602 58.952 91.9726 58.568C91.3433 58.1733 90.842 57.6293 90.4686 56.936C90.106 56.232 89.9246 55.4373 89.9246 54.552ZM97.1406 54.584C97.1406 53.976 97.0126 53.448 96.7566 53C96.5113 52.552 96.186 52.2107 95.7806 51.976C95.3753 51.7413 94.938 51.624 94.4686 51.624C93.9993 51.624 93.562 51.7413 93.1566 51.976C92.7513 52.2 92.4206 52.536 92.1646 52.984C91.9193 53.4213 91.7966 53.944 91.7966 54.552C91.7966 55.16 91.9193 55.6933 92.1646 56.152C92.4206 56.6107 92.7513 56.9627 93.1566 57.208C93.5726 57.4427 94.01 57.56 94.4686 57.56C94.938 57.56 95.3753 57.4427 95.7806 57.208C96.186 56.9733 96.5113 56.632 96.7566 56.184C97.0126 55.7253 97.1406 55.192 97.1406 54.584ZM104.952 50.04C105.635 50.04 106.238 50.1787 106.76 50.456C107.294 50.7227 107.71 51.0587 108.008 51.464V50.184H109.848V59.144C109.848 59.9547 109.678 60.6747 109.336 61.304C108.995 61.944 108.499 62.4453 107.848 62.808C107.208 63.1707 106.44 63.352 105.544 63.352C104.35 63.352 103.358 63.0693 102.568 62.504C101.779 61.9493 101.331 61.192 101.224 60.232H103.032C103.171 60.6907 103.464 61.0587 103.912 61.336C104.371 61.624 104.915 61.768 105.544 61.768C106.28 61.768 106.872 61.544 107.32 61.096C107.779 60.648 108.008 59.9973 108.008 59.144V57.672C107.699 58.088 107.278 58.44 106.744 58.728C106.222 59.0053 105.624 59.144 104.952 59.144C104.184 59.144 103.48 58.952 102.84 58.568C102.211 58.1733 101.71 57.6293 101.336 56.936C100.974 56.232 100.792 55.4373 100.792 54.552C100.792 53.6667 100.974 52.8827 101.336 52.2C101.71 51.5173 102.211 50.9893 102.84 50.616C103.48 50.232 104.184 50.04 104.952 50.04ZM108.008 54.584C108.008 53.976 107.88 53.448 107.624 53C107.379 52.552 107.054 52.2107 106.648 51.976C106.243 51.7413 105.806 51.624 105.336 51.624C104.867 51.624 104.43 51.7413 104.024 51.976C103.619 52.2 103.288 52.536 103.032 52.984C102.787 53.4213 102.664 53.944 102.664 54.552C102.664 55.16 102.787 55.6933 103.032 56.152C103.288 56.6107 103.619 56.9627 104.024 57.208C104.44 57.4427 104.878 57.56 105.336 57.56C105.806 57.56 106.243 57.4427 106.648 57.208C107.054 56.9733 107.379 56.632 107.624 56.184C107.88 55.7253 108.008 55.192 108.008 54.584ZM113.196 49.016C112.865 49.016 112.588 48.904 112.364 48.68C112.14 48.456 112.028 48.1787 112.028 47.848C112.028 47.5173 112.14 47.24 112.364 47.016C112.588 46.792 112.865 46.68 113.196 46.68C113.516 46.68 113.788 46.792 114.012 47.016C114.236 47.24 114.348 47.5173 114.348 47.848C114.348 48.1787 114.236 48.456 114.012 48.68C113.788 48.904 113.516 49.016 113.196 49.016ZM114.092 50.184V59H112.268V50.184H114.092ZM118.799 47.88L118.591 55.64H117.071L116.863 47.88H118.799ZM117.887 59.112C117.556 59.112 117.279 59 117.055 58.776C116.831 58.552 116.719 58.2747 116.719 57.944C116.719 57.6133 116.831 57.336 117.055 57.112C117.279 56.888 117.556 56.776 117.887 56.776C118.207 56.776 118.479 56.888 118.703 57.112C118.927 57.336 119.039 57.6133 119.039 57.944C119.039 58.2747 118.927 58.552 118.703 58.776C118.479 59 118.207 59.112 117.887 59.112Z" fill="#F55050"/>
<path d="M145.63 48.25V46.794H148.542V57H146.932V48.25H145.63ZM150.756 51.764C150.756 50.1493 151.026 48.8893 151.568 47.984C152.118 47.0693 153.061 46.612 154.396 46.612C155.73 46.612 156.668 47.0693 157.21 47.984C157.76 48.8893 158.036 50.1493 158.036 51.764C158.036 53.3973 157.76 54.676 157.21 55.6C156.668 56.5147 155.73 56.972 154.396 56.972C153.061 56.972 152.118 56.5147 151.568 55.6C151.026 54.676 150.756 53.3973 150.756 51.764ZM156.468 51.764C156.468 51.008 156.416 50.3687 156.314 49.846C156.22 49.3233 156.024 48.8987 155.726 48.572C155.427 48.236 154.984 48.068 154.396 48.068C153.808 48.068 153.364 48.236 153.066 48.572C152.767 48.8987 152.566 49.3233 152.464 49.846C152.37 50.3687 152.324 51.008 152.324 51.764C152.324 52.548 152.37 53.206 152.464 53.738C152.557 54.27 152.753 54.6993 153.052 55.026C153.36 55.3527 153.808 55.516 154.396 55.516C154.984 55.516 155.427 55.3527 155.726 55.026C156.034 54.6993 156.234 54.27 156.328 53.738C156.421 53.206 156.468 52.548 156.468 51.764ZM169.479 55.012H165.405L164.705 57H163.039L166.525 47.256H168.373L171.859 57H170.179L169.479 55.012ZM169.031 53.71L167.449 49.188L165.853 53.71H169.031ZM176.504 49.16C177.101 49.16 177.628 49.2813 178.086 49.524C178.552 49.7573 178.916 50.0513 179.178 50.406V49.286H180.788V57.126C180.788 57.8353 180.638 58.4653 180.34 59.016C180.041 59.576 179.607 60.0147 179.038 60.332C178.478 60.6493 177.806 60.808 177.022 60.808C175.976 60.808 175.108 60.5607 174.418 60.066C173.727 59.5807 173.335 58.918 173.242 58.078H174.824C174.945 58.4793 175.202 58.8013 175.594 59.044C175.995 59.296 176.471 59.422 177.022 59.422C177.666 59.422 178.184 59.226 178.576 58.834C178.977 58.442 179.178 57.8727 179.178 57.126V55.838C178.907 56.202 178.538 56.51 178.072 56.762C177.614 57.0047 177.092 57.126 176.504 57.126C175.832 57.126 175.216 56.958 174.656 56.622C174.105 56.2767 173.666 55.8007 173.34 55.194C173.022 54.578 172.864 53.8827 172.864 53.108C172.864 52.3333 173.022 51.6473 173.34 51.05C173.666 50.4527 174.105 49.9907 174.656 49.664C175.216 49.328 175.832 49.16 176.504 49.16ZM179.178 53.136C179.178 52.604 179.066 52.142 178.842 51.75C178.627 51.358 178.342 51.0593 177.988 50.854C177.633 50.6487 177.25 50.546 176.84 50.546C176.429 50.546 176.046 50.6487 175.692 50.854C175.337 51.05 175.048 51.344 174.824 51.736C174.609 52.1187 174.502 52.576 174.502 53.108C174.502 53.64 174.609 54.1067 174.824 54.508C175.048 54.9093 175.337 55.2173 175.692 55.432C176.056 55.6373 176.438 55.74 176.84 55.74C177.25 55.74 177.633 55.6373 177.988 55.432C178.342 55.2267 178.627 54.928 178.842 54.536C179.066 54.1347 179.178 53.668 179.178 53.136ZM189.891 49.286V57H188.295V56.09C188.043 56.4073 187.712 56.6593 187.301 56.846C186.9 57.0233 186.47 57.112 186.013 57.112C185.406 57.112 184.86 56.986 184.375 56.734C183.899 56.482 183.521 56.1087 183.241 55.614C182.97 55.1193 182.835 54.522 182.835 53.822V49.286H184.417V53.584C184.417 54.2747 184.59 54.8067 184.935 55.18C185.28 55.544 185.752 55.726 186.349 55.726C186.946 55.726 187.418 55.544 187.763 55.18C188.118 54.8067 188.295 54.2747 188.295 53.584V49.286H189.891ZM194.818 57.126C194.211 57.126 193.665 57.0187 193.18 56.804C192.704 56.58 192.326 56.2813 192.046 55.908C191.766 55.5253 191.616 55.1007 191.598 54.634H193.25C193.278 54.9607 193.432 55.236 193.712 55.46C194.001 55.6747 194.36 55.782 194.79 55.782C195.238 55.782 195.583 55.698 195.826 55.53C196.078 55.3527 196.204 55.1287 196.204 54.858C196.204 54.5687 196.064 54.354 195.784 54.214C195.513 54.074 195.079 53.92 194.482 53.752C193.903 53.5933 193.432 53.4393 193.068 53.29C192.704 53.1407 192.386 52.912 192.116 52.604C191.854 52.296 191.724 51.89 191.724 51.386C191.724 50.9753 191.845 50.602 192.088 50.266C192.33 49.9207 192.676 49.65 193.124 49.454C193.581 49.258 194.104 49.16 194.692 49.16C195.569 49.16 196.274 49.384 196.806 49.832C197.347 50.2707 197.636 50.8727 197.674 51.638H196.078C196.05 51.2927 195.91 51.0173 195.658 50.812C195.406 50.6067 195.065 50.504 194.636 50.504C194.216 50.504 193.894 50.5833 193.67 50.742C193.446 50.9007 193.334 51.1107 193.334 51.372C193.334 51.5773 193.408 51.75 193.558 51.89C193.707 52.03 193.889 52.142 194.104 52.226C194.318 52.3007 194.636 52.3987 195.056 52.52C195.616 52.6693 196.073 52.8233 196.428 52.982C196.792 53.1313 197.104 53.3553 197.366 53.654C197.627 53.9527 197.762 54.3493 197.772 54.844C197.772 55.2827 197.65 55.6747 197.408 56.02C197.165 56.3653 196.82 56.636 196.372 56.832C195.933 57.028 195.415 57.126 194.818 57.126ZM201.379 50.588V54.858C201.379 55.1473 201.445 55.3573 201.575 55.488C201.715 55.6093 201.949 55.67 202.275 55.67H203.255V57H201.995C201.277 57 200.726 56.832 200.343 56.496C199.961 56.16 199.769 55.614 199.769 54.858V50.588H198.859V49.286H199.769V47.368H201.379V49.286H203.255V50.588H201.379ZM211.733 49.286V57H210.137V56.09C209.885 56.4073 209.554 56.6593 209.143 56.846C208.742 57.0233 208.313 57.112 207.855 57.112C207.249 57.112 206.703 56.986 206.217 56.734C205.741 56.482 205.363 56.1087 205.083 55.614C204.813 55.1193 204.677 54.522 204.677 53.822V49.286H206.259V53.584C206.259 54.2747 206.432 54.8067 206.777 55.18C207.123 55.544 207.594 55.726 208.191 55.726C208.789 55.726 209.26 55.544 209.605 55.18C209.96 54.8067 210.137 54.2747 210.137 53.584V49.286H211.733ZM216.66 57.126C216.053 57.126 215.507 57.0187 215.022 56.804C214.546 56.58 214.168 56.2813 213.888 55.908C213.608 55.5253 213.459 55.1007 213.44 54.634H215.092C215.12 54.9607 215.274 55.236 215.554 55.46C215.843 55.6747 216.203 55.782 216.632 55.782C217.08 55.782 217.425 55.698 217.668 55.53C217.92 55.3527 218.046 55.1287 218.046 54.858C218.046 54.5687 217.906 54.354 217.626 54.214C217.355 54.074 216.921 53.92 216.324 53.752C215.745 53.5933 215.274 53.4393 214.91 53.29C214.546 53.1407 214.229 52.912 213.958 52.604C213.697 52.296 213.566 51.89 213.566 51.386C213.566 50.9753 213.687 50.602 213.93 50.266C214.173 49.9207 214.518 49.65 214.966 49.454C215.423 49.258 215.946 49.16 216.534 49.16C217.411 49.16 218.116 49.384 218.648 49.832C219.189 50.2707 219.479 50.8727 219.516 51.638H217.92C217.892 51.2927 217.752 51.0173 217.5 50.812C217.248 50.6067 216.907 50.504 216.478 50.504C216.058 50.504 215.736 50.5833 215.512 50.742C215.288 50.9007 215.176 51.1107 215.176 51.372C215.176 51.5773 215.251 51.75 215.4 51.89C215.549 52.03 215.731 52.142 215.946 52.226C216.161 52.3007 216.478 52.3987 216.898 52.52C217.458 52.6693 217.915 52.8233 218.27 52.982C218.634 53.1313 218.947 53.3553 219.208 53.654C219.469 53.9527 219.605 54.3493 219.614 54.844C219.614 55.2827 219.493 55.6747 219.25 56.02C219.007 56.3653 218.662 56.636 218.214 56.832C217.775 57.028 217.257 57.126 216.66 57.126ZM225.689 54.83C226.585 54.0553 227.29 53.4207 227.803 52.926C228.326 52.422 228.76 51.8993 229.105 51.358C229.451 50.8167 229.623 50.2753 229.623 49.734C229.623 49.174 229.488 48.7353 229.217 48.418C228.956 48.1007 228.541 47.942 227.971 47.942C227.421 47.942 226.991 48.1193 226.683 48.474C226.385 48.8193 226.226 49.286 226.207 49.874H224.667C224.695 48.81 225.013 47.998 225.619 47.438C226.235 46.8687 227.015 46.584 227.957 46.584C228.975 46.584 229.768 46.864 230.337 47.424C230.916 47.984 231.205 48.7307 231.205 49.664C231.205 50.336 231.033 50.9847 230.687 51.61C230.351 52.226 229.945 52.7813 229.469 53.276C229.003 53.7613 228.405 54.326 227.677 54.97L227.047 55.53H231.485V56.86H224.681V55.698L225.689 54.83ZM232.908 51.764C232.908 50.1493 233.179 48.8893 233.72 47.984C234.271 47.0693 235.214 46.612 236.548 46.612C237.883 46.612 238.821 47.0693 239.362 47.984C239.913 48.8893 240.188 50.1493 240.188 51.764C240.188 53.3973 239.913 54.676 239.362 55.6C238.821 56.5147 237.883 56.972 236.548 56.972C235.214 56.972 234.271 56.5147 233.72 55.6C233.179 54.676 232.908 53.3973 232.908 51.764ZM238.62 51.764C238.62 51.008 238.569 50.3687 238.466 49.846C238.373 49.3233 238.177 48.8987 237.878 48.572C237.58 48.236 237.136 48.068 236.548 48.068C235.96 48.068 235.517 48.236 235.218 48.572C234.92 48.8987 234.719 49.3233 234.616 49.846C234.523 50.3687 234.476 51.008 234.476 51.764C234.476 52.548 234.523 53.206 234.616 53.738C234.71 54.27 234.906 54.6993 235.204 55.026C235.512 55.3527 235.96 55.516 236.548 55.516C237.136 55.516 237.58 55.3527 237.878 55.026C238.186 54.6993 238.387 54.27 238.48 53.738C238.574 53.206 238.62 52.548 238.62 51.764ZM242.78 54.83C243.676 54.0553 244.381 53.4207 244.894 52.926C245.417 52.422 245.851 51.8993 246.196 51.358C246.541 50.8167 246.714 50.2753 246.714 49.734C246.714 49.174 246.579 48.7353 246.308 48.418C246.047 48.1007 245.631 47.942 245.062 47.942C244.511 47.942 244.082 48.1193 243.774 48.474C243.475 48.8193 243.317 49.286 243.298 49.874H241.758C241.786 48.81 242.103 47.998 242.71 47.438C243.326 46.8687 244.105 46.584 245.048 46.584C246.065 46.584 246.859 46.864 247.428 47.424C248.007 47.984 248.296 48.7307 248.296 49.664C248.296 50.336 248.123 50.9847 247.778 51.61C247.442 52.226 247.036 52.7813 246.56 53.276C246.093 53.7613 245.496 54.326 244.768 54.97L244.138 55.53H248.576V56.86H241.772V55.698L242.78 54.83ZM250.881 54.83C251.777 54.0553 252.482 53.4207 252.995 52.926C253.518 52.422 253.952 51.8993 254.297 51.358C254.643 50.8167 254.815 50.2753 254.815 49.734C254.815 49.174 254.68 48.7353 254.409 48.418C254.148 48.1007 253.733 47.942 253.163 47.942C252.613 47.942 252.183 48.1193 251.875 48.474C251.577 48.8193 251.418 49.286 251.399 49.874H249.859C249.887 48.81 250.205 47.998 250.811 47.438C251.427 46.8687 252.207 46.584 253.149 46.584C254.167 46.584 254.96 46.864 255.529 47.424C256.108 47.984 256.397 48.7307 256.397 49.664C256.397 50.336 256.225 50.9847 255.879 51.61C255.543 52.226 255.137 52.7813 254.661 53.276C254.195 53.7613 253.597 54.326 252.869 54.97L252.239 55.53H256.677V56.86H249.873V55.698L250.881 54.83Z" fill="#8C8C8C"/>
<g filter="url(#filter2_d_376_921)">
<rect x="27" y="192" width="354" height="48" rx="8" fill="white"/>
</g>
<g filter="url(#filter3_d_376_921)">
<rect x="27" y="125" width="354" height="48" rx="8" fill="white"/>
</g>
<path d="M52.432 210.49V212.164H49.102V223H47.05V212.164H43.702V210.49H52.432ZM55.5542 211.768C55.1822 211.768 54.8702 211.642 54.6182 211.39C54.3662 211.138 54.2402 210.826 54.2402 210.454C54.2402 210.082 54.3662 209.77 54.6182 209.518C54.8702 209.266 55.1822 209.14 55.5542 209.14C55.9142 209.14 56.2202 209.266 56.4722 209.518C56.7242 209.77 56.8502 210.082 56.8502 210.454C56.8502 210.826 56.7242 211.138 56.4722 211.39C56.2202 211.642 55.9142 211.768 55.5542 211.768ZM56.5622 213.082V223H54.5102V213.082H56.5622ZM64.2603 212.92C65.0403 212.92 65.7363 213.082 66.3483 213.406C66.9723 213.73 67.4583 214.21 67.8063 214.846C68.1543 215.482 68.3283 216.25 68.3283 217.15V223H66.2943V217.456C66.2943 216.568 66.0723 215.89 65.6283 215.422C65.1843 214.942 64.5783 214.702 63.8103 214.702C63.0423 214.702 62.4303 214.942 61.9743 215.422C61.5303 215.89 61.3083 216.568 61.3083 217.456V223H59.2563V213.082H61.3083V214.216C61.6443 213.808 62.0703 213.49 62.5863 213.262C63.1143 213.034 63.6723 212.92 64.2603 212.92ZM71.9897 211.768C71.6177 211.768 71.3057 211.642 71.0537 211.39C70.8017 211.138 70.6757 210.826 70.6757 210.454C70.6757 210.082 70.8017 209.77 71.0537 209.518C71.3057 209.266 71.6177 209.14 71.9897 209.14C72.3497 209.14 72.6557 209.266 72.9077 209.518C73.1597 209.77 73.2857 210.082 73.2857 210.454C73.2857 210.826 73.1597 211.138 72.9077 211.39C72.6557 211.642 72.3497 211.768 71.9897 211.768ZM72.9977 224.944C72.9977 225.916 72.7517 226.618 72.2597 227.05C71.7797 227.494 71.0777 227.716 70.1537 227.716H69.0917V225.988H69.7937C70.2137 225.988 70.5077 225.904 70.6757 225.736C70.8557 225.58 70.9457 225.316 70.9457 224.944V213.082H72.9977V224.944ZM75.0078 217.996C75.0078 217 75.2118 216.118 75.6198 215.35C76.0398 214.582 76.6038 213.988 77.3118 213.568C78.0318 213.136 78.8238 212.92 79.6878 212.92C80.4678 212.92 81.1458 213.076 81.7218 213.388C82.3098 213.688 82.7778 214.066 83.1258 214.522V213.082H85.1958V223H83.1258V221.524C82.7778 221.992 82.3038 222.382 81.7038 222.694C81.1038 223.006 80.4198 223.162 79.6518 223.162C78.7998 223.162 78.0198 222.946 77.3118 222.514C76.6038 222.07 76.0398 221.458 75.6198 220.678C75.2118 219.886 75.0078 218.992 75.0078 217.996ZM83.1258 218.032C83.1258 217.348 82.9818 216.754 82.6938 216.25C82.4178 215.746 82.0518 215.362 81.5958 215.098C81.1398 214.834 80.6478 214.702 80.1198 214.702C79.5918 214.702 79.0998 214.834 78.6438 215.098C78.1878 215.35 77.8158 215.728 77.5278 216.232C77.2518 216.724 77.1138 217.312 77.1138 217.996C77.1138 218.68 77.2518 219.28 77.5278 219.796C77.8158 220.312 78.1878 220.708 78.6438 220.984C79.1118 221.248 79.6038 221.38 80.1198 221.38C80.6478 221.38 81.1398 221.248 81.5958 220.984C82.0518 220.72 82.4178 220.336 82.6938 219.832C82.9818 219.316 83.1258 218.716 83.1258 218.032ZM96.873 213.082V223H94.821V221.83C94.497 222.238 94.071 222.562 93.543 222.802C93.027 223.03 92.475 223.144 91.887 223.144C91.107 223.144 90.405 222.982 89.781 222.658C89.169 222.334 88.683 221.854 88.323 221.218C87.975 220.582 87.801 219.814 87.801 218.914V213.082H89.835V218.608C89.835 219.496 90.057 220.18 90.501 220.66C90.945 221.128 91.551 221.362 92.319 221.362C93.087 221.362 93.693 221.128 94.137 220.66C94.593 220.18 94.821 219.496 94.821 218.608V213.082H96.873ZM106.308 221.344H110.538V223H104.256V210.49H106.308V221.344ZM116.556 223.162C115.62 223.162 114.774 222.952 114.018 222.532C113.262 222.1 112.668 221.5 112.236 220.732C111.804 219.952 111.588 219.052 111.588 218.032C111.588 217.024 111.81 216.13 112.254 215.35C112.698 214.57 113.304 213.97 114.072 213.55C114.84 213.13 115.698 212.92 116.646 212.92C117.594 212.92 118.452 213.13 119.22 213.55C119.988 213.97 120.594 214.57 121.038 215.35C121.482 216.13 121.704 217.024 121.704 218.032C121.704 219.04 121.476 219.934 121.02 220.714C120.564 221.494 119.94 222.1 119.148 222.532C118.368 222.952 117.504 223.162 116.556 223.162ZM116.556 221.38C117.084 221.38 117.576 221.254 118.032 221.002C118.5 220.75 118.878 220.372 119.166 219.868C119.454 219.364 119.598 218.752 119.598 218.032C119.598 217.312 119.46 216.706 119.184 216.214C118.908 215.71 118.542 215.332 118.086 215.08C117.63 214.828 117.138 214.702 116.61 214.702C116.082 214.702 115.59 214.828 115.134 215.08C114.69 215.332 114.336 215.71 114.072 216.214C113.808 216.706 113.676 217.312 113.676 218.032C113.676 219.1 113.946 219.928 114.486 220.516C115.038 221.092 115.728 221.38 116.556 221.38ZM127.657 218.05L132.229 223H129.457L125.785 218.734V223H123.733V209.68H125.785V217.42L129.385 213.082H132.229L127.657 218.05ZM133.016 217.996C133.016 217 133.22 216.118 133.628 215.35C134.048 214.582 134.612 213.988 135.32 213.568C136.04 213.136 136.832 212.92 137.696 212.92C138.476 212.92 139.154 213.076 139.73 213.388C140.318 213.688 140.786 214.066 141.134 214.522V213.082H143.204V223H141.134V221.524C140.786 221.992 140.312 222.382 139.712 222.694C139.112 223.006 138.428 223.162 137.66 223.162C136.808 223.162 136.028 222.946 135.32 222.514C134.612 222.07 134.048 221.458 133.628 220.678C133.22 219.886 133.016 218.992 133.016 217.996ZM141.134 218.032C141.134 217.348 140.99 216.754 140.702 216.25C140.426 215.746 140.06 215.362 139.604 215.098C139.148 214.834 138.656 214.702 138.128 214.702C137.6 214.702 137.108 214.834 136.652 215.098C136.196 215.35 135.824 215.728 135.536 216.232C135.26 216.724 135.122 217.312 135.122 217.996C135.122 218.68 135.26 219.28 135.536 219.796C135.824 220.312 136.196 220.708 136.652 220.984C137.12 221.248 137.612 221.38 138.128 221.38C138.656 221.38 139.148 221.248 139.604 220.984C140.06 220.72 140.426 220.336 140.702 219.832C140.99 219.316 141.134 218.716 141.134 218.032ZM149.499 223.162C148.719 223.162 148.017 223.024 147.393 222.748C146.781 222.46 146.295 222.076 145.935 221.596C145.575 221.104 145.383 220.558 145.359 219.958H147.483C147.519 220.378 147.717 220.732 148.077 221.02C148.449 221.296 148.911 221.434 149.463 221.434C150.039 221.434 150.483 221.326 150.795 221.11C151.119 220.882 151.281 220.594 151.281 220.246C151.281 219.874 151.101 219.598 150.741 219.418C150.393 219.238 149.835 219.04 149.067 218.824C148.323 218.62 147.717 218.422 147.249 218.23C146.781 218.038 146.373 217.744 146.025 217.348C145.689 216.952 145.521 216.43 145.521 215.782C145.521 215.254 145.677 214.774 145.989 214.342C146.301 213.898 146.745 213.55 147.321 213.298C147.909 213.046 148.581 212.92 149.337 212.92C150.465 212.92 151.371 213.208 152.055 213.784C152.751 214.348 153.123 215.122 153.171 216.106H151.119C151.083 215.662 150.903 215.308 150.579 215.044C150.255 214.78 149.817 214.648 149.265 214.648C148.725 214.648 148.311 214.75 148.023 214.954C147.735 215.158 147.591 215.428 147.591 215.764C147.591 216.028 147.687 216.25 147.879 216.43C148.071 216.61 148.305 216.754 148.581 216.862C148.857 216.958 149.265 217.084 149.805 217.24C150.525 217.432 151.113 217.63 151.569 217.834C152.037 218.026 152.439 218.314 152.775 218.698C153.111 219.082 153.285 219.592 153.297 220.228C153.297 220.792 153.141 221.296 152.829 221.74C152.517 222.184 152.073 222.532 151.497 222.784C150.933 223.036 150.267 223.162 149.499 223.162ZM156.558 211.768C156.186 211.768 155.874 211.642 155.622 211.39C155.37 211.138 155.244 210.826 155.244 210.454C155.244 210.082 155.37 209.77 155.622 209.518C155.874 209.266 156.186 209.14 156.558 209.14C156.918 209.14 157.224 209.266 157.476 209.518C157.728 209.77 157.854 210.082 157.854 210.454C157.854 210.826 157.728 211.138 157.476 211.39C157.224 211.642 156.918 211.768 156.558 211.768ZM157.566 213.082V223H155.514V213.082H157.566Z" fill="#111111"/>
<path d="M50.848 156L47.968 150.996H46.402V156H44.35V143.49H48.67C49.63 143.49 50.44 143.658 51.1 143.994C51.772 144.33 52.27 144.78 52.594 145.344C52.93 145.908 53.098 146.538 53.098 147.234C53.098 148.05 52.858 148.794 52.378 149.466C51.91 150.126 51.184 150.576 50.2 150.816L53.296 156H50.848ZM46.402 149.358H48.67C49.438 149.358 50.014 149.166 50.398 148.782C50.794 148.398 50.992 147.882 50.992 147.234C50.992 146.586 50.8 146.082 50.416 145.722C50.032 145.35 49.45 145.164 48.67 145.164H46.402V149.358ZM55.039 150.996C55.039 150 55.243 149.118 55.651 148.35C56.071 147.582 56.635 146.988 57.343 146.568C58.063 146.136 58.855 145.92 59.719 145.92C60.499 145.92 61.177 146.076 61.753 146.388C62.341 146.688 62.809 147.066 63.157 147.522V146.082H65.227V156H63.157V154.524C62.809 154.992 62.335 155.382 61.735 155.694C61.135 156.006 60.451 156.162 59.683 156.162C58.831 156.162 58.051 155.946 57.343 155.514C56.635 155.07 56.071 154.458 55.651 153.678C55.243 152.886 55.039 151.992 55.039 150.996ZM63.157 151.032C63.157 150.348 63.013 149.754 62.725 149.25C62.449 148.746 62.083 148.362 61.627 148.098C61.171 147.834 60.679 147.702 60.151 147.702C59.623 147.702 59.131 147.834 58.675 148.098C58.219 148.35 57.847 148.728 57.559 149.232C57.283 149.724 57.145 150.312 57.145 150.996C57.145 151.68 57.283 152.28 57.559 152.796C57.847 153.312 58.219 153.708 58.675 153.984C59.143 154.248 59.635 154.38 60.151 154.38C60.679 154.38 61.171 154.248 61.627 153.984C62.083 153.72 62.449 153.336 62.725 152.832C63.013 152.316 63.157 151.716 63.157 151.032ZM69.9743 147.54C70.3223 147.084 70.7963 146.7 71.3963 146.388C71.9963 146.076 72.6743 145.92 73.4303 145.92C74.2943 145.92 75.0803 146.136 75.7883 146.568C76.5083 146.988 77.0723 147.582 77.4803 148.35C77.8883 149.118 78.0923 150 78.0923 150.996C78.0923 151.992 77.8883 152.886 77.4803 153.678C77.0723 154.458 76.5083 155.07 75.7883 155.514C75.0803 155.946 74.2943 156.162 73.4303 156.162C72.6743 156.162 72.0023 156.012 71.4143 155.712C70.8263 155.4 70.3463 155.016 69.9743 154.56V160.716H67.9223V146.082H69.9743V147.54ZM76.0043 150.996C76.0043 150.312 75.8603 149.724 75.5723 149.232C75.2963 148.728 74.9243 148.35 74.4563 148.098C74.0003 147.834 73.5083 147.702 72.9803 147.702C72.4643 147.702 71.9723 147.834 71.5043 148.098C71.0483 148.362 70.6763 148.746 70.3883 149.25C70.1123 149.754 69.9743 150.348 69.9743 151.032C69.9743 151.716 70.1123 152.316 70.3883 152.832C70.6763 153.336 71.0483 153.72 71.5043 153.984C71.9723 154.248 72.4643 154.38 72.9803 154.38C73.5083 154.38 74.0003 154.248 74.4563 153.984C74.9243 153.708 75.2963 153.312 75.5723 152.796C75.8603 152.28 76.0043 151.68 76.0043 150.996ZM79.4375 150.996C79.4375 150 79.6415 149.118 80.0495 148.35C80.4695 147.582 81.0335 146.988 81.7415 146.568C82.4615 146.136 83.2535 145.92 84.1175 145.92C84.8975 145.92 85.5755 146.076 86.1515 146.388C86.7395 146.688 87.2075 147.066 87.5555 147.522V146.082H89.6255V156H87.5555V154.524C87.2075 154.992 86.7335 155.382 86.1335 155.694C85.5335 156.006 84.8495 156.162 84.0815 156.162C83.2295 156.162 82.4495 155.946 81.7415 155.514C81.0335 155.07 80.4695 154.458 80.0495 153.678C79.6415 152.886 79.4375 151.992 79.4375 150.996ZM87.5555 151.032C87.5555 150.348 87.4115 149.754 87.1235 149.25C86.8475 148.746 86.4815 148.362 86.0255 148.098C85.5695 147.834 85.0775 147.702 84.5495 147.702C84.0215 147.702 83.5295 147.834 83.0735 148.098C82.6175 148.35 82.2455 148.728 81.9575 149.232C81.6815 149.724 81.5435 150.312 81.5435 150.996C81.5435 151.68 81.6815 152.28 81.9575 152.796C82.2455 153.312 82.6175 153.708 83.0735 153.984C83.5415 154.248 84.0335 154.38 84.5495 154.38C85.0775 154.38 85.5695 154.248 86.0255 153.984C86.4815 153.72 86.8475 153.336 87.1235 152.832C87.4115 152.316 87.5555 151.716 87.5555 151.032ZM94.7147 147.756V153.246C94.7147 153.618 94.7987 153.888 94.9667 154.056C95.1467 154.212 95.4467 154.29 95.8667 154.29H97.1267V156H95.5067C94.5827 156 93.8747 155.784 93.3827 155.352C92.8907 154.92 92.6447 154.218 92.6447 153.246V147.756H91.4747V146.082H92.6447V143.616H94.7147V146.082H97.1267V147.756H94.7147ZM111.056 143.49V145.164H105.746V148.854H109.886V150.528H105.746V156H103.694V143.49H111.056ZM114.001 144.768C113.629 144.768 113.317 144.642 113.065 144.39C112.813 144.138 112.687 143.826 112.687 143.454C112.687 143.082 112.813 142.77 113.065 142.518C113.317 142.266 113.629 142.14 114.001 142.14C114.361 142.14 114.667 142.266 114.919 142.518C115.171 142.77 115.297 143.082 115.297 143.454C115.297 143.826 115.171 144.138 114.919 144.39C114.667 144.642 114.361 144.768 114.001 144.768ZM115.009 146.082V156H112.957V146.082H115.009ZM122.708 145.92C123.488 145.92 124.184 146.082 124.796 146.406C125.42 146.73 125.906 147.21 126.254 147.846C126.602 148.482 126.776 149.25 126.776 150.15V156H124.742V150.456C124.742 149.568 124.52 148.89 124.076 148.422C123.632 147.942 123.026 147.702 122.258 147.702C121.49 147.702 120.878 147.942 120.422 148.422C119.978 148.89 119.756 149.568 119.756 150.456V156H117.704V146.082H119.756V147.216C120.092 146.808 120.518 146.49 121.034 146.262C121.562 146.034 122.12 145.92 122.708 145.92ZM128.709 150.996C128.709 150 128.913 149.118 129.321 148.35C129.741 147.582 130.305 146.988 131.013 146.568C131.733 146.136 132.525 145.92 133.389 145.92C134.169 145.92 134.847 146.076 135.423 146.388C136.011 146.688 136.479 147.066 136.827 147.522V146.082H138.897V156H136.827V154.524C136.479 154.992 136.005 155.382 135.405 155.694C134.805 156.006 134.121 156.162 133.353 156.162C132.501 156.162 131.721 155.946 131.013 155.514C130.305 155.07 129.741 154.458 129.321 153.678C128.913 152.886 128.709 151.992 128.709 150.996ZM136.827 151.032C136.827 150.348 136.683 149.754 136.395 149.25C136.119 148.746 135.753 148.362 135.297 148.098C134.841 147.834 134.349 147.702 133.821 147.702C133.293 147.702 132.801 147.834 132.345 148.098C131.889 148.35 131.517 148.728 131.229 149.232C130.953 149.724 130.815 150.312 130.815 150.996C130.815 151.68 130.953 152.28 131.229 152.796C131.517 153.312 131.889 153.708 132.345 153.984C132.813 154.248 133.305 154.38 133.821 154.38C134.349 154.38 134.841 154.248 135.297 153.984C135.753 153.72 136.119 153.336 136.395 152.832C136.683 152.316 136.827 151.716 136.827 151.032ZM143.644 142.68V156H141.592V142.68H143.644Z" fill="#111111"/>
<path d="M4 17C4 9.8203 9.8203 4 17 4H388C395.18 4 401 9.8203 401 17H4Z" fill="#FD9F00"/>
</g>
</g>
<defs>
<filter id="filter0_dd_376_921" x="0" y="0" width="407" height="276" filterUnits="userSpaceOnUse" color-interpolation-filters="sRGB">
<feFlood flood-opacity="0" result="BackgroundImageFix"/>
<feColorMatrix in="SourceAlpha" type="matrix" values="0 0 0 0 0 0 0 0 0 0 0 0 0 0 0 0 0 0 127 0" result="hardAlpha"/>
<feOffset dx="2"/>
<feGaussianBlur stdDeviation="2"/>
<feComposite in2="hardAlpha" operator="out"/>
<feColorMatrix type="matrix" values="0 0 0 0 0 0 0 0 0 0 0 0 0 0 0 0 0 0 0.1 0"/>
<feBlend mode="normal" in2="BackgroundImageFix" result="effect1_dropShadow_376_921"/>
<feColorMatrix in="SourceAlpha" type="matrix" values="0 0 0 0 0 0 0 0 0 0 0 0 0 0 0 0 0 0 127 0" result="hardAlpha"/>
<feOffset dy="2"/>
<feGaussianBlur stdDeviation="2"/>
<feComposite in2="hardAlpha" operator="out"/>
<feColorMatrix type="matrix" values="0 0 0 0 0 0 0 0 0 0 0 0 0 0 0 0 0 0 0.15 0"/>
<feBlend mode="normal" in2="effect1_dropShadow_376_921" result="effect2_dropShadow_376_921"/>
<feBlend mode="normal" in="SourceGraphic" in2="effect2_dropShadow_376_921" result="shape"/>
</filter>
<filter id="filter1_b_376_921" x="24.02" y="81.32" width="314.883" height="29.14" filterUnits="userSpaceOnUse" color-interpolation-filters="sRGB">
<feFlood flood-opacity="0" result="BackgroundImageFix"/>
<feGaussianBlur in="BackgroundImage" stdDeviation="2"/>
<feComposite in2="SourceAlpha" operator="in" result="effect1_backgroundBlur_376_921"/>
<feBlend mode="normal" in="SourceGraphic" in2="effect1_backgroundBlur_376_921" result="shape"/>
</filter>
<filter id="filter2_d_376_921" x="15" y="185" width="378" height="72" filterUnits="userSpaceOnUse" color-interpolation-filters="sRGB">
<feFlood flood-opacity="0" result="BackgroundImageFix"/>
<feColorMatrix in="SourceAlpha" type="matrix" values="0 0 0 0 0 0 0 0 0 0 0 0 0 0 0 0 0 0 127 0" result="hardAlpha"/>
<feOffset dy="5"/>
<feGaussianBlur stdDeviation="6"/>
<feComposite in2="hardAlpha" operator="out"/>
<feColorMatrix type="matrix" values="0 0 0 0 0.152941 0 0 0 0 0.266667 0 0 0 0 0.572549 0 0 0 0.1 0"/>
<feBlend mode="normal" in2="BackgroundImageFix" result="effect1_dropShadow_376_921"/>
<feBlend mode="normal" in="SourceGraphic" in2="effect1_dropShadow_376_921" result="shape"/>
</filter>
<filter id="filter3_d_376_921" x="15" y="118" width="378" height="72" filterUnits="userSpaceOnUse" color-interpolation-filters="sRGB">
<feFlood flood-opacity="0" result="BackgroundImageFix"/>
<feColorMatrix in="SourceAlpha" type="matrix" values="0 0 0 0 0 0 0 0 0 0 0 0 0 0 0 0 0 0 127 0" result="hardAlpha"/>
<feOffset dy="5"/>
<feGaussianBlur stdDeviation="6"/>
<feComposite in2="hardAlpha" operator="out"/>
<feColorMatrix type="matrix" values="0 0 0 0 0.152941 0 0 0 0 0.266667 0 0 0 0 0.572549 0 0 0 0.1 0"/>
<feBlend mode="normal" in2="BackgroundImageFix" result="effect1_dropShadow_376_921"/>
<feBlend mode="normal" in="SourceGraphic" in2="effect1_dropShadow_376_921" result="shape"/>
</filter>
<clipPath id="clip0_376_921">
<rect x="4" y="4" width="397" height="266" rx="16" fill="white"/>
</clipPath>
</defs>
</svg>
