<svg width="248" height="102" viewBox="0 0 248 102" fill="none" xmlns="http://www.w3.org/2000/svg">
<g filter="url(#filter0_d_252_743)">
<rect x="7" y="4" width="236" height="90" rx="16" fill="#274492"/>
</g>
<path d="M33.432 19.49V21.164H30.102V32H28.05V21.164H24.702V19.49H33.432ZM39.8122 32.162C38.8762 32.162 38.0302 31.952 37.2742 31.532C36.5182 31.1 35.9242 30.5 35.4922 29.732C35.0602 28.952 34.8442 28.052 34.8442 27.032C34.8442 26.024 35.0662 25.13 35.5102 24.35C35.9542 23.57 36.5602 22.97 37.3282 22.55C38.0962 22.13 38.9542 21.92 39.9022 21.92C40.8502 21.92 41.7082 22.13 42.4762 22.55C43.2442 22.97 43.8502 23.57 44.2942 24.35C44.7382 25.13 44.9602 26.024 44.9602 27.032C44.9602 28.04 44.7322 28.934 44.2762 29.714C43.8202 30.494 43.1962 31.1 42.4042 31.532C41.6242 31.952 40.7602 32.162 39.8122 32.162ZM39.8122 30.38C40.3402 30.38 40.8322 30.254 41.2882 30.002C41.7562 29.75 42.1342 29.372 42.4222 28.868C42.7102 28.364 42.8542 27.752 42.8542 27.032C42.8542 26.312 42.7162 25.706 42.4402 25.214C42.1642 24.71 41.7982 24.332 41.3422 24.08C40.8862 23.828 40.3942 23.702 39.8662 23.702C39.3382 23.702 38.8462 23.828 38.3902 24.08C37.9462 24.332 37.5922 24.71 37.3282 25.214C37.0642 25.706 36.9322 26.312 36.9322 27.032C36.9322 28.1 37.2022 28.928 37.7422 29.516C38.2942 30.092 38.9842 30.38 39.8122 30.38ZM49.3827 23.756V29.246C49.3827 29.618 49.4667 29.888 49.6347 30.056C49.8147 30.212 50.1147 30.29 50.5347 30.29H51.7947V32H50.1747C49.2507 32 48.5427 31.784 48.0507 31.352C47.5587 30.92 47.3127 30.218 47.3127 29.246V23.756H46.1427V22.082H47.3127V19.616H49.3827V22.082H51.7947V23.756H49.3827ZM53.0019 26.996C53.0019 26 53.2059 25.118 53.6139 24.35C54.0339 23.582 54.5979 22.988 55.3059 22.568C56.0259 22.136 56.8179 21.92 57.6819 21.92C58.4619 21.92 59.1399 22.076 59.7159 22.388C60.3039 22.688 60.7719 23.066 61.1199 23.522V22.082H63.1899V32H61.1199V30.524C60.7719 30.992 60.2979 31.382 59.6979 31.694C59.0979 32.006 58.4139 32.162 57.6459 32.162C56.7939 32.162 56.0139 31.946 55.3059 31.514C54.5979 31.07 54.0339 30.458 53.6139 29.678C53.2059 28.886 53.0019 27.992 53.0019 26.996ZM61.1199 27.032C61.1199 26.348 60.9759 25.754 60.6879 25.25C60.4119 24.746 60.0459 24.362 59.5899 24.098C59.1339 23.834 58.6419 23.702 58.1139 23.702C57.5859 23.702 57.0939 23.834 56.6379 24.098C56.1819 24.35 55.8099 24.728 55.5219 25.232C55.2459 25.724 55.1079 26.312 55.1079 26.996C55.1079 27.68 55.2459 28.28 55.5219 28.796C55.8099 29.312 56.1819 29.708 56.6379 29.984C57.1059 30.248 57.5979 30.38 58.1139 30.38C58.6419 30.38 59.1339 30.248 59.5899 29.984C60.0459 29.72 60.4119 29.336 60.6879 28.832C60.9759 28.316 61.1199 27.716 61.1199 27.032ZM67.9372 18.68V32H65.8852V18.68H67.9372ZM82.201 32L77.359 26.402V32H75.307V19.49H77.359V25.196L82.219 19.49H84.793L79.357 25.754L84.883 32H82.201ZM95.7877 26.798C95.7877 27.17 95.7637 27.506 95.7157 27.806H88.1377C88.1977 28.598 88.4917 29.234 89.0197 29.714C89.5477 30.194 90.1957 30.434 90.9637 30.434C92.0677 30.434 92.8477 29.972 93.3037 29.048H95.5177C95.2177 29.96 94.6717 30.71 93.8797 31.298C93.0997 31.874 92.1277 32.162 90.9637 32.162C90.0157 32.162 89.1637 31.952 88.4077 31.532C87.6637 31.1 87.0757 30.5 86.6437 29.732C86.2237 28.952 86.0137 28.052 86.0137 27.032C86.0137 26.012 86.2177 25.118 86.6257 24.35C87.0457 23.57 87.6277 22.97 88.3717 22.55C89.1277 22.13 89.9917 21.92 90.9637 21.92C91.8997 21.92 92.7337 22.124 93.4657 22.532C94.1977 22.94 94.7677 23.516 95.1757 24.26C95.5837 24.992 95.7877 25.838 95.7877 26.798ZM93.6457 26.15C93.6337 25.394 93.3637 24.788 92.8357 24.332C92.3077 23.876 91.6537 23.648 90.8737 23.648C90.1657 23.648 89.5597 23.876 89.0557 24.332C88.5517 24.776 88.2517 25.382 88.1557 26.15H93.6457ZM101.803 21.92C102.571 21.92 103.249 22.076 103.837 22.388C104.437 22.688 104.905 23.066 105.241 23.522V22.082H107.311V32.162C107.311 33.074 107.119 33.884 106.735 34.592C106.351 35.312 105.793 35.876 105.061 36.284C104.341 36.692 103.477 36.896 102.469 36.896C101.125 36.896 100.009 36.578 99.121 35.942C98.233 35.318 97.729 34.466 97.609 33.386H99.643C99.799 33.902 100.129 34.316 100.633 34.628C101.149 34.952 101.761 35.114 102.469 35.114C103.297 35.114 103.963 34.862 104.467 34.358C104.983 33.854 105.241 33.122 105.241 32.162V30.506C104.893 30.974 104.419 31.37 103.819 31.694C103.231 32.006 102.559 32.162 101.803 32.162C100.939 32.162 100.147 31.946 99.427 31.514C98.719 31.07 98.155 30.458 97.735 29.678C97.327 28.886 97.123 27.992 97.123 26.996C97.123 26 97.327 25.118 97.735 24.35C98.155 23.582 98.719 22.988 99.427 22.568C100.147 22.136 100.939 21.92 101.803 21.92ZM105.241 27.032C105.241 26.348 105.097 25.754 104.809 25.25C104.533 24.746 104.167 24.362 103.711 24.098C103.255 23.834 102.763 23.702 102.235 23.702C101.707 23.702 101.215 23.834 100.759 24.098C100.303 24.35 99.931 24.728 99.643 25.232C99.367 25.724 99.229 26.312 99.229 26.996C99.229 27.68 99.367 28.28 99.643 28.796C99.931 29.312 100.303 29.708 100.759 29.984C101.227 30.248 101.719 30.38 102.235 30.38C102.763 30.38 103.255 30.248 103.711 29.984C104.167 29.72 104.533 29.336 104.809 28.832C105.097 28.316 105.241 27.716 105.241 27.032ZM111.05 20.768C110.678 20.768 110.366 20.642 110.114 20.39C109.862 20.138 109.736 19.826 109.736 19.454C109.736 19.082 109.862 18.77 110.114 18.518C110.366 18.266 110.678 18.14 111.05 18.14C111.41 18.14 111.716 18.266 111.968 18.518C112.22 18.77 112.346 19.082 112.346 19.454C112.346 19.826 112.22 20.138 111.968 20.39C111.716 20.642 111.41 20.768 111.05 20.768ZM112.058 22.082V32H110.006V22.082H112.058ZM114.068 26.996C114.068 26 114.272 25.118 114.68 24.35C115.1 23.582 115.664 22.988 116.372 22.568C117.092 22.136 117.884 21.92 118.748 21.92C119.528 21.92 120.206 22.076 120.782 22.388C121.37 22.688 121.838 23.066 122.186 23.522V22.082H124.256V32H122.186V30.524C121.838 30.992 121.364 31.382 120.764 31.694C120.164 32.006 119.48 32.162 118.712 32.162C117.86 32.162 117.08 31.946 116.372 31.514C115.664 31.07 115.1 30.458 114.68 29.678C114.272 28.886 114.068 27.992 114.068 26.996ZM122.186 27.032C122.186 26.348 122.042 25.754 121.754 25.25C121.478 24.746 121.112 24.362 120.656 24.098C120.2 23.834 119.708 23.702 119.18 23.702C118.652 23.702 118.16 23.834 117.704 24.098C117.248 24.35 116.876 24.728 116.588 25.232C116.312 25.724 116.174 26.312 116.174 26.996C116.174 27.68 116.312 28.28 116.588 28.796C116.876 29.312 117.248 29.708 117.704 29.984C118.172 30.248 118.664 30.38 119.18 30.38C119.708 30.38 120.2 30.248 120.656 29.984C121.112 29.72 121.478 29.336 121.754 28.832C122.042 28.316 122.186 27.716 122.186 27.032ZM129.346 23.756V29.246C129.346 29.618 129.43 29.888 129.598 30.056C129.778 30.212 130.078 30.29 130.498 30.29H131.758V32H130.138C129.214 32 128.506 31.784 128.014 31.352C127.522 30.92 127.276 30.218 127.276 29.246V23.756H126.106V22.082H127.276V19.616H129.346V22.082H131.758V23.756H129.346ZM132.965 26.996C132.965 26 133.169 25.118 133.577 24.35C133.997 23.582 134.561 22.988 135.269 22.568C135.989 22.136 136.781 21.92 137.645 21.92C138.425 21.92 139.103 22.076 139.679 22.388C140.267 22.688 140.735 23.066 141.083 23.522V22.082H143.153V32H141.083V30.524C140.735 30.992 140.261 31.382 139.661 31.694C139.061 32.006 138.377 32.162 137.609 32.162C136.757 32.162 135.977 31.946 135.269 31.514C134.561 31.07 133.997 30.458 133.577 29.678C133.169 28.886 132.965 27.992 132.965 26.996ZM141.083 27.032C141.083 26.348 140.939 25.754 140.651 25.25C140.375 24.746 140.009 24.362 139.553 24.098C139.097 23.834 138.605 23.702 138.077 23.702C137.549 23.702 137.057 23.834 136.601 24.098C136.145 24.35 135.773 24.728 135.485 25.232C135.209 25.724 135.071 26.312 135.071 26.996C135.071 27.68 135.209 28.28 135.485 28.796C135.773 29.312 136.145 29.708 136.601 29.984C137.069 30.248 137.561 30.38 138.077 30.38C138.605 30.38 139.097 30.248 139.553 29.984C140.009 29.72 140.375 29.336 140.651 28.832C140.939 28.316 141.083 27.716 141.083 27.032ZM150.852 21.92C151.632 21.92 152.328 22.082 152.94 22.406C153.564 22.73 154.05 23.21 154.398 23.846C154.746 24.482 154.92 25.25 154.92 26.15V32H152.886V26.456C152.886 25.568 152.664 24.89 152.22 24.422C151.776 23.942 151.17 23.702 150.402 23.702C149.634 23.702 149.022 23.942 148.566 24.422C148.122 24.89 147.9 25.568 147.9 26.456V32H145.848V22.082H147.9V23.216C148.236 22.808 148.662 22.49 149.178 22.262C149.706 22.034 150.264 21.92 150.852 21.92Z" fill="white"/>
<path d="M29.026 61.618C27.5007 60.8553 26.738 59.6527 26.738 58.01C26.738 57.218 26.936 56.492 27.332 55.832C27.728 55.172 28.322 54.6513 29.114 54.27C29.906 53.874 30.874 53.676 32.018 53.676C33.1473 53.676 34.108 53.874 34.9 54.27C35.7067 54.6513 36.308 55.172 36.704 55.832C37.1 56.492 37.298 57.218 37.298 58.01C37.298 58.8313 37.0853 59.5573 36.66 60.188C36.2493 60.804 35.6993 61.2807 35.01 61.618C35.846 61.926 36.506 62.432 36.99 63.136C37.474 63.8253 37.716 64.6393 37.716 65.578C37.716 66.5313 37.474 67.3747 36.99 68.108C36.506 68.8413 35.8313 69.406 34.966 69.802C34.1007 70.198 33.118 70.396 32.018 70.396C30.918 70.396 29.9353 70.198 29.07 69.802C28.2193 69.406 27.552 68.8413 27.068 68.108C26.584 67.3747 26.342 66.5313 26.342 65.578C26.342 64.6247 26.584 63.8033 27.068 63.114C27.552 62.4247 28.2047 61.926 29.026 61.618ZM34.9 58.318C34.9 57.4967 34.6433 56.866 34.13 56.426C33.6167 55.986 32.9127 55.766 32.018 55.766C31.138 55.766 30.4413 55.986 29.928 56.426C29.4147 56.866 29.158 57.504 29.158 58.34C29.158 59.0733 29.422 59.6747 29.95 60.144C30.4927 60.5987 31.182 60.826 32.018 60.826C32.854 60.826 33.5433 60.5913 34.086 60.122C34.6287 59.6527 34.9 59.0513 34.9 58.318ZM32.018 62.718C31.05 62.718 30.258 62.96 29.642 63.444C29.0407 63.9133 28.74 64.5953 28.74 65.49C28.74 66.326 29.0333 67.008 29.62 67.536C30.2067 68.0493 31.006 68.306 32.018 68.306C33.0153 68.306 33.8 68.042 34.372 67.514C34.9587 66.986 35.252 66.3113 35.252 65.49C35.252 64.61 34.9513 63.928 34.35 63.444C33.7633 62.96 32.986 62.718 32.018 62.718ZM54.8201 70L48.9021 63.158V70H46.3941V54.71H48.9021V61.684L54.8421 54.71H57.9881L51.3441 62.366L58.0981 70H54.8201ZM71.426 63.642C71.426 64.0967 71.3967 64.5073 71.338 64.874H62.076C62.1493 65.842 62.5087 66.6193 63.154 67.206C63.7993 67.7927 64.5913 68.086 65.53 68.086C66.8793 68.086 67.8327 67.5213 68.39 66.392H71.096C70.7293 67.5067 70.062 68.4233 69.094 69.142C68.1407 69.846 66.9527 70.198 65.53 70.198C64.3713 70.198 63.33 69.9413 62.406 69.428C61.4967 68.9 60.778 68.1667 60.25 67.228C59.7367 66.2747 59.48 65.1747 59.48 63.928C59.48 62.6813 59.7293 61.5887 60.228 60.65C60.7413 59.6967 61.4527 58.9633 62.362 58.45C63.286 57.9367 64.342 57.68 65.53 57.68C66.674 57.68 67.6933 57.9293 68.588 58.428C69.4827 58.9267 70.1793 59.6307 70.678 60.54C71.1767 61.4347 71.426 62.4687 71.426 63.642ZM68.808 62.85C68.7933 61.926 68.4633 61.1853 67.818 60.628C67.1727 60.0707 66.3733 59.792 65.42 59.792C64.5547 59.792 63.814 60.0707 63.198 60.628C62.582 61.1707 62.2153 61.9113 62.098 62.85H68.808ZM78.7781 57.68C79.7168 57.68 80.5455 57.8707 81.2641 58.252C81.9975 58.6187 82.5695 59.0807 82.9801 59.638V57.878H85.5101V70.198C85.5101 71.3127 85.2755 72.3027 84.8061 73.168C84.3368 74.048 83.6548 74.7373 82.7601 75.236C81.8801 75.7347 80.8241 75.984 79.5921 75.984C77.9495 75.984 76.5855 75.5953 75.5001 74.818C74.4148 74.0553 73.7988 73.014 73.6521 71.694H76.1381C76.3288 72.3247 76.7321 72.8307 77.3481 73.212C77.9788 73.608 78.7268 73.806 79.5921 73.806C80.6041 73.806 81.4181 73.498 82.0341 72.882C82.6648 72.266 82.9801 71.3713 82.9801 70.198V68.174C82.5548 68.746 81.9755 69.23 81.2421 69.626C80.5235 70.0073 79.7021 70.198 78.7781 70.198C77.7221 70.198 76.7541 69.934 75.8741 69.406C75.0088 68.8633 74.3195 68.1153 73.8061 67.162C73.3075 66.194 73.0581 65.1013 73.0581 63.884C73.0581 62.6667 73.3075 61.5887 73.8061 60.65C74.3195 59.7113 75.0088 58.9853 75.8741 58.472C76.7541 57.944 77.7221 57.68 78.7781 57.68ZM82.9801 63.928C82.9801 63.092 82.8041 62.366 82.4521 61.75C82.1148 61.134 81.6675 60.6647 81.1101 60.342C80.5528 60.0193 79.9515 59.858 79.3061 59.858C78.6608 59.858 78.0595 60.0193 77.5021 60.342C76.9448 60.65 76.4901 61.112 76.1381 61.728C75.8008 62.3293 75.6321 63.048 75.6321 63.884C75.6321 64.72 75.8008 65.4533 76.1381 66.084C76.4901 66.7147 76.9448 67.1987 77.5021 67.536C78.0741 67.8587 78.6755 68.02 79.3061 68.02C79.9515 68.02 80.5528 67.8587 81.1101 67.536C81.6675 67.2133 82.1148 66.744 82.4521 66.128C82.8041 65.4973 82.9801 64.764 82.9801 63.928ZM90.0803 56.272C89.6256 56.272 89.2443 56.118 88.9363 55.81C88.6283 55.502 88.4743 55.1207 88.4743 54.666C88.4743 54.2113 88.6283 53.83 88.9363 53.522C89.2443 53.214 89.6256 53.06 90.0803 53.06C90.5203 53.06 90.8943 53.214 91.2023 53.522C91.5103 53.83 91.6643 54.2113 91.6643 54.666C91.6643 55.1207 91.5103 55.502 91.2023 55.81C90.8943 56.118 90.5203 56.272 90.0803 56.272ZM91.3123 57.878V70H88.8043V57.878H91.3123ZM93.7691 63.884C93.7691 62.6667 94.0184 61.5887 94.5171 60.65C95.0304 59.7113 95.7197 58.9853 96.5851 58.472C97.4651 57.944 98.4331 57.68 99.4891 57.68C100.442 57.68 101.271 57.8707 101.975 58.252C102.694 58.6187 103.266 59.0807 103.691 59.638V57.878H106.221V70H103.691V68.196C103.266 68.768 102.686 69.2447 101.953 69.626C101.22 70.0073 100.384 70.198 99.4451 70.198C98.4037 70.198 97.4504 69.934 96.5851 69.406C95.7197 68.8633 95.0304 68.1153 94.5171 67.162C94.0184 66.194 93.7691 65.1013 93.7691 63.884ZM103.691 63.928C103.691 63.092 103.515 62.366 103.163 61.75C102.826 61.134 102.378 60.6647 101.821 60.342C101.264 60.0193 100.662 59.858 100.017 59.858C99.3717 59.858 98.7704 60.0193 98.2131 60.342C97.6557 60.65 97.2011 61.112 96.8491 61.728C96.5117 62.3293 96.3431 63.048 96.3431 63.884C96.3431 64.72 96.5117 65.4533 96.8491 66.084C97.2011 66.7147 97.6557 67.1987 98.2131 67.536C98.7851 67.8587 99.3864 68.02 100.017 68.02C100.662 68.02 101.264 67.8587 101.821 67.536C102.378 67.2133 102.826 66.744 103.163 66.128C103.515 65.4973 103.691 64.764 103.691 63.928ZM112.441 59.924V66.634C112.441 67.0887 112.544 67.4187 112.749 67.624C112.969 67.8147 113.336 67.91 113.849 67.91H115.389V70H113.409C112.28 70 111.415 69.736 110.813 69.208C110.212 68.68 109.911 67.822 109.911 66.634V59.924H108.481V57.878H109.911V54.864H112.441V57.878H115.389V59.924H112.441ZM116.865 63.884C116.865 62.6667 117.114 61.5887 117.613 60.65C118.126 59.7113 118.815 58.9853 119.681 58.472C120.561 57.944 121.529 57.68 122.585 57.68C123.538 57.68 124.367 57.8707 125.071 58.252C125.789 58.6187 126.361 59.0807 126.787 59.638V57.878H129.317V70H126.787V68.196C126.361 68.768 125.782 69.2447 125.049 69.626C124.315 70.0073 123.479 70.198 122.541 70.198C121.499 70.198 120.546 69.934 119.681 69.406C118.815 68.8633 118.126 68.1153 117.613 67.162C117.114 66.194 116.865 65.1013 116.865 63.884ZM126.787 63.928C126.787 63.092 126.611 62.366 126.259 61.75C125.921 61.134 125.474 60.6647 124.917 60.342C124.359 60.0193 123.758 59.858 123.113 59.858C122.467 59.858 121.866 60.0193 121.309 60.342C120.751 60.65 120.297 61.112 119.945 61.728C119.607 62.3293 119.439 63.048 119.439 63.884C119.439 64.72 119.607 65.4533 119.945 66.084C120.297 66.7147 120.751 67.1987 121.309 67.536C121.881 67.8587 122.482 68.02 123.113 68.02C123.758 68.02 124.359 67.8587 124.917 67.536C125.474 67.2133 125.921 66.744 126.259 66.128C126.611 65.4973 126.787 64.764 126.787 63.928ZM138.727 57.68C139.68 57.68 140.531 57.878 141.279 58.274C142.042 58.67 142.636 59.2567 143.061 60.034C143.486 60.8113 143.699 61.75 143.699 62.85V70H141.213V63.224C141.213 62.1387 140.942 61.31 140.399 60.738C139.856 60.1513 139.116 59.858 138.177 59.858C137.238 59.858 136.49 60.1513 135.933 60.738C135.39 61.31 135.119 62.1387 135.119 63.224V70H132.611V57.878H135.119V59.264C135.53 58.7653 136.05 58.3767 136.681 58.098C137.326 57.8193 138.008 57.68 138.727 57.68Z" fill="white"/>
<defs>
<filter id="filter0_d_252_743" x="0" y="0" width="248" height="102" filterUnits="userSpaceOnUse" color-interpolation-filters="sRGB">
<feFlood flood-opacity="0" result="BackgroundImageFix"/>
<feColorMatrix in="SourceAlpha" type="matrix" values="0 0 0 0 0 0 0 0 0 0 0 0 0 0 0 0 0 0 127 0" result="hardAlpha"/>
<feOffset dx="-1" dy="2"/>
<feGaussianBlur stdDeviation="3"/>
<feComposite in2="hardAlpha" operator="out"/>
<feColorMatrix type="matrix" values="0 0 0 0 0 0 0 0 0 0 0 0 0 0 0 0 0 0 0.1 0"/>
<feBlend mode="normal" in2="BackgroundImageFix" result="effect1_dropShadow_252_743"/>
<feBlend mode="normal" in="SourceGraphic" in2="effect1_dropShadow_252_743" result="shape"/>
</filter>
</defs>
</svg>
