<svg width="195" height="40" viewBox="0 0 195 40" fill="none" xmlns="http://www.w3.org/2000/svg">
<path d="M44 15H28C26.8954 15 26 15.8954 26 17V27C26 28.1046 26.8954 29 28 29H44C45.1046 29 46 28.1046 46 27V17C46 15.8954 45.1046 15 44 15Z" stroke="white" stroke-width="1.5" stroke-linecap="round" stroke-linejoin="round"/>
<path d="M40 29V13C40 12.4696 39.7893 11.9609 39.4142 11.5858C39.0391 11.2107 38.5304 11 38 11H34C33.4696 11 32.9609 11.2107 32.5858 11.5858C32.2107 11.9609 32 12.4696 32 13V29" stroke="white" stroke-width="1.5" stroke-linecap="round" stroke-linejoin="round"/>
<path d="M67.328 26L63.024 21.024V26H61.2V14.88H63.024V19.952L67.344 14.88H69.632L64.8 20.448L69.712 26H67.328ZM79.405 21.376C79.405 21.7067 79.3837 22.0053 79.341 22.272H72.605C72.6583 22.976 72.9197 23.5413 73.389 23.968C73.8583 24.3947 74.4343 24.608 75.117 24.608C76.0983 24.608 76.7917 24.1973 77.197 23.376H79.165C78.8983 24.1867 78.413 24.8533 77.709 25.376C77.0157 25.888 76.1517 26.144 75.117 26.144C74.2743 26.144 73.517 25.9573 72.845 25.584C72.1837 25.2 71.661 24.6667 71.277 23.984C70.9037 23.2907 70.717 22.4907 70.717 21.584C70.717 20.6773 70.8983 19.8827 71.261 19.2C71.6343 18.5067 72.1517 17.9733 72.813 17.6C73.485 17.2267 74.253 17.04 75.117 17.04C75.949 17.04 76.6903 17.2213 77.341 17.584C77.9917 17.9467 78.4983 18.4587 78.861 19.12C79.2237 19.7707 79.405 20.5227 79.405 21.376ZM77.501 20.8C77.4903 20.128 77.2503 19.5893 76.781 19.184C76.3117 18.7787 75.7303 18.576 75.037 18.576C74.4077 18.576 73.869 18.7787 73.421 19.184C72.973 19.5787 72.7063 20.1173 72.621 20.8H77.501ZM84.752 17.04C85.4347 17.04 86.0373 17.1787 86.56 17.456C87.0933 17.7227 87.5093 18.0587 87.808 18.464V17.184H89.648V26.144C89.648 26.9547 89.4773 27.6747 89.136 28.304C88.7947 28.944 88.2987 29.4453 87.648 29.808C87.008 30.1707 86.24 30.352 85.344 30.352C84.1493 30.352 83.1573 30.0693 82.368 29.504C81.5787 28.9493 81.1307 28.192 81.024 27.232H82.832C82.9707 27.6907 83.264 28.0587 83.712 28.336C84.1707 28.624 84.7147 28.768 85.344 28.768C86.08 28.768 86.672 28.544 87.12 28.096C87.5787 27.648 87.808 26.9973 87.808 26.144V24.672C87.4987 25.088 87.0773 25.44 86.544 25.728C86.0213 26.0053 85.424 26.144 84.752 26.144C83.984 26.144 83.28 25.952 82.64 25.568C82.0107 25.1733 81.5093 24.6293 81.136 23.936C80.7733 23.232 80.592 22.4373 80.592 21.552C80.592 20.6667 80.7733 19.8827 81.136 19.2C81.5093 18.5173 82.0107 17.9893 82.64 17.616C83.28 17.232 83.984 17.04 84.752 17.04ZM87.808 21.584C87.808 20.976 87.68 20.448 87.424 20C87.1787 19.552 86.8533 19.2107 86.448 18.976C86.0427 18.7413 85.6053 18.624 85.136 18.624C84.6667 18.624 84.2293 18.7413 83.824 18.976C83.4187 19.2 83.088 19.536 82.832 19.984C82.5867 20.4213 82.464 20.944 82.464 21.552C82.464 22.16 82.5867 22.6933 82.832 23.152C83.088 23.6107 83.4187 23.9627 83.824 24.208C84.24 24.4427 84.6773 24.56 85.136 24.56C85.6053 24.56 86.0427 24.4427 86.448 24.208C86.8533 23.9733 87.1787 23.632 87.424 23.184C87.68 22.7253 87.808 22.192 87.808 21.584ZM92.9718 16.016C92.6411 16.016 92.3638 15.904 92.1398 15.68C91.9158 15.456 91.8038 15.1787 91.8038 14.848C91.8038 14.5173 91.9158 14.24 92.1398 14.016C92.3638 13.792 92.6411 13.68 92.9718 13.68C93.2918 13.68 93.5638 13.792 93.7878 14.016C94.0118 14.24 94.1238 14.5173 94.1238 14.848C94.1238 15.1787 94.0118 15.456 93.7878 15.68C93.5638 15.904 93.2918 16.016 92.9718 16.016ZM93.8678 17.184V26H92.0438V17.184H93.8678ZM95.6545 21.552C95.6545 20.6667 95.8358 19.8827 96.1985 19.2C96.5718 18.5173 97.0732 17.9893 97.7025 17.616C98.3425 17.232 99.0465 17.04 99.8145 17.04C100.508 17.04 101.111 17.1787 101.623 17.456C102.145 17.7227 102.561 18.0587 102.871 18.464V17.184H104.711V26H102.871V24.688C102.561 25.104 102.14 25.4507 101.607 25.728C101.073 26.0053 100.465 26.144 99.7825 26.144C99.0252 26.144 98.3318 25.952 97.7025 25.568C97.0732 25.1733 96.5718 24.6293 96.1985 23.936C95.8358 23.232 95.6545 22.4373 95.6545 21.552ZM102.871 21.584C102.871 20.976 102.743 20.448 102.487 20C102.241 19.552 101.916 19.2107 101.511 18.976C101.105 18.7413 100.668 18.624 100.199 18.624C99.7292 18.624 99.2918 18.7413 98.8865 18.976C98.4812 19.2 98.1505 19.536 97.8945 19.984C97.6492 20.4213 97.5265 20.944 97.5265 21.552C97.5265 22.16 97.6492 22.6933 97.8945 23.152C98.1505 23.6107 98.4812 23.9627 98.8865 24.208C99.3025 24.4427 99.7398 24.56 100.199 24.56C100.668 24.56 101.105 24.4427 101.511 24.208C101.916 23.9733 102.241 23.632 102.487 23.184C102.743 22.7253 102.871 22.192 102.871 21.584ZM109.234 18.672V23.552C109.234 23.8827 109.309 24.1227 109.458 24.272C109.618 24.4107 109.885 24.48 110.258 24.48H111.378V26H109.938C109.117 26 108.488 25.808 108.05 25.424C107.613 25.04 107.394 24.416 107.394 23.552V18.672H106.354V17.184H107.394V14.992H109.234V17.184H111.378V18.672H109.234ZM112.451 21.552C112.451 20.6667 112.633 19.8827 112.995 19.2C113.369 18.5173 113.87 17.9893 114.499 17.616C115.139 17.232 115.843 17.04 116.611 17.04C117.305 17.04 117.907 17.1787 118.419 17.456C118.942 17.7227 119.358 18.0587 119.667 18.464V17.184H121.507V26H119.667V24.688C119.358 25.104 118.937 25.4507 118.403 25.728C117.87 26.0053 117.262 26.144 116.579 26.144C115.822 26.144 115.129 25.952 114.499 25.568C113.87 25.1733 113.369 24.6293 112.995 23.936C112.633 23.232 112.451 22.4373 112.451 21.552ZM119.667 21.584C119.667 20.976 119.539 20.448 119.283 20C119.038 19.552 118.713 19.2107 118.307 18.976C117.902 18.7413 117.465 18.624 116.995 18.624C116.526 18.624 116.089 18.7413 115.683 18.976C115.278 19.2 114.947 19.536 114.691 19.984C114.446 20.4213 114.323 20.944 114.323 21.552C114.323 22.16 114.446 22.6933 114.691 23.152C114.947 23.6107 115.278 23.9627 115.683 24.208C116.099 24.4427 116.537 24.56 116.995 24.56C117.465 24.56 117.902 24.4427 118.307 24.208C118.713 23.9733 119.038 23.632 119.283 23.184C119.539 22.7253 119.667 22.192 119.667 21.584ZM128.351 17.04C129.044 17.04 129.663 17.184 130.207 17.472C130.762 17.76 131.194 18.1867 131.503 18.752C131.812 19.3173 131.967 20 131.967 20.8V26H130.159V21.072C130.159 20.2827 129.962 19.68 129.567 19.264C129.172 18.8373 128.634 18.624 127.951 18.624C127.268 18.624 126.724 18.8373 126.319 19.264C125.924 19.68 125.727 20.2827 125.727 21.072V26H123.903V17.184H125.727V18.192C126.026 17.8293 126.404 17.5467 126.863 17.344C127.332 17.1413 127.828 17.04 128.351 17.04Z" fill="white"/>
</svg>
