<svg width="195" height="40" viewBox="0 0 195 40" fill="none" xmlns="http://www.w3.org/2000/svg">
<path d="M43 11H29C27.8954 11 27 11.8954 27 13V27C27 28.1046 27.8954 29 29 29H43C44.1046 29 45 28.1046 45 27V13C45 11.8954 44.1046 11 43 11Z" stroke="white" stroke-width="1.5" stroke-linecap="round" stroke-linejoin="round"/>
<path d="M32.5 18C33.3284 18 34 17.3284 34 16.5C34 15.6716 33.3284 15 32.5 15C31.6716 15 31 15.6716 31 16.5C31 17.3284 31.6716 18 32.5 18Z" stroke="white" stroke-width="1.5" stroke-linecap="round" stroke-linejoin="round"/>
<path d="M45 23L40 18L29 29" stroke="white" stroke-width="1.5" stroke-linecap="round" stroke-linejoin="round"/>
<path d="M64.832 14.88C66.016 14.88 67.0507 15.1093 67.936 15.568C68.832 16.016 69.52 16.6667 70 17.52C70.4907 18.3627 70.736 19.3493 70.736 20.48C70.736 21.6107 70.4907 22.592 70 23.424C69.52 24.256 68.832 24.896 67.936 25.344C67.0507 25.7813 66.016 26 64.832 26H61.2V14.88H64.832ZM64.832 24.512C66.1333 24.512 67.1307 24.16 67.824 23.456C68.5173 22.752 68.864 21.76 68.864 20.48C68.864 19.1893 68.5173 18.1813 67.824 17.456C67.1307 16.7307 66.1333 16.368 64.832 16.368H63.024V24.512H64.832ZM76.3678 26.144C75.5358 26.144 74.7838 25.9573 74.1118 25.584C73.4398 25.2 72.9118 24.6667 72.5278 23.984C72.1438 23.2907 71.9518 22.4907 71.9518 21.584C71.9518 20.688 72.1491 19.8933 72.5438 19.2C72.9384 18.5067 73.4771 17.9733 74.1598 17.6C74.8424 17.2267 75.6051 17.04 76.4478 17.04C77.2904 17.04 78.0531 17.2267 78.7358 17.6C79.4184 17.9733 79.9571 18.5067 80.3518 19.2C80.7464 19.8933 80.9438 20.688 80.9438 21.584C80.9438 22.48 80.7411 23.2747 80.3358 23.968C79.9304 24.6613 79.3758 25.2 78.6718 25.584C77.9784 25.9573 77.2104 26.144 76.3678 26.144ZM76.3678 24.56C76.8371 24.56 77.2744 24.448 77.6798 24.224C78.0958 24 78.4318 23.664 78.6878 23.216C78.9438 22.768 79.0718 22.224 79.0718 21.584C79.0718 20.944 78.9491 20.4053 78.7038 19.968C78.4584 19.52 78.1331 19.184 77.7278 18.96C77.3224 18.736 76.8851 18.624 76.4158 18.624C75.9464 18.624 75.5091 18.736 75.1038 18.96C74.7091 19.184 74.3944 19.52 74.1598 19.968C73.9251 20.4053 73.8078 20.944 73.8078 21.584C73.8078 22.5333 74.0478 23.2693 74.5278 23.792C75.0184 24.304 75.6318 24.56 76.3678 24.56ZM86.2349 21.6L90.2989 26H87.8349L84.5709 22.208V26H82.7469V14.16H84.5709V21.04L87.7709 17.184H90.2989L86.2349 21.6ZM99.5903 17.184V26H97.7663V24.96C97.4783 25.3227 97.0996 25.6107 96.6303 25.824C96.1716 26.0267 95.6809 26.128 95.1583 26.128C94.4649 26.128 93.8409 25.984 93.2863 25.696C92.7423 25.408 92.3103 24.9813 91.9903 24.416C91.6809 23.8507 91.5263 23.168 91.5263 22.368V17.184H93.3343V22.096C93.3343 22.8853 93.5316 23.4933 93.9263 23.92C94.3209 24.336 94.8596 24.544 95.5423 24.544C96.2249 24.544 96.7636 24.336 97.1583 23.92C97.5636 23.4933 97.7663 22.8853 97.7663 22.096V17.184H99.5903ZM112.669 17.04C113.362 17.04 113.981 17.184 114.525 17.472C115.08 17.76 115.512 18.1867 115.821 18.752C116.141 19.3173 116.301 20 116.301 20.8V26H114.493V21.072C114.493 20.2827 114.296 19.68 113.901 19.264C113.506 18.8373 112.968 18.624 112.285 18.624C111.602 18.624 111.058 18.8373 110.653 19.264C110.258 19.68 110.061 20.2827 110.061 21.072V26H108.253V21.072C108.253 20.2827 108.056 19.68 107.661 19.264C107.266 18.8373 106.728 18.624 106.045 18.624C105.362 18.624 104.818 18.8373 104.413 19.264C104.018 19.68 103.821 20.2827 103.821 21.072V26H101.997V17.184H103.821V18.192C104.12 17.8293 104.498 17.5467 104.957 17.344C105.416 17.1413 105.906 17.04 106.429 17.04C107.133 17.04 107.762 17.1893 108.317 17.488C108.872 17.7867 109.298 18.2187 109.597 18.784C109.864 18.2507 110.28 17.8293 110.845 17.52C111.41 17.2 112.018 17.04 112.669 17.04ZM126.702 21.376C126.702 21.7067 126.681 22.0053 126.638 22.272H119.902C119.955 22.976 120.217 23.5413 120.686 23.968C121.155 24.3947 121.731 24.608 122.414 24.608C123.395 24.608 124.089 24.1973 124.494 23.376H126.462C126.195 24.1867 125.71 24.8533 125.006 25.376C124.313 25.888 123.449 26.144 122.414 26.144C121.571 26.144 120.814 25.9573 120.142 25.584C119.481 25.2 118.958 24.6667 118.574 23.984C118.201 23.2907 118.014 22.4907 118.014 21.584C118.014 20.6773 118.195 19.8827 118.558 19.2C118.931 18.5067 119.449 17.9733 120.11 17.6C120.782 17.2267 121.55 17.04 122.414 17.04C123.246 17.04 123.987 17.2213 124.638 17.584C125.289 17.9467 125.795 18.4587 126.158 19.12C126.521 19.7707 126.702 20.5227 126.702 21.376ZM124.798 20.8C124.787 20.128 124.547 19.5893 124.078 19.184C123.609 18.7787 123.027 18.576 122.334 18.576C121.705 18.576 121.166 18.7787 120.718 19.184C120.27 19.5787 120.003 20.1173 119.918 20.8H124.798ZM132.945 17.04C133.638 17.04 134.257 17.184 134.801 17.472C135.356 17.76 135.788 18.1867 136.097 18.752C136.406 19.3173 136.561 20 136.561 20.8V26H134.753V21.072C134.753 20.2827 134.556 19.68 134.161 19.264C133.766 18.8373 133.228 18.624 132.545 18.624C131.862 18.624 131.318 18.8373 130.913 19.264C130.518 19.68 130.321 20.2827 130.321 21.072V26H128.497V17.184H130.321V18.192C130.62 17.8293 130.998 17.5467 131.457 17.344C131.926 17.1413 132.422 17.04 132.945 17.04ZM141.016 18.672V23.552C141.016 23.8827 141.09 24.1227 141.24 24.272C141.4 24.4107 141.666 24.48 142.04 24.48H143.16V26H141.72C140.898 26 140.269 25.808 139.832 25.424C139.394 25.04 139.176 24.416 139.176 23.552V18.672H138.136V17.184H139.176V14.992H141.016V17.184H143.16V18.672H141.016ZM144.233 21.552C144.233 20.6667 144.414 19.8827 144.777 19.2C145.15 18.5173 145.651 17.9893 146.281 17.616C146.921 17.232 147.625 17.04 148.393 17.04C149.086 17.04 149.689 17.1787 150.201 17.456C150.723 17.7227 151.139 18.0587 151.449 18.464V17.184H153.289V26H151.449V24.688C151.139 25.104 150.718 25.4507 150.185 25.728C149.651 26.0053 149.043 26.144 148.361 26.144C147.603 26.144 146.91 25.952 146.281 25.568C145.651 25.1733 145.15 24.6293 144.777 23.936C144.414 23.232 144.233 22.4373 144.233 21.552ZM151.449 21.584C151.449 20.976 151.321 20.448 151.065 20C150.819 19.552 150.494 19.2107 150.089 18.976C149.683 18.7413 149.246 18.624 148.777 18.624C148.307 18.624 147.87 18.7413 147.465 18.976C147.059 19.2 146.729 19.536 146.473 19.984C146.227 20.4213 146.105 20.944 146.105 21.552C146.105 22.16 146.227 22.6933 146.473 23.152C146.729 23.6107 147.059 23.9627 147.465 24.208C147.881 24.4427 148.318 24.56 148.777 24.56C149.246 24.56 149.683 24.4427 150.089 24.208C150.494 23.9733 150.819 23.632 151.065 23.184C151.321 22.7253 151.449 22.192 151.449 21.584ZM158.884 26.144C158.191 26.144 157.567 26.0213 157.012 25.776C156.468 25.52 156.036 25.1787 155.716 24.752C155.396 24.3147 155.226 23.8293 155.204 23.296H157.092C157.124 23.6693 157.3 23.984 157.62 24.24C157.951 24.4853 158.362 24.608 158.852 24.608C159.364 24.608 159.759 24.512 160.036 24.32C160.324 24.1173 160.468 23.8613 160.468 23.552C160.468 23.2213 160.308 22.976 159.988 22.816C159.679 22.656 159.183 22.48 158.5 22.288C157.839 22.1067 157.3 21.9307 156.884 21.76C156.468 21.5893 156.106 21.328 155.796 20.976C155.498 20.624 155.348 20.16 155.348 19.584C155.348 19.1147 155.487 18.688 155.764 18.304C156.042 17.9093 156.436 17.6 156.948 17.376C157.471 17.152 158.068 17.04 158.74 17.04C159.743 17.04 160.548 17.296 161.156 17.808C161.775 18.3093 162.106 18.9973 162.148 19.872H160.324C160.292 19.4773 160.132 19.1627 159.844 18.928C159.556 18.6933 159.167 18.576 158.676 18.576C158.196 18.576 157.828 18.6667 157.572 18.848C157.316 19.0293 157.188 19.2693 157.188 19.568C157.188 19.8027 157.274 20 157.444 20.16C157.615 20.32 157.823 20.448 158.068 20.544C158.314 20.6293 158.676 20.7413 159.156 20.88C159.796 21.0507 160.319 21.2267 160.724 21.408C161.14 21.5787 161.498 21.8347 161.796 22.176C162.095 22.5173 162.25 22.9707 162.26 23.536C162.26 24.0373 162.122 24.4853 161.844 24.88C161.567 25.2747 161.172 25.584 160.66 25.808C160.159 26.032 159.567 26.144 158.884 26.144ZM165.159 16.016C164.829 16.016 164.551 15.904 164.327 15.68C164.103 15.456 163.991 15.1787 163.991 14.848C163.991 14.5173 164.103 14.24 164.327 14.016C164.551 13.792 164.829 13.68 165.159 13.68C165.479 13.68 165.751 13.792 165.975 14.016C166.199 14.24 166.311 14.5173 166.311 14.848C166.311 15.1787 166.199 15.456 165.975 15.68C165.751 15.904 165.479 16.016 165.159 16.016ZM166.055 17.184V26H164.231V17.184H166.055Z" fill="white"/>
</svg>
