<svg width="195" height="40" viewBox="0 0 195 40" fill="none" xmlns="http://www.w3.org/2000/svg">
<path d="M30 10H38L44 16V28C44 28.5304 43.7893 29.0391 43.4142 29.4142C43.0391 29.7893 42.5304 30 42 30H30C29.4696 30 28.9609 29.7893 28.5858 29.4142C28.2107 29.0391 28 28.5304 28 28V12C28 11.4696 28.2107 10.9609 28.5858 10.5858C28.9609 10.2107 29.4696 10 30 10Z" stroke="white" stroke-width="1.5" stroke-linecap="round" stroke-linejoin="round"/>
<path d="M38 10V16H44" stroke="white" stroke-width="1.5" stroke-linecap="round" stroke-linejoin="round"/>
<path d="M40 21H32" stroke="white" stroke-width="1.5" stroke-linecap="round" stroke-linejoin="round"/>
<path d="M40 25H32" stroke="white" stroke-width="1.5" stroke-linecap="round" stroke-linejoin="round"/>
<path d="M34 17H33H32" stroke="white" stroke-width="1.5" stroke-linecap="round" stroke-linejoin="round"/>
<path d="M63.024 24.528H66.784V26H61.2V14.88H63.024V24.528ZM67.7014 21.552C67.7014 20.6667 67.8827 19.8827 68.2454 19.2C68.6187 18.5173 69.12 17.9893 69.7494 17.616C70.3894 17.232 71.0934 17.04 71.8614 17.04C72.5547 17.04 73.1574 17.1787 73.6694 17.456C74.192 17.7227 74.608 18.0587 74.9174 18.464V17.184H76.7574V26H74.9174V24.688C74.608 25.104 74.1867 25.4507 73.6534 25.728C73.12 26.0053 72.512 26.144 71.8294 26.144C71.072 26.144 70.3787 25.952 69.7494 25.568C69.12 25.1733 68.6187 24.6293 68.2454 23.936C67.8827 23.232 67.7014 22.4373 67.7014 21.552ZM74.9174 21.584C74.9174 20.976 74.7894 20.448 74.5334 20C74.288 19.552 73.9627 19.2107 73.5574 18.976C73.152 18.7413 72.7147 18.624 72.2454 18.624C71.776 18.624 71.3387 18.7413 70.9334 18.976C70.528 19.2 70.1974 19.536 69.9414 19.984C69.696 20.4213 69.5734 20.944 69.5734 21.552C69.5734 22.16 69.696 22.6933 69.9414 23.152C70.1974 23.6107 70.528 23.9627 70.9334 24.208C71.3494 24.4427 71.7867 24.56 72.2454 24.56C72.7147 24.56 73.152 24.4427 73.5574 24.208C73.9627 23.9733 74.288 23.632 74.5334 23.184C74.7894 22.7253 74.9174 22.192 74.9174 21.584ZM80.9771 18.48C81.2865 18.0747 81.7078 17.7333 82.2411 17.456C82.7745 17.1787 83.3771 17.04 84.0491 17.04C84.8171 17.04 85.5158 17.232 86.1451 17.616C86.7851 17.9893 87.2865 18.5173 87.6491 19.2C88.0118 19.8827 88.1931 20.6667 88.1931 21.552C88.1931 22.4373 88.0118 23.232 87.6491 23.936C87.2865 24.6293 86.7851 25.1733 86.1451 25.568C85.5158 25.952 84.8171 26.144 84.0491 26.144C83.3771 26.144 82.7798 26.0107 82.2571 25.744C81.7345 25.4667 81.3078 25.1253 80.9771 24.72V30.192H79.1531V17.184H80.9771V18.48ZM86.3371 21.552C86.3371 20.944 86.2091 20.4213 85.9531 19.984C85.7078 19.536 85.3771 19.2 84.9611 18.976C84.5558 18.7413 84.1185 18.624 83.6491 18.624C83.1905 18.624 82.7531 18.7413 82.3371 18.976C81.9318 19.2107 81.6011 19.552 81.3451 20C81.0998 20.448 80.9771 20.976 80.9771 21.584C80.9771 22.192 81.0998 22.7253 81.3451 23.184C81.6011 23.632 81.9318 23.9733 82.3371 24.208C82.7531 24.4427 83.1905 24.56 83.6491 24.56C84.1185 24.56 84.5558 24.4427 84.9611 24.208C85.3771 23.9627 85.7078 23.6107 85.9531 23.152C86.2091 22.6933 86.3371 22.16 86.3371 21.552ZM93.8209 26.144C92.9889 26.144 92.2369 25.9573 91.5649 25.584C90.8929 25.2 90.3649 24.6667 89.9809 23.984C89.5969 23.2907 89.4049 22.4907 89.4049 21.584C89.4049 20.688 89.6022 19.8933 89.9969 19.2C90.3915 18.5067 90.9302 17.9733 91.6129 17.6C92.2955 17.2267 93.0582 17.04 93.9009 17.04C94.7435 17.04 95.5062 17.2267 96.1889 17.6C96.8715 17.9733 97.4102 18.5067 97.8049 19.2C98.1995 19.8933 98.3969 20.688 98.3969 21.584C98.3969 22.48 98.1942 23.2747 97.7889 23.968C97.3835 24.6613 96.8289 25.2 96.1249 25.584C95.4315 25.9573 94.6635 26.144 93.8209 26.144ZM93.8209 24.56C94.2902 24.56 94.7275 24.448 95.1329 24.224C95.5489 24 95.8849 23.664 96.1409 23.216C96.3969 22.768 96.5249 22.224 96.5249 21.584C96.5249 20.944 96.4022 20.4053 96.1569 19.968C95.9115 19.52 95.5862 19.184 95.1809 18.96C94.7755 18.736 94.3382 18.624 93.8689 18.624C93.3995 18.624 92.9622 18.736 92.5569 18.96C92.1622 19.184 91.8475 19.52 91.6129 19.968C91.3782 20.4053 91.2609 20.944 91.2609 21.584C91.2609 22.5333 91.5009 23.2693 91.9809 23.792C92.4715 24.304 93.0849 24.56 93.8209 24.56ZM102.024 18.464C102.291 18.016 102.643 17.6693 103.08 17.424C103.528 17.168 104.056 17.04 104.664 17.04V18.928H104.2C103.485 18.928 102.941 19.1093 102.568 19.472C102.205 19.8347 102.024 20.464 102.024 21.36V26H100.2V17.184H102.024V18.464ZM105.733 21.552C105.733 20.6667 105.914 19.8827 106.277 19.2C106.65 18.5173 107.151 17.9893 107.781 17.616C108.421 17.232 109.125 17.04 109.893 17.04C110.586 17.04 111.189 17.1787 111.701 17.456C112.223 17.7227 112.639 18.0587 112.949 18.464V17.184H114.789V26H112.949V24.688C112.639 25.104 112.218 25.4507 111.685 25.728C111.151 26.0053 110.543 26.144 109.861 26.144C109.103 26.144 108.41 25.952 107.781 25.568C107.151 25.1733 106.65 24.6293 106.277 23.936C105.914 23.232 105.733 22.4373 105.733 21.552ZM112.949 21.584C112.949 20.976 112.821 20.448 112.565 20C112.319 19.552 111.994 19.2107 111.589 18.976C111.183 18.7413 110.746 18.624 110.277 18.624C109.807 18.624 109.37 18.7413 108.965 18.976C108.559 19.2 108.229 19.536 107.973 19.984C107.727 20.4213 107.605 20.944 107.605 21.552C107.605 22.16 107.727 22.6933 107.973 23.152C108.229 23.6107 108.559 23.9627 108.965 24.208C109.381 24.4427 109.818 24.56 110.277 24.56C110.746 24.56 111.183 24.4427 111.589 24.208C111.994 23.9733 112.319 23.632 112.565 23.184C112.821 22.7253 112.949 22.192 112.949 21.584ZM121.632 17.04C122.326 17.04 122.944 17.184 123.488 17.472C124.043 17.76 124.475 18.1867 124.784 18.752C125.094 19.3173 125.248 20 125.248 20.8V26H123.44V21.072C123.44 20.2827 123.243 19.68 122.848 19.264C122.454 18.8373 121.915 18.624 121.232 18.624C120.55 18.624 120.006 18.8373 119.6 19.264C119.206 19.68 119.008 20.2827 119.008 21.072V26H117.184V17.184H119.008V18.192C119.307 17.8293 119.686 17.5467 120.144 17.344C120.614 17.1413 121.11 17.04 121.632 17.04Z" fill="white"/>
</svg>
